%TF.GenerationSoftware,KiCad,Pcbnew,(5.1.9)-1*%
%TF.CreationDate,2021-12-22T12:25:31+01:00*%
%TF.ProjectId,led_unterm_bett,6c65645f-756e-4746-9572-6d5f62657474,v1r1*%
%TF.SameCoordinates,Original*%
%TF.FileFunction,Legend,Top*%
%TF.FilePolarity,Positive*%
%FSLAX46Y46*%
G04 Gerber Fmt 4.6, Leading zero omitted, Abs format (unit mm)*
G04 Created by KiCad (PCBNEW (5.1.9)-1) date 2021-12-22 12:25:31*
%MOMM*%
%LPD*%
G01*
G04 APERTURE LIST*
%ADD10C,0.300000*%
%TA.AperFunction,Profile*%
%ADD11C,0.150000*%
%TD*%
%ADD12C,0.120000*%
%ADD13C,0.150000*%
%ADD14C,0.100000*%
G04 APERTURE END LIST*
D10*
X157071428Y-77403571D02*
X156357142Y-77403571D01*
X156357142Y-75903571D01*
X157571428Y-76617857D02*
X158071428Y-76617857D01*
X158285714Y-77403571D02*
X157571428Y-77403571D01*
X157571428Y-75903571D01*
X158285714Y-75903571D01*
X158928571Y-77403571D02*
X158928571Y-75903571D01*
X159285714Y-75903571D01*
X159500000Y-75975000D01*
X159642857Y-76117857D01*
X159714285Y-76260714D01*
X159785714Y-76546428D01*
X159785714Y-76760714D01*
X159714285Y-77046428D01*
X159642857Y-77189285D01*
X159500000Y-77332142D01*
X159285714Y-77403571D01*
X158928571Y-77403571D01*
X161785714Y-77403571D02*
X161642857Y-77332142D01*
X161571428Y-77189285D01*
X161571428Y-75903571D01*
X162571428Y-77403571D02*
X162428571Y-77332142D01*
X162357142Y-77260714D01*
X162285714Y-77117857D01*
X162285714Y-76689285D01*
X162357142Y-76546428D01*
X162428571Y-76475000D01*
X162571428Y-76403571D01*
X162785714Y-76403571D01*
X162928571Y-76475000D01*
X163000000Y-76546428D01*
X163071428Y-76689285D01*
X163071428Y-77117857D01*
X163000000Y-77260714D01*
X162928571Y-77332142D01*
X162785714Y-77403571D01*
X162571428Y-77403571D01*
X163571428Y-76403571D02*
X163857142Y-77403571D01*
X164142857Y-76689285D01*
X164428571Y-77403571D01*
X164714285Y-76403571D01*
X165500000Y-77403571D02*
X165357142Y-77332142D01*
X165285714Y-77189285D01*
X165285714Y-75903571D01*
X166071428Y-77403571D02*
X166071428Y-76403571D01*
X166071428Y-75903571D02*
X166000000Y-75975000D01*
X166071428Y-76046428D01*
X166142857Y-75975000D01*
X166071428Y-75903571D01*
X166071428Y-76046428D01*
X167428571Y-76403571D02*
X167428571Y-77617857D01*
X167357142Y-77760714D01*
X167285714Y-77832142D01*
X167142857Y-77903571D01*
X166928571Y-77903571D01*
X166785714Y-77832142D01*
X167428571Y-77332142D02*
X167285714Y-77403571D01*
X167000000Y-77403571D01*
X166857142Y-77332142D01*
X166785714Y-77260714D01*
X166714285Y-77117857D01*
X166714285Y-76689285D01*
X166785714Y-76546428D01*
X166857142Y-76475000D01*
X167000000Y-76403571D01*
X167285714Y-76403571D01*
X167428571Y-76475000D01*
X168142857Y-77403571D02*
X168142857Y-75903571D01*
X168785714Y-77403571D02*
X168785714Y-76617857D01*
X168714285Y-76475000D01*
X168571428Y-76403571D01*
X168357142Y-76403571D01*
X168214285Y-76475000D01*
X168142857Y-76546428D01*
X169285714Y-76403571D02*
X169857142Y-76403571D01*
X169500000Y-75903571D02*
X169500000Y-77189285D01*
X169571428Y-77332142D01*
X169714285Y-77403571D01*
X169857142Y-77403571D01*
X159035714Y-79882142D02*
X158892857Y-79953571D01*
X158607142Y-79953571D01*
X158464285Y-79882142D01*
X158392857Y-79810714D01*
X158321428Y-79667857D01*
X158321428Y-79239285D01*
X158392857Y-79096428D01*
X158464285Y-79025000D01*
X158607142Y-78953571D01*
X158892857Y-78953571D01*
X159035714Y-79025000D01*
X159464285Y-78953571D02*
X160035714Y-78953571D01*
X159678571Y-78453571D02*
X159678571Y-79739285D01*
X159750000Y-79882142D01*
X159892857Y-79953571D01*
X160035714Y-79953571D01*
X160535714Y-79953571D02*
X160535714Y-78953571D01*
X160535714Y-79239285D02*
X160607142Y-79096428D01*
X160678571Y-79025000D01*
X160821428Y-78953571D01*
X160964285Y-78953571D01*
X161678571Y-79953571D02*
X161535714Y-79882142D01*
X161464285Y-79739285D01*
X161464285Y-78453571D01*
X163250000Y-78953571D02*
X163607142Y-79953571D01*
X163964285Y-78953571D01*
X165321428Y-79953571D02*
X164464285Y-79953571D01*
X164892857Y-79953571D02*
X164892857Y-78453571D01*
X164750000Y-78667857D01*
X164607142Y-78810714D01*
X164464285Y-78882142D01*
X165964285Y-79953571D02*
X165964285Y-78953571D01*
X165964285Y-79239285D02*
X166035714Y-79096428D01*
X166107142Y-79025000D01*
X166250000Y-78953571D01*
X166392857Y-78953571D01*
X167678571Y-79953571D02*
X166821428Y-79953571D01*
X167250000Y-79953571D02*
X167250000Y-78453571D01*
X167107142Y-78667857D01*
X166964285Y-78810714D01*
X166821428Y-78882142D01*
D11*
X173000000Y-136000000D02*
X117000000Y-136000000D01*
X173000000Y-59000000D02*
X173000000Y-136000000D01*
X117000000Y-59000000D02*
X173000000Y-59000000D01*
X117000000Y-136000000D02*
X117000000Y-59000000D01*
D12*
%TO.C,C6*%
X131450000Y-78550000D02*
X131450000Y-77050000D01*
X132200000Y-77800000D02*
X130700000Y-77800000D01*
X122669000Y-78079000D02*
X122669000Y-77521000D01*
X122709000Y-78472000D02*
X122709000Y-77128000D01*
X122749000Y-78713000D02*
X122749000Y-76887000D01*
X122789000Y-78904000D02*
X122789000Y-76696000D01*
X122829000Y-79065000D02*
X122829000Y-76535000D01*
X122869000Y-79207000D02*
X122869000Y-76393000D01*
X122909000Y-79336000D02*
X122909000Y-76264000D01*
X122949000Y-79454000D02*
X122949000Y-76146000D01*
X122989000Y-79563000D02*
X122989000Y-76037000D01*
X123029000Y-79666000D02*
X123029000Y-75934000D01*
X123069000Y-79762000D02*
X123069000Y-75838000D01*
X123109000Y-79853000D02*
X123109000Y-75747000D01*
X123149000Y-79940000D02*
X123149000Y-75660000D01*
X123189000Y-80022000D02*
X123189000Y-75578000D01*
X123229000Y-80101000D02*
X123229000Y-75499000D01*
X123269000Y-80177000D02*
X123269000Y-75423000D01*
X123309000Y-80249000D02*
X123309000Y-75351000D01*
X123349000Y-80319000D02*
X123349000Y-75281000D01*
X123389000Y-80387000D02*
X123389000Y-75213000D01*
X123429000Y-80452000D02*
X123429000Y-75148000D01*
X123469000Y-80515000D02*
X123469000Y-75085000D01*
X123509000Y-80577000D02*
X123509000Y-75023000D01*
X123549000Y-80636000D02*
X123549000Y-74964000D01*
X123589000Y-80694000D02*
X123589000Y-74906000D01*
X123629000Y-80749000D02*
X123629000Y-74851000D01*
X123669000Y-80804000D02*
X123669000Y-74796000D01*
X123709000Y-80857000D02*
X123709000Y-74743000D01*
X123749000Y-80908000D02*
X123749000Y-74692000D01*
X123789000Y-80958000D02*
X123789000Y-74642000D01*
X123829000Y-81007000D02*
X123829000Y-74593000D01*
X123869000Y-81055000D02*
X123869000Y-74545000D01*
X123909000Y-81102000D02*
X123909000Y-74498000D01*
X123949000Y-81147000D02*
X123949000Y-74453000D01*
X123989000Y-81191000D02*
X123989000Y-74409000D01*
X124029000Y-81235000D02*
X124029000Y-74365000D01*
X124069000Y-81277000D02*
X124069000Y-74323000D01*
X124109000Y-81318000D02*
X124109000Y-74282000D01*
X124149000Y-81359000D02*
X124149000Y-74241000D01*
X124189000Y-81398000D02*
X124189000Y-74202000D01*
X124229000Y-81437000D02*
X124229000Y-74163000D01*
X124269000Y-81475000D02*
X124269000Y-74125000D01*
X124309000Y-81512000D02*
X124309000Y-74088000D01*
X124349000Y-81548000D02*
X124349000Y-74052000D01*
X124389000Y-81584000D02*
X124389000Y-74016000D01*
X124429000Y-81619000D02*
X124429000Y-73981000D01*
X124469000Y-81653000D02*
X124469000Y-73947000D01*
X124509000Y-81686000D02*
X124509000Y-73914000D01*
X124549000Y-81719000D02*
X124549000Y-73881000D01*
X124589000Y-81751000D02*
X124589000Y-73849000D01*
X124629000Y-81782000D02*
X124629000Y-73818000D01*
X124669000Y-81813000D02*
X124669000Y-73787000D01*
X124709000Y-81843000D02*
X124709000Y-73757000D01*
X124749000Y-81872000D02*
X124749000Y-73728000D01*
X124789000Y-81901000D02*
X124789000Y-73699000D01*
X124829000Y-76619000D02*
X124829000Y-73670000D01*
X124829000Y-81930000D02*
X124829000Y-78981000D01*
X124869000Y-76619000D02*
X124869000Y-73643000D01*
X124869000Y-81957000D02*
X124869000Y-78981000D01*
X124909000Y-76619000D02*
X124909000Y-73615000D01*
X124909000Y-81985000D02*
X124909000Y-78981000D01*
X124949000Y-76619000D02*
X124949000Y-73589000D01*
X124949000Y-82011000D02*
X124949000Y-78981000D01*
X124989000Y-76619000D02*
X124989000Y-73563000D01*
X124989000Y-82037000D02*
X124989000Y-78981000D01*
X125029000Y-76619000D02*
X125029000Y-73537000D01*
X125029000Y-82063000D02*
X125029000Y-78981000D01*
X125069000Y-76619000D02*
X125069000Y-73512000D01*
X125069000Y-82088000D02*
X125069000Y-78981000D01*
X125109000Y-76619000D02*
X125109000Y-73488000D01*
X125109000Y-82112000D02*
X125109000Y-78981000D01*
X125149000Y-76619000D02*
X125149000Y-73464000D01*
X125149000Y-82136000D02*
X125149000Y-78981000D01*
X125189000Y-76619000D02*
X125189000Y-73440000D01*
X125189000Y-82160000D02*
X125189000Y-78981000D01*
X125229000Y-76619000D02*
X125229000Y-73417000D01*
X125229000Y-82183000D02*
X125229000Y-78981000D01*
X125269000Y-76619000D02*
X125269000Y-73395000D01*
X125269000Y-82205000D02*
X125269000Y-78981000D01*
X125309000Y-76619000D02*
X125309000Y-73372000D01*
X125309000Y-82228000D02*
X125309000Y-78981000D01*
X125349000Y-76619000D02*
X125349000Y-73351000D01*
X125349000Y-82249000D02*
X125349000Y-78981000D01*
X125389000Y-76619000D02*
X125389000Y-73330000D01*
X125389000Y-82270000D02*
X125389000Y-78981000D01*
X125429000Y-76619000D02*
X125429000Y-73309000D01*
X125429000Y-82291000D02*
X125429000Y-78981000D01*
X125469000Y-76619000D02*
X125469000Y-73289000D01*
X125469000Y-82311000D02*
X125469000Y-78981000D01*
X125509000Y-76619000D02*
X125509000Y-73269000D01*
X125509000Y-82331000D02*
X125509000Y-78981000D01*
X125549000Y-76619000D02*
X125549000Y-73250000D01*
X125549000Y-82350000D02*
X125549000Y-78981000D01*
X125589000Y-76619000D02*
X125589000Y-73231000D01*
X125589000Y-82369000D02*
X125589000Y-78981000D01*
X125629000Y-76619000D02*
X125629000Y-73212000D01*
X125629000Y-82388000D02*
X125629000Y-78981000D01*
X125669000Y-76619000D02*
X125669000Y-73194000D01*
X125669000Y-82406000D02*
X125669000Y-78981000D01*
X125709000Y-76619000D02*
X125709000Y-73176000D01*
X125709000Y-82424000D02*
X125709000Y-78981000D01*
X125749000Y-76619000D02*
X125749000Y-73159000D01*
X125749000Y-82441000D02*
X125749000Y-78981000D01*
X125789000Y-76619000D02*
X125789000Y-73142000D01*
X125789000Y-82458000D02*
X125789000Y-78981000D01*
X125829000Y-76619000D02*
X125829000Y-73126000D01*
X125829000Y-82474000D02*
X125829000Y-78981000D01*
X125869000Y-76619000D02*
X125869000Y-73109000D01*
X125869000Y-82491000D02*
X125869000Y-78981000D01*
X125909000Y-76619000D02*
X125909000Y-73094000D01*
X125909000Y-82506000D02*
X125909000Y-78981000D01*
X125949000Y-76619000D02*
X125949000Y-73078000D01*
X125949000Y-82522000D02*
X125949000Y-78981000D01*
X125989000Y-76619000D02*
X125989000Y-73063000D01*
X125989000Y-82537000D02*
X125989000Y-78981000D01*
X126029000Y-76619000D02*
X126029000Y-73049000D01*
X126029000Y-82551000D02*
X126029000Y-78981000D01*
X126069000Y-76619000D02*
X126069000Y-73035000D01*
X126069000Y-82565000D02*
X126069000Y-78981000D01*
X126109000Y-76619000D02*
X126109000Y-73021000D01*
X126109000Y-82579000D02*
X126109000Y-78981000D01*
X126149000Y-76619000D02*
X126149000Y-73008000D01*
X126149000Y-82592000D02*
X126149000Y-78981000D01*
X126189000Y-76619000D02*
X126189000Y-72994000D01*
X126189000Y-82606000D02*
X126189000Y-78981000D01*
X126229000Y-76619000D02*
X126229000Y-72982000D01*
X126229000Y-82618000D02*
X126229000Y-78981000D01*
X126269000Y-76619000D02*
X126269000Y-72969000D01*
X126269000Y-82631000D02*
X126269000Y-78981000D01*
X126309000Y-76619000D02*
X126309000Y-72957000D01*
X126309000Y-82643000D02*
X126309000Y-78981000D01*
X126349000Y-76619000D02*
X126349000Y-72946000D01*
X126349000Y-82654000D02*
X126349000Y-78981000D01*
X126389000Y-76619000D02*
X126389000Y-72935000D01*
X126389000Y-82665000D02*
X126389000Y-78981000D01*
X126429000Y-76619000D02*
X126429000Y-72924000D01*
X126429000Y-82676000D02*
X126429000Y-78981000D01*
X126469000Y-76619000D02*
X126469000Y-72913000D01*
X126469000Y-82687000D02*
X126469000Y-78981000D01*
X126509000Y-76619000D02*
X126509000Y-72903000D01*
X126509000Y-82697000D02*
X126509000Y-78981000D01*
X126549000Y-76619000D02*
X126549000Y-72893000D01*
X126549000Y-82707000D02*
X126549000Y-78981000D01*
X126589000Y-76619000D02*
X126589000Y-72883000D01*
X126589000Y-82717000D02*
X126589000Y-78981000D01*
X126629000Y-76619000D02*
X126629000Y-72874000D01*
X126629000Y-82726000D02*
X126629000Y-78981000D01*
X126669000Y-76619000D02*
X126669000Y-72865000D01*
X126669000Y-82735000D02*
X126669000Y-78981000D01*
X126709000Y-76619000D02*
X126709000Y-72857000D01*
X126709000Y-82743000D02*
X126709000Y-78981000D01*
X126749000Y-76619000D02*
X126749000Y-72849000D01*
X126749000Y-82751000D02*
X126749000Y-78981000D01*
X126789000Y-76619000D02*
X126789000Y-72841000D01*
X126789000Y-82759000D02*
X126789000Y-78981000D01*
X126829000Y-76619000D02*
X126829000Y-72833000D01*
X126829000Y-82767000D02*
X126829000Y-78981000D01*
X126869000Y-76619000D02*
X126869000Y-72826000D01*
X126869000Y-82774000D02*
X126869000Y-78981000D01*
X126909000Y-76619000D02*
X126909000Y-72819000D01*
X126909000Y-82781000D02*
X126909000Y-78981000D01*
X126949000Y-76619000D02*
X126949000Y-72813000D01*
X126949000Y-82787000D02*
X126949000Y-78981000D01*
X126989000Y-76619000D02*
X126989000Y-72807000D01*
X126989000Y-82793000D02*
X126989000Y-78981000D01*
X127029000Y-76619000D02*
X127029000Y-72801000D01*
X127029000Y-82799000D02*
X127029000Y-78981000D01*
X127070000Y-76619000D02*
X127070000Y-72795000D01*
X127070000Y-82805000D02*
X127070000Y-78981000D01*
X127110000Y-76619000D02*
X127110000Y-72790000D01*
X127110000Y-82810000D02*
X127110000Y-78981000D01*
X127150000Y-76619000D02*
X127150000Y-72785000D01*
X127150000Y-82815000D02*
X127150000Y-78981000D01*
X127190000Y-82820000D02*
X127190000Y-72780000D01*
X127230000Y-82824000D02*
X127230000Y-72776000D01*
X127270000Y-82828000D02*
X127270000Y-72772000D01*
X127310000Y-82831000D02*
X127310000Y-72769000D01*
X127350000Y-82835000D02*
X127350000Y-72765000D01*
X127390000Y-82838000D02*
X127390000Y-72762000D01*
X127430000Y-82840000D02*
X127430000Y-72760000D01*
X127470000Y-82843000D02*
X127470000Y-72757000D01*
X127510000Y-82845000D02*
X127510000Y-72755000D01*
X127550000Y-82847000D02*
X127550000Y-72753000D01*
X127590000Y-82848000D02*
X127590000Y-72752000D01*
X127630000Y-82849000D02*
X127630000Y-72751000D01*
X127670000Y-82850000D02*
X127670000Y-72750000D01*
X127710000Y-82850000D02*
X127710000Y-72750000D01*
X127750000Y-82850000D02*
X127750000Y-72750000D01*
X132840000Y-77800000D02*
G75*
G03*
X132840000Y-77800000I-5090000J0D01*
G01*
%TO.C,C7*%
X122350000Y-99950000D02*
X122350000Y-101450000D01*
X121600000Y-100700000D02*
X123100000Y-100700000D01*
X131131000Y-100421000D02*
X131131000Y-100979000D01*
X131091000Y-100028000D02*
X131091000Y-101372000D01*
X131051000Y-99787000D02*
X131051000Y-101613000D01*
X131011000Y-99596000D02*
X131011000Y-101804000D01*
X130971000Y-99435000D02*
X130971000Y-101965000D01*
X130931000Y-99293000D02*
X130931000Y-102107000D01*
X130891000Y-99164000D02*
X130891000Y-102236000D01*
X130851000Y-99046000D02*
X130851000Y-102354000D01*
X130811000Y-98937000D02*
X130811000Y-102463000D01*
X130771000Y-98834000D02*
X130771000Y-102566000D01*
X130731000Y-98738000D02*
X130731000Y-102662000D01*
X130691000Y-98647000D02*
X130691000Y-102753000D01*
X130651000Y-98560000D02*
X130651000Y-102840000D01*
X130611000Y-98478000D02*
X130611000Y-102922000D01*
X130571000Y-98399000D02*
X130571000Y-103001000D01*
X130531000Y-98323000D02*
X130531000Y-103077000D01*
X130491000Y-98251000D02*
X130491000Y-103149000D01*
X130451000Y-98181000D02*
X130451000Y-103219000D01*
X130411000Y-98113000D02*
X130411000Y-103287000D01*
X130371000Y-98048000D02*
X130371000Y-103352000D01*
X130331000Y-97985000D02*
X130331000Y-103415000D01*
X130291000Y-97923000D02*
X130291000Y-103477000D01*
X130251000Y-97864000D02*
X130251000Y-103536000D01*
X130211000Y-97806000D02*
X130211000Y-103594000D01*
X130171000Y-97751000D02*
X130171000Y-103649000D01*
X130131000Y-97696000D02*
X130131000Y-103704000D01*
X130091000Y-97643000D02*
X130091000Y-103757000D01*
X130051000Y-97592000D02*
X130051000Y-103808000D01*
X130011000Y-97542000D02*
X130011000Y-103858000D01*
X129971000Y-97493000D02*
X129971000Y-103907000D01*
X129931000Y-97445000D02*
X129931000Y-103955000D01*
X129891000Y-97398000D02*
X129891000Y-104002000D01*
X129851000Y-97353000D02*
X129851000Y-104047000D01*
X129811000Y-97309000D02*
X129811000Y-104091000D01*
X129771000Y-97265000D02*
X129771000Y-104135000D01*
X129731000Y-97223000D02*
X129731000Y-104177000D01*
X129691000Y-97182000D02*
X129691000Y-104218000D01*
X129651000Y-97141000D02*
X129651000Y-104259000D01*
X129611000Y-97102000D02*
X129611000Y-104298000D01*
X129571000Y-97063000D02*
X129571000Y-104337000D01*
X129531000Y-97025000D02*
X129531000Y-104375000D01*
X129491000Y-96988000D02*
X129491000Y-104412000D01*
X129451000Y-96952000D02*
X129451000Y-104448000D01*
X129411000Y-96916000D02*
X129411000Y-104484000D01*
X129371000Y-96881000D02*
X129371000Y-104519000D01*
X129331000Y-96847000D02*
X129331000Y-104553000D01*
X129291000Y-96814000D02*
X129291000Y-104586000D01*
X129251000Y-96781000D02*
X129251000Y-104619000D01*
X129211000Y-96749000D02*
X129211000Y-104651000D01*
X129171000Y-96718000D02*
X129171000Y-104682000D01*
X129131000Y-96687000D02*
X129131000Y-104713000D01*
X129091000Y-96657000D02*
X129091000Y-104743000D01*
X129051000Y-96628000D02*
X129051000Y-104772000D01*
X129011000Y-96599000D02*
X129011000Y-104801000D01*
X128971000Y-101881000D02*
X128971000Y-104830000D01*
X128971000Y-96570000D02*
X128971000Y-99519000D01*
X128931000Y-101881000D02*
X128931000Y-104857000D01*
X128931000Y-96543000D02*
X128931000Y-99519000D01*
X128891000Y-101881000D02*
X128891000Y-104885000D01*
X128891000Y-96515000D02*
X128891000Y-99519000D01*
X128851000Y-101881000D02*
X128851000Y-104911000D01*
X128851000Y-96489000D02*
X128851000Y-99519000D01*
X128811000Y-101881000D02*
X128811000Y-104937000D01*
X128811000Y-96463000D02*
X128811000Y-99519000D01*
X128771000Y-101881000D02*
X128771000Y-104963000D01*
X128771000Y-96437000D02*
X128771000Y-99519000D01*
X128731000Y-101881000D02*
X128731000Y-104988000D01*
X128731000Y-96412000D02*
X128731000Y-99519000D01*
X128691000Y-101881000D02*
X128691000Y-105012000D01*
X128691000Y-96388000D02*
X128691000Y-99519000D01*
X128651000Y-101881000D02*
X128651000Y-105036000D01*
X128651000Y-96364000D02*
X128651000Y-99519000D01*
X128611000Y-101881000D02*
X128611000Y-105060000D01*
X128611000Y-96340000D02*
X128611000Y-99519000D01*
X128571000Y-101881000D02*
X128571000Y-105083000D01*
X128571000Y-96317000D02*
X128571000Y-99519000D01*
X128531000Y-101881000D02*
X128531000Y-105105000D01*
X128531000Y-96295000D02*
X128531000Y-99519000D01*
X128491000Y-101881000D02*
X128491000Y-105128000D01*
X128491000Y-96272000D02*
X128491000Y-99519000D01*
X128451000Y-101881000D02*
X128451000Y-105149000D01*
X128451000Y-96251000D02*
X128451000Y-99519000D01*
X128411000Y-101881000D02*
X128411000Y-105170000D01*
X128411000Y-96230000D02*
X128411000Y-99519000D01*
X128371000Y-101881000D02*
X128371000Y-105191000D01*
X128371000Y-96209000D02*
X128371000Y-99519000D01*
X128331000Y-101881000D02*
X128331000Y-105211000D01*
X128331000Y-96189000D02*
X128331000Y-99519000D01*
X128291000Y-101881000D02*
X128291000Y-105231000D01*
X128291000Y-96169000D02*
X128291000Y-99519000D01*
X128251000Y-101881000D02*
X128251000Y-105250000D01*
X128251000Y-96150000D02*
X128251000Y-99519000D01*
X128211000Y-101881000D02*
X128211000Y-105269000D01*
X128211000Y-96131000D02*
X128211000Y-99519000D01*
X128171000Y-101881000D02*
X128171000Y-105288000D01*
X128171000Y-96112000D02*
X128171000Y-99519000D01*
X128131000Y-101881000D02*
X128131000Y-105306000D01*
X128131000Y-96094000D02*
X128131000Y-99519000D01*
X128091000Y-101881000D02*
X128091000Y-105324000D01*
X128091000Y-96076000D02*
X128091000Y-99519000D01*
X128051000Y-101881000D02*
X128051000Y-105341000D01*
X128051000Y-96059000D02*
X128051000Y-99519000D01*
X128011000Y-101881000D02*
X128011000Y-105358000D01*
X128011000Y-96042000D02*
X128011000Y-99519000D01*
X127971000Y-101881000D02*
X127971000Y-105374000D01*
X127971000Y-96026000D02*
X127971000Y-99519000D01*
X127931000Y-101881000D02*
X127931000Y-105391000D01*
X127931000Y-96009000D02*
X127931000Y-99519000D01*
X127891000Y-101881000D02*
X127891000Y-105406000D01*
X127891000Y-95994000D02*
X127891000Y-99519000D01*
X127851000Y-101881000D02*
X127851000Y-105422000D01*
X127851000Y-95978000D02*
X127851000Y-99519000D01*
X127811000Y-101881000D02*
X127811000Y-105437000D01*
X127811000Y-95963000D02*
X127811000Y-99519000D01*
X127771000Y-101881000D02*
X127771000Y-105451000D01*
X127771000Y-95949000D02*
X127771000Y-99519000D01*
X127731000Y-101881000D02*
X127731000Y-105465000D01*
X127731000Y-95935000D02*
X127731000Y-99519000D01*
X127691000Y-101881000D02*
X127691000Y-105479000D01*
X127691000Y-95921000D02*
X127691000Y-99519000D01*
X127651000Y-101881000D02*
X127651000Y-105492000D01*
X127651000Y-95908000D02*
X127651000Y-99519000D01*
X127611000Y-101881000D02*
X127611000Y-105506000D01*
X127611000Y-95894000D02*
X127611000Y-99519000D01*
X127571000Y-101881000D02*
X127571000Y-105518000D01*
X127571000Y-95882000D02*
X127571000Y-99519000D01*
X127531000Y-101881000D02*
X127531000Y-105531000D01*
X127531000Y-95869000D02*
X127531000Y-99519000D01*
X127491000Y-101881000D02*
X127491000Y-105543000D01*
X127491000Y-95857000D02*
X127491000Y-99519000D01*
X127451000Y-101881000D02*
X127451000Y-105554000D01*
X127451000Y-95846000D02*
X127451000Y-99519000D01*
X127411000Y-101881000D02*
X127411000Y-105565000D01*
X127411000Y-95835000D02*
X127411000Y-99519000D01*
X127371000Y-101881000D02*
X127371000Y-105576000D01*
X127371000Y-95824000D02*
X127371000Y-99519000D01*
X127331000Y-101881000D02*
X127331000Y-105587000D01*
X127331000Y-95813000D02*
X127331000Y-99519000D01*
X127291000Y-101881000D02*
X127291000Y-105597000D01*
X127291000Y-95803000D02*
X127291000Y-99519000D01*
X127251000Y-101881000D02*
X127251000Y-105607000D01*
X127251000Y-95793000D02*
X127251000Y-99519000D01*
X127211000Y-101881000D02*
X127211000Y-105617000D01*
X127211000Y-95783000D02*
X127211000Y-99519000D01*
X127171000Y-101881000D02*
X127171000Y-105626000D01*
X127171000Y-95774000D02*
X127171000Y-99519000D01*
X127131000Y-101881000D02*
X127131000Y-105635000D01*
X127131000Y-95765000D02*
X127131000Y-99519000D01*
X127091000Y-101881000D02*
X127091000Y-105643000D01*
X127091000Y-95757000D02*
X127091000Y-99519000D01*
X127051000Y-101881000D02*
X127051000Y-105651000D01*
X127051000Y-95749000D02*
X127051000Y-99519000D01*
X127011000Y-101881000D02*
X127011000Y-105659000D01*
X127011000Y-95741000D02*
X127011000Y-99519000D01*
X126971000Y-101881000D02*
X126971000Y-105667000D01*
X126971000Y-95733000D02*
X126971000Y-99519000D01*
X126931000Y-101881000D02*
X126931000Y-105674000D01*
X126931000Y-95726000D02*
X126931000Y-99519000D01*
X126891000Y-101881000D02*
X126891000Y-105681000D01*
X126891000Y-95719000D02*
X126891000Y-99519000D01*
X126851000Y-101881000D02*
X126851000Y-105687000D01*
X126851000Y-95713000D02*
X126851000Y-99519000D01*
X126811000Y-101881000D02*
X126811000Y-105693000D01*
X126811000Y-95707000D02*
X126811000Y-99519000D01*
X126771000Y-101881000D02*
X126771000Y-105699000D01*
X126771000Y-95701000D02*
X126771000Y-99519000D01*
X126730000Y-101881000D02*
X126730000Y-105705000D01*
X126730000Y-95695000D02*
X126730000Y-99519000D01*
X126690000Y-101881000D02*
X126690000Y-105710000D01*
X126690000Y-95690000D02*
X126690000Y-99519000D01*
X126650000Y-101881000D02*
X126650000Y-105715000D01*
X126650000Y-95685000D02*
X126650000Y-99519000D01*
X126610000Y-95680000D02*
X126610000Y-105720000D01*
X126570000Y-95676000D02*
X126570000Y-105724000D01*
X126530000Y-95672000D02*
X126530000Y-105728000D01*
X126490000Y-95669000D02*
X126490000Y-105731000D01*
X126450000Y-95665000D02*
X126450000Y-105735000D01*
X126410000Y-95662000D02*
X126410000Y-105738000D01*
X126370000Y-95660000D02*
X126370000Y-105740000D01*
X126330000Y-95657000D02*
X126330000Y-105743000D01*
X126290000Y-95655000D02*
X126290000Y-105745000D01*
X126250000Y-95653000D02*
X126250000Y-105747000D01*
X126210000Y-95652000D02*
X126210000Y-105748000D01*
X126170000Y-95651000D02*
X126170000Y-105749000D01*
X126130000Y-95650000D02*
X126130000Y-105750000D01*
X126090000Y-95650000D02*
X126090000Y-105750000D01*
X126050000Y-95650000D02*
X126050000Y-105750000D01*
X131140000Y-100700000D02*
G75*
G03*
X131140000Y-100700000I-5090000J0D01*
G01*
%TO.C,C8*%
X126750000Y-120050000D02*
X128250000Y-120050000D01*
X127500000Y-120800000D02*
X127500000Y-119300000D01*
X127221000Y-111269000D02*
X127779000Y-111269000D01*
X126828000Y-111309000D02*
X128172000Y-111309000D01*
X126587000Y-111349000D02*
X128413000Y-111349000D01*
X126396000Y-111389000D02*
X128604000Y-111389000D01*
X126235000Y-111429000D02*
X128765000Y-111429000D01*
X126093000Y-111469000D02*
X128907000Y-111469000D01*
X125964000Y-111509000D02*
X129036000Y-111509000D01*
X125846000Y-111549000D02*
X129154000Y-111549000D01*
X125737000Y-111589000D02*
X129263000Y-111589000D01*
X125634000Y-111629000D02*
X129366000Y-111629000D01*
X125538000Y-111669000D02*
X129462000Y-111669000D01*
X125447000Y-111709000D02*
X129553000Y-111709000D01*
X125360000Y-111749000D02*
X129640000Y-111749000D01*
X125278000Y-111789000D02*
X129722000Y-111789000D01*
X125199000Y-111829000D02*
X129801000Y-111829000D01*
X125123000Y-111869000D02*
X129877000Y-111869000D01*
X125051000Y-111909000D02*
X129949000Y-111909000D01*
X124981000Y-111949000D02*
X130019000Y-111949000D01*
X124913000Y-111989000D02*
X130087000Y-111989000D01*
X124848000Y-112029000D02*
X130152000Y-112029000D01*
X124785000Y-112069000D02*
X130215000Y-112069000D01*
X124723000Y-112109000D02*
X130277000Y-112109000D01*
X124664000Y-112149000D02*
X130336000Y-112149000D01*
X124606000Y-112189000D02*
X130394000Y-112189000D01*
X124551000Y-112229000D02*
X130449000Y-112229000D01*
X124496000Y-112269000D02*
X130504000Y-112269000D01*
X124443000Y-112309000D02*
X130557000Y-112309000D01*
X124392000Y-112349000D02*
X130608000Y-112349000D01*
X124342000Y-112389000D02*
X130658000Y-112389000D01*
X124293000Y-112429000D02*
X130707000Y-112429000D01*
X124245000Y-112469000D02*
X130755000Y-112469000D01*
X124198000Y-112509000D02*
X130802000Y-112509000D01*
X124153000Y-112549000D02*
X130847000Y-112549000D01*
X124109000Y-112589000D02*
X130891000Y-112589000D01*
X124065000Y-112629000D02*
X130935000Y-112629000D01*
X124023000Y-112669000D02*
X130977000Y-112669000D01*
X123982000Y-112709000D02*
X131018000Y-112709000D01*
X123941000Y-112749000D02*
X131059000Y-112749000D01*
X123902000Y-112789000D02*
X131098000Y-112789000D01*
X123863000Y-112829000D02*
X131137000Y-112829000D01*
X123825000Y-112869000D02*
X131175000Y-112869000D01*
X123788000Y-112909000D02*
X131212000Y-112909000D01*
X123752000Y-112949000D02*
X131248000Y-112949000D01*
X123716000Y-112989000D02*
X131284000Y-112989000D01*
X123681000Y-113029000D02*
X131319000Y-113029000D01*
X123647000Y-113069000D02*
X131353000Y-113069000D01*
X123614000Y-113109000D02*
X131386000Y-113109000D01*
X123581000Y-113149000D02*
X131419000Y-113149000D01*
X123549000Y-113189000D02*
X131451000Y-113189000D01*
X123518000Y-113229000D02*
X131482000Y-113229000D01*
X123487000Y-113269000D02*
X131513000Y-113269000D01*
X123457000Y-113309000D02*
X131543000Y-113309000D01*
X123428000Y-113349000D02*
X131572000Y-113349000D01*
X123399000Y-113389000D02*
X131601000Y-113389000D01*
X128681000Y-113429000D02*
X131630000Y-113429000D01*
X123370000Y-113429000D02*
X126319000Y-113429000D01*
X128681000Y-113469000D02*
X131657000Y-113469000D01*
X123343000Y-113469000D02*
X126319000Y-113469000D01*
X128681000Y-113509000D02*
X131685000Y-113509000D01*
X123315000Y-113509000D02*
X126319000Y-113509000D01*
X128681000Y-113549000D02*
X131711000Y-113549000D01*
X123289000Y-113549000D02*
X126319000Y-113549000D01*
X128681000Y-113589000D02*
X131737000Y-113589000D01*
X123263000Y-113589000D02*
X126319000Y-113589000D01*
X128681000Y-113629000D02*
X131763000Y-113629000D01*
X123237000Y-113629000D02*
X126319000Y-113629000D01*
X128681000Y-113669000D02*
X131788000Y-113669000D01*
X123212000Y-113669000D02*
X126319000Y-113669000D01*
X128681000Y-113709000D02*
X131812000Y-113709000D01*
X123188000Y-113709000D02*
X126319000Y-113709000D01*
X128681000Y-113749000D02*
X131836000Y-113749000D01*
X123164000Y-113749000D02*
X126319000Y-113749000D01*
X128681000Y-113789000D02*
X131860000Y-113789000D01*
X123140000Y-113789000D02*
X126319000Y-113789000D01*
X128681000Y-113829000D02*
X131883000Y-113829000D01*
X123117000Y-113829000D02*
X126319000Y-113829000D01*
X128681000Y-113869000D02*
X131905000Y-113869000D01*
X123095000Y-113869000D02*
X126319000Y-113869000D01*
X128681000Y-113909000D02*
X131928000Y-113909000D01*
X123072000Y-113909000D02*
X126319000Y-113909000D01*
X128681000Y-113949000D02*
X131949000Y-113949000D01*
X123051000Y-113949000D02*
X126319000Y-113949000D01*
X128681000Y-113989000D02*
X131970000Y-113989000D01*
X123030000Y-113989000D02*
X126319000Y-113989000D01*
X128681000Y-114029000D02*
X131991000Y-114029000D01*
X123009000Y-114029000D02*
X126319000Y-114029000D01*
X128681000Y-114069000D02*
X132011000Y-114069000D01*
X122989000Y-114069000D02*
X126319000Y-114069000D01*
X128681000Y-114109000D02*
X132031000Y-114109000D01*
X122969000Y-114109000D02*
X126319000Y-114109000D01*
X128681000Y-114149000D02*
X132050000Y-114149000D01*
X122950000Y-114149000D02*
X126319000Y-114149000D01*
X128681000Y-114189000D02*
X132069000Y-114189000D01*
X122931000Y-114189000D02*
X126319000Y-114189000D01*
X128681000Y-114229000D02*
X132088000Y-114229000D01*
X122912000Y-114229000D02*
X126319000Y-114229000D01*
X128681000Y-114269000D02*
X132106000Y-114269000D01*
X122894000Y-114269000D02*
X126319000Y-114269000D01*
X128681000Y-114309000D02*
X132124000Y-114309000D01*
X122876000Y-114309000D02*
X126319000Y-114309000D01*
X128681000Y-114349000D02*
X132141000Y-114349000D01*
X122859000Y-114349000D02*
X126319000Y-114349000D01*
X128681000Y-114389000D02*
X132158000Y-114389000D01*
X122842000Y-114389000D02*
X126319000Y-114389000D01*
X128681000Y-114429000D02*
X132174000Y-114429000D01*
X122826000Y-114429000D02*
X126319000Y-114429000D01*
X128681000Y-114469000D02*
X132191000Y-114469000D01*
X122809000Y-114469000D02*
X126319000Y-114469000D01*
X128681000Y-114509000D02*
X132206000Y-114509000D01*
X122794000Y-114509000D02*
X126319000Y-114509000D01*
X128681000Y-114549000D02*
X132222000Y-114549000D01*
X122778000Y-114549000D02*
X126319000Y-114549000D01*
X128681000Y-114589000D02*
X132237000Y-114589000D01*
X122763000Y-114589000D02*
X126319000Y-114589000D01*
X128681000Y-114629000D02*
X132251000Y-114629000D01*
X122749000Y-114629000D02*
X126319000Y-114629000D01*
X128681000Y-114669000D02*
X132265000Y-114669000D01*
X122735000Y-114669000D02*
X126319000Y-114669000D01*
X128681000Y-114709000D02*
X132279000Y-114709000D01*
X122721000Y-114709000D02*
X126319000Y-114709000D01*
X128681000Y-114749000D02*
X132292000Y-114749000D01*
X122708000Y-114749000D02*
X126319000Y-114749000D01*
X128681000Y-114789000D02*
X132306000Y-114789000D01*
X122694000Y-114789000D02*
X126319000Y-114789000D01*
X128681000Y-114829000D02*
X132318000Y-114829000D01*
X122682000Y-114829000D02*
X126319000Y-114829000D01*
X128681000Y-114869000D02*
X132331000Y-114869000D01*
X122669000Y-114869000D02*
X126319000Y-114869000D01*
X128681000Y-114909000D02*
X132343000Y-114909000D01*
X122657000Y-114909000D02*
X126319000Y-114909000D01*
X128681000Y-114949000D02*
X132354000Y-114949000D01*
X122646000Y-114949000D02*
X126319000Y-114949000D01*
X128681000Y-114989000D02*
X132365000Y-114989000D01*
X122635000Y-114989000D02*
X126319000Y-114989000D01*
X128681000Y-115029000D02*
X132376000Y-115029000D01*
X122624000Y-115029000D02*
X126319000Y-115029000D01*
X128681000Y-115069000D02*
X132387000Y-115069000D01*
X122613000Y-115069000D02*
X126319000Y-115069000D01*
X128681000Y-115109000D02*
X132397000Y-115109000D01*
X122603000Y-115109000D02*
X126319000Y-115109000D01*
X128681000Y-115149000D02*
X132407000Y-115149000D01*
X122593000Y-115149000D02*
X126319000Y-115149000D01*
X128681000Y-115189000D02*
X132417000Y-115189000D01*
X122583000Y-115189000D02*
X126319000Y-115189000D01*
X128681000Y-115229000D02*
X132426000Y-115229000D01*
X122574000Y-115229000D02*
X126319000Y-115229000D01*
X128681000Y-115269000D02*
X132435000Y-115269000D01*
X122565000Y-115269000D02*
X126319000Y-115269000D01*
X128681000Y-115309000D02*
X132443000Y-115309000D01*
X122557000Y-115309000D02*
X126319000Y-115309000D01*
X128681000Y-115349000D02*
X132451000Y-115349000D01*
X122549000Y-115349000D02*
X126319000Y-115349000D01*
X128681000Y-115389000D02*
X132459000Y-115389000D01*
X122541000Y-115389000D02*
X126319000Y-115389000D01*
X128681000Y-115429000D02*
X132467000Y-115429000D01*
X122533000Y-115429000D02*
X126319000Y-115429000D01*
X128681000Y-115469000D02*
X132474000Y-115469000D01*
X122526000Y-115469000D02*
X126319000Y-115469000D01*
X128681000Y-115509000D02*
X132481000Y-115509000D01*
X122519000Y-115509000D02*
X126319000Y-115509000D01*
X128681000Y-115549000D02*
X132487000Y-115549000D01*
X122513000Y-115549000D02*
X126319000Y-115549000D01*
X128681000Y-115589000D02*
X132493000Y-115589000D01*
X122507000Y-115589000D02*
X126319000Y-115589000D01*
X128681000Y-115629000D02*
X132499000Y-115629000D01*
X122501000Y-115629000D02*
X126319000Y-115629000D01*
X128681000Y-115670000D02*
X132505000Y-115670000D01*
X122495000Y-115670000D02*
X126319000Y-115670000D01*
X128681000Y-115710000D02*
X132510000Y-115710000D01*
X122490000Y-115710000D02*
X126319000Y-115710000D01*
X128681000Y-115750000D02*
X132515000Y-115750000D01*
X122485000Y-115750000D02*
X126319000Y-115750000D01*
X122480000Y-115790000D02*
X132520000Y-115790000D01*
X122476000Y-115830000D02*
X132524000Y-115830000D01*
X122472000Y-115870000D02*
X132528000Y-115870000D01*
X122469000Y-115910000D02*
X132531000Y-115910000D01*
X122465000Y-115950000D02*
X132535000Y-115950000D01*
X122462000Y-115990000D02*
X132538000Y-115990000D01*
X122460000Y-116030000D02*
X132540000Y-116030000D01*
X122457000Y-116070000D02*
X132543000Y-116070000D01*
X122455000Y-116110000D02*
X132545000Y-116110000D01*
X122453000Y-116150000D02*
X132547000Y-116150000D01*
X122452000Y-116190000D02*
X132548000Y-116190000D01*
X122451000Y-116230000D02*
X132549000Y-116230000D01*
X122450000Y-116270000D02*
X132550000Y-116270000D01*
X122450000Y-116310000D02*
X132550000Y-116310000D01*
X122450000Y-116350000D02*
X132550000Y-116350000D01*
X132590000Y-116350000D02*
G75*
G03*
X132590000Y-116350000I-5090000J0D01*
G01*
%TO.C,J5*%
X121960000Y-70410000D02*
X132120000Y-70410000D01*
X121960000Y-62790000D02*
X121960000Y-70410000D01*
X132120000Y-62790000D02*
X121960000Y-62790000D01*
X132120000Y-70410000D02*
X132120000Y-62790000D01*
X132120000Y-69140000D02*
X121960000Y-69140000D01*
%TO.C,U2*%
X125009000Y-92020000D02*
X125009000Y-90510000D01*
X128710000Y-92020000D02*
X128710000Y-90510000D01*
X131980000Y-90510000D02*
X121740000Y-90510000D01*
X121740000Y-92020000D02*
X121740000Y-87379000D01*
X131980000Y-92020000D02*
X131980000Y-87379000D01*
X131980000Y-87379000D02*
X121740000Y-87379000D01*
X131980000Y-92020000D02*
X121740000Y-92020000D01*
%TO.C,J1*%
X155230000Y-71170000D02*
X155230000Y-72500000D01*
X153900000Y-71170000D02*
X155230000Y-71170000D01*
X152630000Y-71170000D02*
X152630000Y-73830000D01*
X152630000Y-73830000D02*
X147490000Y-73830000D01*
X152630000Y-71170000D02*
X147490000Y-71170000D01*
X147490000Y-71170000D02*
X147490000Y-73830000D01*
%TO.C,J2*%
X155230000Y-67170000D02*
X155230000Y-68500000D01*
X153900000Y-67170000D02*
X155230000Y-67170000D01*
X152630000Y-67170000D02*
X152630000Y-69830000D01*
X152630000Y-69830000D02*
X147490000Y-69830000D01*
X152630000Y-67170000D02*
X147490000Y-67170000D01*
X147490000Y-67170000D02*
X147490000Y-69830000D01*
%TO.C,J3*%
X155230000Y-63170000D02*
X155230000Y-64500000D01*
X153900000Y-63170000D02*
X155230000Y-63170000D01*
X152630000Y-63170000D02*
X152630000Y-65830000D01*
X152630000Y-65830000D02*
X147490000Y-65830000D01*
X152630000Y-63170000D02*
X147490000Y-63170000D01*
X147490000Y-63170000D02*
X147490000Y-65830000D01*
%TO.C,J4*%
X134730000Y-125470000D02*
X134730000Y-126800000D01*
X133400000Y-125470000D02*
X134730000Y-125470000D01*
X132130000Y-125470000D02*
X132130000Y-128130000D01*
X132130000Y-128130000D02*
X129530000Y-128130000D01*
X132130000Y-125470000D02*
X129530000Y-125470000D01*
X129530000Y-125470000D02*
X129530000Y-128130000D01*
%TO.C,J6*%
X144430000Y-63170000D02*
X144430000Y-64500000D01*
X143100000Y-63170000D02*
X144430000Y-63170000D01*
X141830000Y-63170000D02*
X141830000Y-65830000D01*
X141830000Y-65830000D02*
X134150000Y-65830000D01*
X141830000Y-63170000D02*
X134150000Y-63170000D01*
X134150000Y-63170000D02*
X134150000Y-65830000D01*
D13*
%TO.C,U1*%
X165530000Y-84900000D02*
X141400000Y-84900000D01*
X166056051Y-87440000D02*
G75*
G03*
X166056051Y-87440000I-1796051J0D01*
G01*
X145101051Y-87440000D02*
G75*
G03*
X145101051Y-87440000I-1796051J0D01*
G01*
X145101051Y-130620000D02*
G75*
G03*
X145101051Y-130620000I-1796051J0D01*
G01*
X166056051Y-130620000D02*
G75*
G03*
X166056051Y-130620000I-1796051J0D01*
G01*
X150290000Y-133160000D02*
X142035000Y-133160000D01*
X140765000Y-86170000D02*
X140765000Y-131890000D01*
X166800000Y-86170000D02*
X166800000Y-131890000D01*
X157900000Y-134160000D02*
X150300000Y-134160000D01*
X157900000Y-128430000D02*
X157900000Y-134160000D01*
X150300000Y-128430000D02*
X157900000Y-128430000D01*
X150300000Y-134160000D02*
X150300000Y-128430000D01*
X148600000Y-92030000D02*
X148600000Y-84900000D01*
X159600000Y-84900000D02*
X159600000Y-92030000D01*
X159600000Y-92030000D02*
X148600000Y-92030000D01*
X165530000Y-133160000D02*
X157910000Y-133160000D01*
X142035000Y-84900000D02*
G75*
G03*
X140765000Y-86170000I0J-1270000D01*
G01*
X166800000Y-86170000D02*
G75*
G03*
X165530000Y-84900000I-1270000J0D01*
G01*
X165530000Y-133160000D02*
G75*
G03*
X166800000Y-131890000I0J1270000D01*
G01*
X140765000Y-131890000D02*
G75*
G03*
X142035000Y-133160000I1270000J0D01*
G01*
%TD*%
D14*
%TO.C,U1*%
X142747000Y-91250000D02*
G75*
G03*
X142747000Y-91250000I-712000J0D01*
G01*
X142747000Y-93790000D02*
G75*
G03*
X142747000Y-93790000I-712000J0D01*
G01*
X142747000Y-96330000D02*
G75*
G03*
X142747000Y-96330000I-712000J0D01*
G01*
X142747000Y-98870000D02*
G75*
G03*
X142747000Y-98870000I-712000J0D01*
G01*
X142747000Y-101410000D02*
G75*
G03*
X142747000Y-101410000I-712000J0D01*
G01*
X142747000Y-103950000D02*
G75*
G03*
X142747000Y-103950000I-712000J0D01*
G01*
X142747000Y-106490000D02*
G75*
G03*
X142747000Y-106490000I-712000J0D01*
G01*
X142747000Y-109030000D02*
G75*
G03*
X142747000Y-109030000I-712000J0D01*
G01*
X142747000Y-111570000D02*
G75*
G03*
X142747000Y-111570000I-712000J0D01*
G01*
X142747000Y-114110000D02*
G75*
G03*
X142747000Y-114110000I-712000J0D01*
G01*
X142747000Y-116650000D02*
G75*
G03*
X142747000Y-116650000I-712000J0D01*
G01*
X142747000Y-119190000D02*
G75*
G03*
X142747000Y-119190000I-712000J0D01*
G01*
X142747000Y-121730000D02*
G75*
G03*
X142747000Y-121730000I-712000J0D01*
G01*
X142747000Y-124270000D02*
G75*
G03*
X142747000Y-124270000I-712000J0D01*
G01*
X142747000Y-126810000D02*
G75*
G03*
X142747000Y-126810000I-712000J0D01*
G01*
X166242000Y-126810000D02*
G75*
G03*
X166242000Y-126810000I-712000J0D01*
G01*
X166242000Y-124270000D02*
G75*
G03*
X166242000Y-124270000I-712000J0D01*
G01*
X166242000Y-121730000D02*
G75*
G03*
X166242000Y-121730000I-712000J0D01*
G01*
X166242000Y-119190000D02*
G75*
G03*
X166242000Y-119190000I-712000J0D01*
G01*
X166242000Y-116650000D02*
G75*
G03*
X166242000Y-116650000I-712000J0D01*
G01*
X166242000Y-114110000D02*
G75*
G03*
X166242000Y-114110000I-712000J0D01*
G01*
X166242000Y-111570000D02*
G75*
G03*
X166242000Y-111570000I-712000J0D01*
G01*
X166242000Y-109030000D02*
G75*
G03*
X166242000Y-109030000I-712000J0D01*
G01*
X166242000Y-106490000D02*
G75*
G03*
X166242000Y-106490000I-712000J0D01*
G01*
X166242000Y-103950000D02*
G75*
G03*
X166242000Y-103950000I-712000J0D01*
G01*
X166242000Y-101410000D02*
G75*
G03*
X166242000Y-101410000I-712000J0D01*
G01*
X166242000Y-98870000D02*
G75*
G03*
X166242000Y-98870000I-712000J0D01*
G01*
X166242000Y-96330000D02*
G75*
G03*
X166242000Y-96330000I-712000J0D01*
G01*
X166242000Y-93790000D02*
G75*
G03*
X166242000Y-93790000I-712000J0D01*
G01*
X166242000Y-91250000D02*
G75*
G03*
X166242000Y-91250000I-712000J0D01*
G01*
%TD*%
%TO.C,C6*%
D13*
X134833333Y-78357142D02*
X134785714Y-78404761D01*
X134642857Y-78452380D01*
X134547619Y-78452380D01*
X134404761Y-78404761D01*
X134309523Y-78309523D01*
X134261904Y-78214285D01*
X134214285Y-78023809D01*
X134214285Y-77880952D01*
X134261904Y-77690476D01*
X134309523Y-77595238D01*
X134404761Y-77500000D01*
X134547619Y-77452380D01*
X134642857Y-77452380D01*
X134785714Y-77500000D01*
X134833333Y-77547619D01*
X135690476Y-77452380D02*
X135500000Y-77452380D01*
X135404761Y-77500000D01*
X135357142Y-77547619D01*
X135261904Y-77690476D01*
X135214285Y-77880952D01*
X135214285Y-78261904D01*
X135261904Y-78357142D01*
X135309523Y-78404761D01*
X135404761Y-78452380D01*
X135595238Y-78452380D01*
X135690476Y-78404761D01*
X135738095Y-78357142D01*
X135785714Y-78261904D01*
X135785714Y-78023809D01*
X135738095Y-77928571D01*
X135690476Y-77880952D01*
X135595238Y-77833333D01*
X135404761Y-77833333D01*
X135309523Y-77880952D01*
X135261904Y-77928571D01*
X135214285Y-78023809D01*
%TO.C,C7*%
X132833333Y-101357142D02*
X132785714Y-101404761D01*
X132642857Y-101452380D01*
X132547619Y-101452380D01*
X132404761Y-101404761D01*
X132309523Y-101309523D01*
X132261904Y-101214285D01*
X132214285Y-101023809D01*
X132214285Y-100880952D01*
X132261904Y-100690476D01*
X132309523Y-100595238D01*
X132404761Y-100500000D01*
X132547619Y-100452380D01*
X132642857Y-100452380D01*
X132785714Y-100500000D01*
X132833333Y-100547619D01*
X133166666Y-100452380D02*
X133833333Y-100452380D01*
X133404761Y-101452380D01*
%TO.C,C8*%
X121547142Y-116516666D02*
X121594761Y-116564285D01*
X121642380Y-116707142D01*
X121642380Y-116802380D01*
X121594761Y-116945238D01*
X121499523Y-117040476D01*
X121404285Y-117088095D01*
X121213809Y-117135714D01*
X121070952Y-117135714D01*
X120880476Y-117088095D01*
X120785238Y-117040476D01*
X120690000Y-116945238D01*
X120642380Y-116802380D01*
X120642380Y-116707142D01*
X120690000Y-116564285D01*
X120737619Y-116516666D01*
X121070952Y-115945238D02*
X121023333Y-116040476D01*
X120975714Y-116088095D01*
X120880476Y-116135714D01*
X120832857Y-116135714D01*
X120737619Y-116088095D01*
X120690000Y-116040476D01*
X120642380Y-115945238D01*
X120642380Y-115754761D01*
X120690000Y-115659523D01*
X120737619Y-115611904D01*
X120832857Y-115564285D01*
X120880476Y-115564285D01*
X120975714Y-115611904D01*
X121023333Y-115659523D01*
X121070952Y-115754761D01*
X121070952Y-115945238D01*
X121118571Y-116040476D01*
X121166190Y-116088095D01*
X121261428Y-116135714D01*
X121451904Y-116135714D01*
X121547142Y-116088095D01*
X121594761Y-116040476D01*
X121642380Y-115945238D01*
X121642380Y-115754761D01*
X121594761Y-115659523D01*
X121547142Y-115611904D01*
X121451904Y-115564285D01*
X121261428Y-115564285D01*
X121166190Y-115611904D01*
X121118571Y-115659523D01*
X121070952Y-115754761D01*
%TO.C,J5*%
X126706666Y-60972380D02*
X126706666Y-61686666D01*
X126659047Y-61829523D01*
X126563809Y-61924761D01*
X126420952Y-61972380D01*
X126325714Y-61972380D01*
X127659047Y-60972380D02*
X127182857Y-60972380D01*
X127135238Y-61448571D01*
X127182857Y-61400952D01*
X127278095Y-61353333D01*
X127516190Y-61353333D01*
X127611428Y-61400952D01*
X127659047Y-61448571D01*
X127706666Y-61543809D01*
X127706666Y-61781904D01*
X127659047Y-61877142D01*
X127611428Y-61924761D01*
X127516190Y-61972380D01*
X127278095Y-61972380D01*
X127182857Y-61924761D01*
X127135238Y-61877142D01*
%TO.C,U2*%
X133238095Y-89452380D02*
X133238095Y-90261904D01*
X133285714Y-90357142D01*
X133333333Y-90404761D01*
X133428571Y-90452380D01*
X133619047Y-90452380D01*
X133714285Y-90404761D01*
X133761904Y-90357142D01*
X133809523Y-90261904D01*
X133809523Y-89452380D01*
X134238095Y-89547619D02*
X134285714Y-89500000D01*
X134380952Y-89452380D01*
X134619047Y-89452380D01*
X134714285Y-89500000D01*
X134761904Y-89547619D01*
X134809523Y-89642857D01*
X134809523Y-89738095D01*
X134761904Y-89880952D01*
X134190476Y-90452380D01*
X134809523Y-90452380D01*
%TO.C,J1*%
X155896666Y-71952380D02*
X155896666Y-72666666D01*
X155849047Y-72809523D01*
X155753809Y-72904761D01*
X155610952Y-72952380D01*
X155515714Y-72952380D01*
X156896666Y-72952380D02*
X156325238Y-72952380D01*
X156610952Y-72952380D02*
X156610952Y-71952380D01*
X156515714Y-72095238D01*
X156420476Y-72190476D01*
X156325238Y-72238095D01*
%TO.C,J2*%
X155896666Y-67952380D02*
X155896666Y-68666666D01*
X155849047Y-68809523D01*
X155753809Y-68904761D01*
X155610952Y-68952380D01*
X155515714Y-68952380D01*
X156325238Y-68047619D02*
X156372857Y-68000000D01*
X156468095Y-67952380D01*
X156706190Y-67952380D01*
X156801428Y-68000000D01*
X156849047Y-68047619D01*
X156896666Y-68142857D01*
X156896666Y-68238095D01*
X156849047Y-68380952D01*
X156277619Y-68952380D01*
X156896666Y-68952380D01*
%TO.C,J3*%
X155896666Y-63952380D02*
X155896666Y-64666666D01*
X155849047Y-64809523D01*
X155753809Y-64904761D01*
X155610952Y-64952380D01*
X155515714Y-64952380D01*
X156277619Y-63952380D02*
X156896666Y-63952380D01*
X156563333Y-64333333D01*
X156706190Y-64333333D01*
X156801428Y-64380952D01*
X156849047Y-64428571D01*
X156896666Y-64523809D01*
X156896666Y-64761904D01*
X156849047Y-64857142D01*
X156801428Y-64904761D01*
X156706190Y-64952380D01*
X156420476Y-64952380D01*
X156325238Y-64904761D01*
X156277619Y-64857142D01*
%TO.C,J4*%
X135396666Y-126252380D02*
X135396666Y-126966666D01*
X135349047Y-127109523D01*
X135253809Y-127204761D01*
X135110952Y-127252380D01*
X135015714Y-127252380D01*
X136301428Y-126585714D02*
X136301428Y-127252380D01*
X136063333Y-126204761D02*
X135825238Y-126919047D01*
X136444285Y-126919047D01*
%TO.C,J6*%
X142666666Y-66452380D02*
X142666666Y-67166666D01*
X142619047Y-67309523D01*
X142523809Y-67404761D01*
X142380952Y-67452380D01*
X142285714Y-67452380D01*
X143571428Y-66452380D02*
X143380952Y-66452380D01*
X143285714Y-66500000D01*
X143238095Y-66547619D01*
X143142857Y-66690476D01*
X143095238Y-66880952D01*
X143095238Y-67261904D01*
X143142857Y-67357142D01*
X143190476Y-67404761D01*
X143285714Y-67452380D01*
X143476190Y-67452380D01*
X143571428Y-67404761D01*
X143619047Y-67357142D01*
X143666666Y-67261904D01*
X143666666Y-67023809D01*
X143619047Y-66928571D01*
X143571428Y-66880952D01*
X143476190Y-66833333D01*
X143285714Y-66833333D01*
X143190476Y-66880952D01*
X143142857Y-66928571D01*
X143095238Y-67023809D01*
%TO.C,U1*%
X152838095Y-131342380D02*
X152838095Y-132151904D01*
X152885714Y-132247142D01*
X152933333Y-132294761D01*
X153028571Y-132342380D01*
X153219047Y-132342380D01*
X153314285Y-132294761D01*
X153361904Y-132247142D01*
X153409523Y-132151904D01*
X153409523Y-131342380D01*
X153838095Y-132294761D02*
X153980952Y-132342380D01*
X154219047Y-132342380D01*
X154314285Y-132294761D01*
X154361904Y-132247142D01*
X154409523Y-132151904D01*
X154409523Y-132056666D01*
X154361904Y-131961428D01*
X154314285Y-131913809D01*
X154219047Y-131866190D01*
X154028571Y-131818571D01*
X153933333Y-131770952D01*
X153885714Y-131723333D01*
X153838095Y-131628095D01*
X153838095Y-131532857D01*
X153885714Y-131437619D01*
X153933333Y-131390000D01*
X154028571Y-131342380D01*
X154266666Y-131342380D01*
X154409523Y-131390000D01*
X155171428Y-131818571D02*
X155314285Y-131866190D01*
X155361904Y-131913809D01*
X155409523Y-132009047D01*
X155409523Y-132151904D01*
X155361904Y-132247142D01*
X155314285Y-132294761D01*
X155219047Y-132342380D01*
X154838095Y-132342380D01*
X154838095Y-131342380D01*
X155171428Y-131342380D01*
X155266666Y-131390000D01*
X155314285Y-131437619D01*
X155361904Y-131532857D01*
X155361904Y-131628095D01*
X155314285Y-131723333D01*
X155266666Y-131770952D01*
X155171428Y-131818571D01*
X154838095Y-131818571D01*
X150647619Y-89162380D02*
X150314285Y-88686190D01*
X150076190Y-89162380D02*
X150076190Y-88162380D01*
X150457142Y-88162380D01*
X150552380Y-88210000D01*
X150600000Y-88257619D01*
X150647619Y-88352857D01*
X150647619Y-88495714D01*
X150600000Y-88590952D01*
X150552380Y-88638571D01*
X150457142Y-88686190D01*
X150076190Y-88686190D01*
X151409523Y-88638571D02*
X151076190Y-88638571D01*
X151076190Y-89162380D02*
X151076190Y-88162380D01*
X151552380Y-88162380D01*
X152647619Y-88876666D02*
X153123809Y-88876666D01*
X152552380Y-89162380D02*
X152885714Y-88162380D01*
X153219047Y-89162380D01*
X153552380Y-88495714D02*
X153552380Y-89162380D01*
X153552380Y-88590952D02*
X153600000Y-88543333D01*
X153695238Y-88495714D01*
X153838095Y-88495714D01*
X153933333Y-88543333D01*
X153980952Y-88638571D01*
X153980952Y-89162380D01*
X154314285Y-88495714D02*
X154695238Y-88495714D01*
X154457142Y-88162380D02*
X154457142Y-89019523D01*
X154504761Y-89114761D01*
X154600000Y-89162380D01*
X154695238Y-89162380D01*
X155409523Y-89114761D02*
X155314285Y-89162380D01*
X155123809Y-89162380D01*
X155028571Y-89114761D01*
X154980952Y-89019523D01*
X154980952Y-88638571D01*
X155028571Y-88543333D01*
X155123809Y-88495714D01*
X155314285Y-88495714D01*
X155409523Y-88543333D01*
X155457142Y-88638571D01*
X155457142Y-88733809D01*
X154980952Y-88829047D01*
X155885714Y-88495714D02*
X155885714Y-89162380D01*
X155885714Y-88590952D02*
X155933333Y-88543333D01*
X156028571Y-88495714D01*
X156171428Y-88495714D01*
X156266666Y-88543333D01*
X156314285Y-88638571D01*
X156314285Y-89162380D01*
X156790476Y-88495714D02*
X156790476Y-89162380D01*
X156790476Y-88590952D02*
X156838095Y-88543333D01*
X156933333Y-88495714D01*
X157076190Y-88495714D01*
X157171428Y-88543333D01*
X157219047Y-88638571D01*
X157219047Y-89162380D01*
X158123809Y-89162380D02*
X158123809Y-88638571D01*
X158076190Y-88543333D01*
X157980952Y-88495714D01*
X157790476Y-88495714D01*
X157695238Y-88543333D01*
X158123809Y-89114761D02*
X158028571Y-89162380D01*
X157790476Y-89162380D01*
X157695238Y-89114761D01*
X157647619Y-89019523D01*
X157647619Y-88924285D01*
X157695238Y-88829047D01*
X157790476Y-88781428D01*
X158028571Y-88781428D01*
X158123809Y-88733809D01*
X143479761Y-126262380D02*
X143813095Y-127262380D01*
X144146428Y-126262380D01*
X144479761Y-127262380D02*
X144479761Y-126262380D01*
X144955952Y-127262380D02*
X144955952Y-126262380D01*
X145527380Y-127262380D01*
X145527380Y-126262380D01*
X144836904Y-123770000D02*
X144741666Y-123722380D01*
X144598809Y-123722380D01*
X144455952Y-123770000D01*
X144360714Y-123865238D01*
X144313095Y-123960476D01*
X144265476Y-124150952D01*
X144265476Y-124293809D01*
X144313095Y-124484285D01*
X144360714Y-124579523D01*
X144455952Y-124674761D01*
X144598809Y-124722380D01*
X144694047Y-124722380D01*
X144836904Y-124674761D01*
X144884523Y-124627142D01*
X144884523Y-124293809D01*
X144694047Y-124293809D01*
X144027380Y-122182380D02*
X143694047Y-121706190D01*
X143455952Y-122182380D02*
X143455952Y-121182380D01*
X143836904Y-121182380D01*
X143932142Y-121230000D01*
X143979761Y-121277619D01*
X144027380Y-121372857D01*
X144027380Y-121515714D01*
X143979761Y-121610952D01*
X143932142Y-121658571D01*
X143836904Y-121706190D01*
X143455952Y-121706190D01*
X144408333Y-122134761D02*
X144551190Y-122182380D01*
X144789285Y-122182380D01*
X144884523Y-122134761D01*
X144932142Y-122087142D01*
X144979761Y-121991904D01*
X144979761Y-121896666D01*
X144932142Y-121801428D01*
X144884523Y-121753809D01*
X144789285Y-121706190D01*
X144598809Y-121658571D01*
X144503571Y-121610952D01*
X144455952Y-121563333D01*
X144408333Y-121468095D01*
X144408333Y-121372857D01*
X144455952Y-121277619D01*
X144503571Y-121230000D01*
X144598809Y-121182380D01*
X144836904Y-121182380D01*
X144979761Y-121230000D01*
X145265476Y-121182380D02*
X145836904Y-121182380D01*
X145551190Y-122182380D02*
X145551190Y-121182380D01*
X143836904Y-119118571D02*
X144170238Y-119118571D01*
X144313095Y-119642380D02*
X143836904Y-119642380D01*
X143836904Y-118642380D01*
X144313095Y-118642380D01*
X144741666Y-119642380D02*
X144741666Y-118642380D01*
X145313095Y-119642380D01*
X145313095Y-118642380D01*
X143813095Y-116102380D02*
X144432142Y-116102380D01*
X144098809Y-116483333D01*
X144241666Y-116483333D01*
X144336904Y-116530952D01*
X144384523Y-116578571D01*
X144432142Y-116673809D01*
X144432142Y-116911904D01*
X144384523Y-117007142D01*
X144336904Y-117054761D01*
X144241666Y-117102380D01*
X143955952Y-117102380D01*
X143860714Y-117054761D01*
X143813095Y-117007142D01*
X144717857Y-116102380D02*
X145051190Y-117102380D01*
X145384523Y-116102380D01*
X144836904Y-113610000D02*
X144741666Y-113562380D01*
X144598809Y-113562380D01*
X144455952Y-113610000D01*
X144360714Y-113705238D01*
X144313095Y-113800476D01*
X144265476Y-113990952D01*
X144265476Y-114133809D01*
X144313095Y-114324285D01*
X144360714Y-114419523D01*
X144455952Y-114514761D01*
X144598809Y-114562380D01*
X144694047Y-114562380D01*
X144836904Y-114514761D01*
X144884523Y-114467142D01*
X144884523Y-114133809D01*
X144694047Y-114133809D01*
X143789285Y-111974761D02*
X143932142Y-112022380D01*
X144170238Y-112022380D01*
X144265476Y-111974761D01*
X144313095Y-111927142D01*
X144360714Y-111831904D01*
X144360714Y-111736666D01*
X144313095Y-111641428D01*
X144265476Y-111593809D01*
X144170238Y-111546190D01*
X143979761Y-111498571D01*
X143884523Y-111450952D01*
X143836904Y-111403333D01*
X143789285Y-111308095D01*
X143789285Y-111212857D01*
X143836904Y-111117619D01*
X143884523Y-111070000D01*
X143979761Y-111022380D01*
X144217857Y-111022380D01*
X144360714Y-111070000D01*
X144789285Y-112022380D02*
X144789285Y-111022380D01*
X145360714Y-112022380D02*
X144932142Y-111450952D01*
X145360714Y-111022380D02*
X144789285Y-111593809D01*
X143765476Y-109434761D02*
X143908333Y-109482380D01*
X144146428Y-109482380D01*
X144241666Y-109434761D01*
X144289285Y-109387142D01*
X144336904Y-109291904D01*
X144336904Y-109196666D01*
X144289285Y-109101428D01*
X144241666Y-109053809D01*
X144146428Y-109006190D01*
X143955952Y-108958571D01*
X143860714Y-108910952D01*
X143813095Y-108863333D01*
X143765476Y-108768095D01*
X143765476Y-108672857D01*
X143813095Y-108577619D01*
X143860714Y-108530000D01*
X143955952Y-108482380D01*
X144194047Y-108482380D01*
X144336904Y-108530000D01*
X144955952Y-108482380D02*
X145146428Y-108482380D01*
X145241666Y-108530000D01*
X145336904Y-108625238D01*
X145384523Y-108815714D01*
X145384523Y-109149047D01*
X145336904Y-109339523D01*
X145241666Y-109434761D01*
X145146428Y-109482380D01*
X144955952Y-109482380D01*
X144860714Y-109434761D01*
X144765476Y-109339523D01*
X144717857Y-109149047D01*
X144717857Y-108815714D01*
X144765476Y-108625238D01*
X144860714Y-108530000D01*
X144955952Y-108482380D01*
X143789285Y-106894761D02*
X143932142Y-106942380D01*
X144170238Y-106942380D01*
X144265476Y-106894761D01*
X144313095Y-106847142D01*
X144360714Y-106751904D01*
X144360714Y-106656666D01*
X144313095Y-106561428D01*
X144265476Y-106513809D01*
X144170238Y-106466190D01*
X143979761Y-106418571D01*
X143884523Y-106370952D01*
X143836904Y-106323333D01*
X143789285Y-106228095D01*
X143789285Y-106132857D01*
X143836904Y-106037619D01*
X143884523Y-105990000D01*
X143979761Y-105942380D01*
X144217857Y-105942380D01*
X144360714Y-105990000D01*
X145360714Y-106847142D02*
X145313095Y-106894761D01*
X145170238Y-106942380D01*
X145075000Y-106942380D01*
X144932142Y-106894761D01*
X144836904Y-106799523D01*
X144789285Y-106704285D01*
X144741666Y-106513809D01*
X144741666Y-106370952D01*
X144789285Y-106180476D01*
X144836904Y-106085238D01*
X144932142Y-105990000D01*
X145075000Y-105942380D01*
X145170238Y-105942380D01*
X145313095Y-105990000D01*
X145360714Y-106037619D01*
X143813095Y-104354761D02*
X143955952Y-104402380D01*
X144194047Y-104402380D01*
X144289285Y-104354761D01*
X144336904Y-104307142D01*
X144384523Y-104211904D01*
X144384523Y-104116666D01*
X144336904Y-104021428D01*
X144289285Y-103973809D01*
X144194047Y-103926190D01*
X144003571Y-103878571D01*
X143908333Y-103830952D01*
X143860714Y-103783333D01*
X143813095Y-103688095D01*
X143813095Y-103592857D01*
X143860714Y-103497619D01*
X143908333Y-103450000D01*
X144003571Y-103402380D01*
X144241666Y-103402380D01*
X144384523Y-103450000D01*
X145336904Y-104402380D02*
X144765476Y-104402380D01*
X145051190Y-104402380D02*
X145051190Y-103402380D01*
X144955952Y-103545238D01*
X144860714Y-103640476D01*
X144765476Y-103688095D01*
X143813095Y-101814761D02*
X143955952Y-101862380D01*
X144194047Y-101862380D01*
X144289285Y-101814761D01*
X144336904Y-101767142D01*
X144384523Y-101671904D01*
X144384523Y-101576666D01*
X144336904Y-101481428D01*
X144289285Y-101433809D01*
X144194047Y-101386190D01*
X144003571Y-101338571D01*
X143908333Y-101290952D01*
X143860714Y-101243333D01*
X143813095Y-101148095D01*
X143813095Y-101052857D01*
X143860714Y-100957619D01*
X143908333Y-100910000D01*
X144003571Y-100862380D01*
X144241666Y-100862380D01*
X144384523Y-100910000D01*
X144765476Y-100957619D02*
X144813095Y-100910000D01*
X144908333Y-100862380D01*
X145146428Y-100862380D01*
X145241666Y-100910000D01*
X145289285Y-100957619D01*
X145336904Y-101052857D01*
X145336904Y-101148095D01*
X145289285Y-101290952D01*
X144717857Y-101862380D01*
X145336904Y-101862380D01*
X143813095Y-99274761D02*
X143955952Y-99322380D01*
X144194047Y-99322380D01*
X144289285Y-99274761D01*
X144336904Y-99227142D01*
X144384523Y-99131904D01*
X144384523Y-99036666D01*
X144336904Y-98941428D01*
X144289285Y-98893809D01*
X144194047Y-98846190D01*
X144003571Y-98798571D01*
X143908333Y-98750952D01*
X143860714Y-98703333D01*
X143813095Y-98608095D01*
X143813095Y-98512857D01*
X143860714Y-98417619D01*
X143908333Y-98370000D01*
X144003571Y-98322380D01*
X144241666Y-98322380D01*
X144384523Y-98370000D01*
X144717857Y-98322380D02*
X145336904Y-98322380D01*
X145003571Y-98703333D01*
X145146428Y-98703333D01*
X145241666Y-98750952D01*
X145289285Y-98798571D01*
X145336904Y-98893809D01*
X145336904Y-99131904D01*
X145289285Y-99227142D01*
X145241666Y-99274761D01*
X145146428Y-99322380D01*
X144860714Y-99322380D01*
X144765476Y-99274761D01*
X144717857Y-99227142D01*
X143717857Y-95782380D02*
X144051190Y-96782380D01*
X144384523Y-95782380D01*
X144717857Y-95782380D02*
X144717857Y-96591904D01*
X144765476Y-96687142D01*
X144813095Y-96734761D01*
X144908333Y-96782380D01*
X145098809Y-96782380D01*
X145194047Y-96734761D01*
X145241666Y-96687142D01*
X145289285Y-96591904D01*
X145289285Y-95782380D01*
X144836904Y-93290000D02*
X144741666Y-93242380D01*
X144598809Y-93242380D01*
X144455952Y-93290000D01*
X144360714Y-93385238D01*
X144313095Y-93480476D01*
X144265476Y-93670952D01*
X144265476Y-93813809D01*
X144313095Y-94004285D01*
X144360714Y-94099523D01*
X144455952Y-94194761D01*
X144598809Y-94242380D01*
X144694047Y-94242380D01*
X144836904Y-94194761D01*
X144884523Y-94147142D01*
X144884523Y-93813809D01*
X144694047Y-93813809D01*
X143860714Y-91416666D02*
X144336904Y-91416666D01*
X143765476Y-91702380D02*
X144098809Y-90702380D01*
X144432142Y-91702380D01*
X144955952Y-90702380D02*
X145051190Y-90702380D01*
X145146428Y-90750000D01*
X145194047Y-90797619D01*
X145241666Y-90892857D01*
X145289285Y-91083333D01*
X145289285Y-91321428D01*
X145241666Y-91511904D01*
X145194047Y-91607142D01*
X145146428Y-91654761D01*
X145051190Y-91702380D01*
X144955952Y-91702380D01*
X144860714Y-91654761D01*
X144813095Y-91607142D01*
X144765476Y-91511904D01*
X144717857Y-91321428D01*
X144717857Y-91083333D01*
X144765476Y-90892857D01*
X144813095Y-90797619D01*
X144860714Y-90750000D01*
X144955952Y-90702380D01*
X162228095Y-126262380D02*
X162847142Y-126262380D01*
X162513809Y-126643333D01*
X162656666Y-126643333D01*
X162751904Y-126690952D01*
X162799523Y-126738571D01*
X162847142Y-126833809D01*
X162847142Y-127071904D01*
X162799523Y-127167142D01*
X162751904Y-127214761D01*
X162656666Y-127262380D01*
X162370952Y-127262380D01*
X162275714Y-127214761D01*
X162228095Y-127167142D01*
X163132857Y-126262380D02*
X163466190Y-127262380D01*
X163799523Y-126262380D01*
X163251904Y-123770000D02*
X163156666Y-123722380D01*
X163013809Y-123722380D01*
X162870952Y-123770000D01*
X162775714Y-123865238D01*
X162728095Y-123960476D01*
X162680476Y-124150952D01*
X162680476Y-124293809D01*
X162728095Y-124484285D01*
X162775714Y-124579523D01*
X162870952Y-124674761D01*
X163013809Y-124722380D01*
X163109047Y-124722380D01*
X163251904Y-124674761D01*
X163299523Y-124627142D01*
X163299523Y-124293809D01*
X163109047Y-124293809D01*
X162228095Y-121182380D02*
X162799523Y-121182380D01*
X162513809Y-122182380D02*
X162513809Y-121182380D01*
X163037619Y-121182380D02*
X163704285Y-122182380D01*
X163704285Y-121182380D02*
X163037619Y-122182380D01*
X162823333Y-119642380D02*
X162490000Y-119166190D01*
X162251904Y-119642380D02*
X162251904Y-118642380D01*
X162632857Y-118642380D01*
X162728095Y-118690000D01*
X162775714Y-118737619D01*
X162823333Y-118832857D01*
X162823333Y-118975714D01*
X162775714Y-119070952D01*
X162728095Y-119118571D01*
X162632857Y-119166190D01*
X162251904Y-119166190D01*
X163156666Y-118642380D02*
X163823333Y-119642380D01*
X163823333Y-118642380D02*
X163156666Y-119642380D01*
X162251904Y-117102380D02*
X162251904Y-116102380D01*
X162490000Y-116102380D01*
X162632857Y-116150000D01*
X162728095Y-116245238D01*
X162775714Y-116340476D01*
X162823333Y-116530952D01*
X162823333Y-116673809D01*
X162775714Y-116864285D01*
X162728095Y-116959523D01*
X162632857Y-117054761D01*
X162490000Y-117102380D01*
X162251904Y-117102380D01*
X163394761Y-116530952D02*
X163299523Y-116483333D01*
X163251904Y-116435714D01*
X163204285Y-116340476D01*
X163204285Y-116292857D01*
X163251904Y-116197619D01*
X163299523Y-116150000D01*
X163394761Y-116102380D01*
X163585238Y-116102380D01*
X163680476Y-116150000D01*
X163728095Y-116197619D01*
X163775714Y-116292857D01*
X163775714Y-116340476D01*
X163728095Y-116435714D01*
X163680476Y-116483333D01*
X163585238Y-116530952D01*
X163394761Y-116530952D01*
X163299523Y-116578571D01*
X163251904Y-116626190D01*
X163204285Y-116721428D01*
X163204285Y-116911904D01*
X163251904Y-117007142D01*
X163299523Y-117054761D01*
X163394761Y-117102380D01*
X163585238Y-117102380D01*
X163680476Y-117054761D01*
X163728095Y-117007142D01*
X163775714Y-116911904D01*
X163775714Y-116721428D01*
X163728095Y-116626190D01*
X163680476Y-116578571D01*
X163585238Y-116530952D01*
X162251904Y-114562380D02*
X162251904Y-113562380D01*
X162490000Y-113562380D01*
X162632857Y-113610000D01*
X162728095Y-113705238D01*
X162775714Y-113800476D01*
X162823333Y-113990952D01*
X162823333Y-114133809D01*
X162775714Y-114324285D01*
X162728095Y-114419523D01*
X162632857Y-114514761D01*
X162490000Y-114562380D01*
X162251904Y-114562380D01*
X163156666Y-113562380D02*
X163823333Y-113562380D01*
X163394761Y-114562380D01*
X162251904Y-112022380D02*
X162251904Y-111022380D01*
X162490000Y-111022380D01*
X162632857Y-111070000D01*
X162728095Y-111165238D01*
X162775714Y-111260476D01*
X162823333Y-111450952D01*
X162823333Y-111593809D01*
X162775714Y-111784285D01*
X162728095Y-111879523D01*
X162632857Y-111974761D01*
X162490000Y-112022380D01*
X162251904Y-112022380D01*
X163680476Y-111022380D02*
X163490000Y-111022380D01*
X163394761Y-111070000D01*
X163347142Y-111117619D01*
X163251904Y-111260476D01*
X163204285Y-111450952D01*
X163204285Y-111831904D01*
X163251904Y-111927142D01*
X163299523Y-111974761D01*
X163394761Y-112022380D01*
X163585238Y-112022380D01*
X163680476Y-111974761D01*
X163728095Y-111927142D01*
X163775714Y-111831904D01*
X163775714Y-111593809D01*
X163728095Y-111498571D01*
X163680476Y-111450952D01*
X163585238Y-111403333D01*
X163394761Y-111403333D01*
X163299523Y-111450952D01*
X163251904Y-111498571D01*
X163204285Y-111593809D01*
X162251904Y-109482380D02*
X162251904Y-108482380D01*
X162490000Y-108482380D01*
X162632857Y-108530000D01*
X162728095Y-108625238D01*
X162775714Y-108720476D01*
X162823333Y-108910952D01*
X162823333Y-109053809D01*
X162775714Y-109244285D01*
X162728095Y-109339523D01*
X162632857Y-109434761D01*
X162490000Y-109482380D01*
X162251904Y-109482380D01*
X163728095Y-108482380D02*
X163251904Y-108482380D01*
X163204285Y-108958571D01*
X163251904Y-108910952D01*
X163347142Y-108863333D01*
X163585238Y-108863333D01*
X163680476Y-108910952D01*
X163728095Y-108958571D01*
X163775714Y-109053809D01*
X163775714Y-109291904D01*
X163728095Y-109387142D01*
X163680476Y-109434761D01*
X163585238Y-109482380D01*
X163347142Y-109482380D01*
X163251904Y-109434761D01*
X163204285Y-109387142D01*
X163251904Y-105990000D02*
X163156666Y-105942380D01*
X163013809Y-105942380D01*
X162870952Y-105990000D01*
X162775714Y-106085238D01*
X162728095Y-106180476D01*
X162680476Y-106370952D01*
X162680476Y-106513809D01*
X162728095Y-106704285D01*
X162775714Y-106799523D01*
X162870952Y-106894761D01*
X163013809Y-106942380D01*
X163109047Y-106942380D01*
X163251904Y-106894761D01*
X163299523Y-106847142D01*
X163299523Y-106513809D01*
X163109047Y-106513809D01*
X162228095Y-103402380D02*
X162847142Y-103402380D01*
X162513809Y-103783333D01*
X162656666Y-103783333D01*
X162751904Y-103830952D01*
X162799523Y-103878571D01*
X162847142Y-103973809D01*
X162847142Y-104211904D01*
X162799523Y-104307142D01*
X162751904Y-104354761D01*
X162656666Y-104402380D01*
X162370952Y-104402380D01*
X162275714Y-104354761D01*
X162228095Y-104307142D01*
X163132857Y-103402380D02*
X163466190Y-104402380D01*
X163799523Y-103402380D01*
X162251904Y-101862380D02*
X162251904Y-100862380D01*
X162490000Y-100862380D01*
X162632857Y-100910000D01*
X162728095Y-101005238D01*
X162775714Y-101100476D01*
X162823333Y-101290952D01*
X162823333Y-101433809D01*
X162775714Y-101624285D01*
X162728095Y-101719523D01*
X162632857Y-101814761D01*
X162490000Y-101862380D01*
X162251904Y-101862380D01*
X163680476Y-101195714D02*
X163680476Y-101862380D01*
X163442380Y-100814761D02*
X163204285Y-101529047D01*
X163823333Y-101529047D01*
X162251904Y-99322380D02*
X162251904Y-98322380D01*
X162490000Y-98322380D01*
X162632857Y-98370000D01*
X162728095Y-98465238D01*
X162775714Y-98560476D01*
X162823333Y-98750952D01*
X162823333Y-98893809D01*
X162775714Y-99084285D01*
X162728095Y-99179523D01*
X162632857Y-99274761D01*
X162490000Y-99322380D01*
X162251904Y-99322380D01*
X163156666Y-98322380D02*
X163775714Y-98322380D01*
X163442380Y-98703333D01*
X163585238Y-98703333D01*
X163680476Y-98750952D01*
X163728095Y-98798571D01*
X163775714Y-98893809D01*
X163775714Y-99131904D01*
X163728095Y-99227142D01*
X163680476Y-99274761D01*
X163585238Y-99322380D01*
X163299523Y-99322380D01*
X163204285Y-99274761D01*
X163156666Y-99227142D01*
X162251904Y-96782380D02*
X162251904Y-95782380D01*
X162490000Y-95782380D01*
X162632857Y-95830000D01*
X162728095Y-95925238D01*
X162775714Y-96020476D01*
X162823333Y-96210952D01*
X162823333Y-96353809D01*
X162775714Y-96544285D01*
X162728095Y-96639523D01*
X162632857Y-96734761D01*
X162490000Y-96782380D01*
X162251904Y-96782380D01*
X163204285Y-95877619D02*
X163251904Y-95830000D01*
X163347142Y-95782380D01*
X163585238Y-95782380D01*
X163680476Y-95830000D01*
X163728095Y-95877619D01*
X163775714Y-95972857D01*
X163775714Y-96068095D01*
X163728095Y-96210952D01*
X163156666Y-96782380D01*
X163775714Y-96782380D01*
X162251904Y-94242380D02*
X162251904Y-93242380D01*
X162490000Y-93242380D01*
X162632857Y-93290000D01*
X162728095Y-93385238D01*
X162775714Y-93480476D01*
X162823333Y-93670952D01*
X162823333Y-93813809D01*
X162775714Y-94004285D01*
X162728095Y-94099523D01*
X162632857Y-94194761D01*
X162490000Y-94242380D01*
X162251904Y-94242380D01*
X163775714Y-94242380D02*
X163204285Y-94242380D01*
X163490000Y-94242380D02*
X163490000Y-93242380D01*
X163394761Y-93385238D01*
X163299523Y-93480476D01*
X163204285Y-93528095D01*
X162251904Y-91702380D02*
X162251904Y-90702380D01*
X162490000Y-90702380D01*
X162632857Y-90750000D01*
X162728095Y-90845238D01*
X162775714Y-90940476D01*
X162823333Y-91130952D01*
X162823333Y-91273809D01*
X162775714Y-91464285D01*
X162728095Y-91559523D01*
X162632857Y-91654761D01*
X162490000Y-91702380D01*
X162251904Y-91702380D01*
X163442380Y-90702380D02*
X163537619Y-90702380D01*
X163632857Y-90750000D01*
X163680476Y-90797619D01*
X163728095Y-90892857D01*
X163775714Y-91083333D01*
X163775714Y-91321428D01*
X163728095Y-91511904D01*
X163680476Y-91607142D01*
X163632857Y-91654761D01*
X163537619Y-91702380D01*
X163442380Y-91702380D01*
X163347142Y-91654761D01*
X163299523Y-91607142D01*
X163251904Y-91511904D01*
X163204285Y-91321428D01*
X163204285Y-91083333D01*
X163251904Y-90892857D01*
X163299523Y-90797619D01*
X163347142Y-90750000D01*
X163442380Y-90702380D01*
%TD*%
M02*
