%TF.GenerationSoftware,KiCad,Pcbnew,(5.1.9)-1*%
%TF.CreationDate,2021-12-22T12:25:31+01:00*%
%TF.ProjectId,led_unterm_bett,6c65645f-756e-4746-9572-6d5f62657474,v1r1*%
%TF.SameCoordinates,Original*%
%TF.FileFunction,Copper,L2,Bot*%
%TF.FilePolarity,Positive*%
%FSLAX46Y46*%
G04 Gerber Fmt 4.6, Leading zero omitted, Abs format (unit mm)*
G04 Created by KiCad (PCBNEW (5.1.9)-1) date 2021-12-22 12:25:31*
%MOMM*%
%LPD*%
G01*
G04 APERTURE LIST*
%TA.AperFunction,NonConductor*%
%ADD10C,0.700000*%
%TD*%
%TA.AperFunction,Profile*%
%ADD11C,0.150000*%
%TD*%
%TA.AperFunction,ComponentPad*%
%ADD12C,5.600000*%
%TD*%
%TA.AperFunction,SMDPad,CuDef*%
%ADD13R,1.700000X3.300000*%
%TD*%
%TA.AperFunction,SMDPad,CuDef*%
%ADD14R,1.250000X1.500000*%
%TD*%
%TA.AperFunction,ComponentPad*%
%ADD15R,2.000000X2.000000*%
%TD*%
%TA.AperFunction,ComponentPad*%
%ADD16C,2.000000*%
%TD*%
%TA.AperFunction,ComponentPad*%
%ADD17R,3.000000X3.000000*%
%TD*%
%TA.AperFunction,ComponentPad*%
%ADD18C,3.000000*%
%TD*%
%TA.AperFunction,SMDPad,CuDef*%
%ADD19R,0.800000X0.900000*%
%TD*%
%TA.AperFunction,SMDPad,CuDef*%
%ADD20R,0.900000X0.800000*%
%TD*%
%TA.AperFunction,SMDPad,CuDef*%
%ADD21R,1.300000X1.500000*%
%TD*%
%TA.AperFunction,SMDPad,CuDef*%
%ADD22R,1.500000X1.300000*%
%TD*%
%TA.AperFunction,ComponentPad*%
%ADD23R,1.800000X1.800000*%
%TD*%
%TA.AperFunction,ComponentPad*%
%ADD24O,1.800000X1.800000*%
%TD*%
%TA.AperFunction,ComponentPad*%
%ADD25R,1.700000X1.700000*%
%TD*%
%TA.AperFunction,ComponentPad*%
%ADD26O,1.700000X1.700000*%
%TD*%
%TA.AperFunction,ComponentPad*%
%ADD27C,1.524000*%
%TD*%
%TA.AperFunction,ViaPad*%
%ADD28C,1.500000*%
%TD*%
%TA.AperFunction,Conductor*%
%ADD29C,1.300000*%
%TD*%
%TA.AperFunction,Conductor*%
%ADD30C,1.000000*%
%TD*%
%TA.AperFunction,Conductor*%
%ADD31C,0.400000*%
%TD*%
%TA.AperFunction,Conductor*%
%ADD32C,0.100000*%
%TD*%
G04 APERTURE END LIST*
D10*
X148966666Y-126514285D02*
X149538095Y-126704761D01*
X149728571Y-126895238D01*
X149919047Y-127276190D01*
X149919047Y-127847619D01*
X149728571Y-128228571D01*
X149538095Y-128419047D01*
X149157142Y-128609523D01*
X147633333Y-128609523D01*
X147633333Y-124609523D01*
X148966666Y-124609523D01*
X149347619Y-124800000D01*
X149538095Y-124990476D01*
X149728571Y-125371428D01*
X149728571Y-125752380D01*
X149538095Y-126133333D01*
X149347619Y-126323809D01*
X148966666Y-126514285D01*
X147633333Y-126514285D01*
X152395238Y-124609523D02*
X153157142Y-124609523D01*
X153538095Y-124800000D01*
X153919047Y-125180952D01*
X154109523Y-125942857D01*
X154109523Y-127276190D01*
X153919047Y-128038095D01*
X153538095Y-128419047D01*
X153157142Y-128609523D01*
X152395238Y-128609523D01*
X152014285Y-128419047D01*
X151633333Y-128038095D01*
X151442857Y-127276190D01*
X151442857Y-125942857D01*
X151633333Y-125180952D01*
X152014285Y-124800000D01*
X152395238Y-124609523D01*
X155252380Y-124609523D02*
X157538095Y-124609523D01*
X156395238Y-128609523D02*
X156395238Y-124609523D01*
D11*
X173000000Y-136000000D02*
X117000000Y-136000000D01*
X173000000Y-59000000D02*
X173000000Y-136000000D01*
X117000000Y-59000000D02*
X173000000Y-59000000D01*
X117000000Y-136000000D02*
X117000000Y-59000000D01*
D12*
%TO.P,REF\u002A\u002A,1*%
%TO.N,N/C*%
X123000000Y-130000000D03*
%TD*%
%TO.P,REF\u002A\u002A,1*%
%TO.N,N/C*%
X167000000Y-65000000D03*
%TD*%
D13*
%TO.P,D3,1*%
%TO.N,Net-(D1-Pad1)*%
X166700000Y-81450000D03*
%TO.P,D3,2*%
%TO.N,Net-(D3-Pad2)*%
X166700000Y-75950000D03*
%TD*%
%TO.P,D2,1*%
%TO.N,Net-(D1-Pad1)*%
X162800000Y-81450000D03*
%TO.P,D2,2*%
%TO.N,Net-(D2-Pad2)*%
X162800000Y-75950000D03*
%TD*%
%TO.P,D1,1*%
%TO.N,Net-(D1-Pad1)*%
X159100000Y-81450000D03*
%TO.P,D1,2*%
%TO.N,Net-(D1-Pad2)*%
X159100000Y-75950000D03*
%TD*%
D14*
%TO.P,C1,1*%
%TO.N,GND*%
X160000000Y-93750000D03*
%TO.P,C1,2*%
%TO.N,Net-(C1-Pad2)*%
X160000000Y-91250000D03*
%TD*%
%TO.P,C2,1*%
%TO.N,Net-(C2-Pad1)*%
X138500000Y-116650000D03*
%TO.P,C2,2*%
%TO.N,GND*%
X138500000Y-114150000D03*
%TD*%
%TO.P,C3,1*%
%TO.N,Net-(C3-Pad1)*%
X138700000Y-126750000D03*
%TO.P,C3,2*%
%TO.N,GND*%
X138700000Y-124250000D03*
%TD*%
%TO.P,C4,1*%
%TO.N,GND*%
X162600000Y-106450000D03*
%TO.P,C4,2*%
%TO.N,Net-(C4-Pad2)*%
X162600000Y-103950000D03*
%TD*%
%TO.P,C5,1*%
%TO.N,GND*%
X162800000Y-124150000D03*
%TO.P,C5,2*%
%TO.N,Net-(C5-Pad2)*%
X162800000Y-126650000D03*
%TD*%
D15*
%TO.P,C6,1*%
%TO.N,+12V*%
X129500000Y-77800000D03*
D16*
%TO.P,C6,2*%
%TO.N,GND*%
X126000000Y-77800000D03*
%TD*%
D15*
%TO.P,C7,1*%
%TO.N,+5V*%
X124300000Y-100700000D03*
D16*
%TO.P,C7,2*%
%TO.N,GND*%
X127800000Y-100700000D03*
%TD*%
D15*
%TO.P,C8,1*%
%TO.N,Net-(C8-Pad1)*%
X127500000Y-118100000D03*
D16*
%TO.P,C8,2*%
%TO.N,GND*%
X127500000Y-114600000D03*
%TD*%
D17*
%TO.P,J5,1*%
%TO.N,GND*%
X124500000Y-66600000D03*
D18*
%TO.P,J5,2*%
%TO.N,+12V*%
X129580000Y-66600000D03*
%TD*%
D19*
%TO.P,Q1,1*%
%TO.N,Net-(Q1-Pad1)*%
X159650000Y-101200000D03*
%TO.P,Q1,2*%
%TO.N,GND*%
X157750000Y-101200000D03*
%TO.P,Q1,3*%
%TO.N,Net-(J6-Pad1)*%
X158700000Y-99200000D03*
%TD*%
%TO.P,Q2,1*%
%TO.N,Net-(Q2-Pad1)*%
X154450000Y-106600000D03*
%TO.P,Q2,2*%
%TO.N,GND*%
X152550000Y-106600000D03*
%TO.P,Q2,3*%
%TO.N,Net-(J6-Pad2)*%
X153500000Y-104600000D03*
%TD*%
D20*
%TO.P,Q3,1*%
%TO.N,Net-(Q3-Pad1)*%
X155200000Y-111550000D03*
%TO.P,Q3,2*%
%TO.N,GND*%
X155200000Y-113450000D03*
%TO.P,Q3,3*%
%TO.N,Net-(J6-Pad3)*%
X153200000Y-112500000D03*
%TD*%
D21*
%TO.P,R1,1*%
%TO.N,Net-(D1-Pad1)*%
X162600000Y-85650000D03*
%TO.P,R1,2*%
%TO.N,Net-(C1-Pad2)*%
X162600000Y-88350000D03*
%TD*%
%TO.P,R2,1*%
%TO.N,Net-(C1-Pad2)*%
X162600000Y-91150000D03*
%TO.P,R2,2*%
%TO.N,GND*%
X162600000Y-93850000D03*
%TD*%
%TO.P,R3,1*%
%TO.N,Net-(Q1-Pad1)*%
X162600000Y-101250000D03*
%TO.P,R3,2*%
%TO.N,GND*%
X162600000Y-98550000D03*
%TD*%
D22*
%TO.P,R4,1*%
%TO.N,Net-(Q2-Pad1)*%
X157350000Y-106500000D03*
%TO.P,R4,2*%
%TO.N,GND*%
X160050000Y-106500000D03*
%TD*%
D21*
%TO.P,R5,1*%
%TO.N,Net-(Q3-Pad1)*%
X158100000Y-111550000D03*
%TO.P,R5,2*%
%TO.N,GND*%
X158100000Y-114250000D03*
%TD*%
D23*
%TO.P,U2,1*%
%TO.N,+12V*%
X129400000Y-89400000D03*
D24*
%TO.P,U2,2*%
%TO.N,GND*%
X126860000Y-89400000D03*
%TO.P,U2,3*%
%TO.N,+5V*%
X124320000Y-89400000D03*
%TD*%
D25*
%TO.P,J1,1*%
%TO.N,Net-(D1-Pad2)*%
X153900000Y-72500000D03*
D26*
%TO.P,J1,2*%
%TO.N,+5V*%
X151360000Y-72500000D03*
%TO.P,J1,3*%
%TO.N,GND*%
X148820000Y-72500000D03*
%TD*%
D25*
%TO.P,J2,1*%
%TO.N,Net-(D2-Pad2)*%
X153900000Y-68500000D03*
D26*
%TO.P,J2,2*%
%TO.N,+5V*%
X151360000Y-68500000D03*
%TO.P,J2,3*%
%TO.N,GND*%
X148820000Y-68500000D03*
%TD*%
D25*
%TO.P,J3,1*%
%TO.N,Net-(D3-Pad2)*%
X153900000Y-64500000D03*
D26*
%TO.P,J3,2*%
%TO.N,+5V*%
X151360000Y-64500000D03*
%TO.P,J3,3*%
%TO.N,GND*%
X148820000Y-64500000D03*
%TD*%
D25*
%TO.P,J4,1*%
%TO.N,Net-(C3-Pad1)*%
X133400000Y-126800000D03*
D26*
%TO.P,J4,2*%
%TO.N,+5V*%
X130860000Y-126800000D03*
%TD*%
D25*
%TO.P,J6,1*%
%TO.N,Net-(J6-Pad1)*%
X143100000Y-64500000D03*
D26*
%TO.P,J6,2*%
%TO.N,Net-(J6-Pad2)*%
X140560000Y-64500000D03*
%TO.P,J6,3*%
%TO.N,Net-(J6-Pad3)*%
X138020000Y-64500000D03*
%TO.P,J6,4*%
%TO.N,+12V*%
X135480000Y-64500000D03*
%TD*%
D27*
%TO.P,U1,1*%
%TO.N,N/C*%
X142035000Y-91250000D03*
%TO.P,U1,2*%
X142035000Y-93790000D03*
%TO.P,U1,3*%
X142035000Y-96330000D03*
%TO.P,U1,4*%
X142035000Y-98870000D03*
%TO.P,U1,5*%
X142035000Y-101410000D03*
%TO.P,U1,6*%
X142035000Y-103950000D03*
%TO.P,U1,7*%
X142035000Y-106490000D03*
%TO.P,U1,8*%
X142035000Y-109030000D03*
%TO.P,U1,9*%
X142035000Y-111570000D03*
%TO.P,U1,10*%
%TO.N,GND*%
X142035000Y-114110000D03*
%TO.P,U1,11*%
%TO.N,Net-(C2-Pad1)*%
X142035000Y-116650000D03*
%TO.P,U1,12*%
%TO.N,Net-(C8-Pad1)*%
X142035000Y-119190000D03*
%TO.P,U1,13*%
%TO.N,N/C*%
X142035000Y-121730000D03*
%TO.P,U1,14*%
%TO.N,GND*%
X142035000Y-124270000D03*
%TO.P,U1,15*%
%TO.N,Net-(C3-Pad1)*%
X142035000Y-126810000D03*
%TO.P,U1,16*%
%TO.N,Net-(C5-Pad2)*%
X165530000Y-126810000D03*
%TO.P,U1,17*%
%TO.N,GND*%
X165530000Y-124270000D03*
%TO.P,U1,18*%
%TO.N,N/C*%
X165530000Y-121730000D03*
%TO.P,U1,19*%
X165530000Y-119190000D03*
%TO.P,U1,20*%
X165530000Y-116650000D03*
%TO.P,U1,21*%
X165530000Y-114110000D03*
%TO.P,U1,22*%
%TO.N,Net-(Q3-Pad1)*%
X165530000Y-111570000D03*
%TO.P,U1,23*%
%TO.N,Net-(Q2-Pad1)*%
X165530000Y-109030000D03*
%TO.P,U1,24*%
%TO.N,GND*%
X165530000Y-106490000D03*
%TO.P,U1,25*%
%TO.N,Net-(C4-Pad2)*%
X165530000Y-103950000D03*
%TO.P,U1,26*%
%TO.N,Net-(Q1-Pad1)*%
X165530000Y-101410000D03*
%TO.P,U1,27*%
%TO.N,N/C*%
X165530000Y-98870000D03*
%TO.P,U1,28*%
X165530000Y-96330000D03*
%TO.P,U1,29*%
X165530000Y-93790000D03*
%TO.P,U1,30*%
%TO.N,Net-(C1-Pad2)*%
X165530000Y-91250000D03*
%TD*%
D28*
%TO.N,GND*%
X124600000Y-70800000D03*
X152900000Y-109100000D03*
%TO.N,+5V*%
X151400000Y-77400000D03*
%TD*%
D29*
%TO.N,GND*%
X138700000Y-124250000D02*
X142015000Y-124250000D01*
X142015000Y-124250000D02*
X142065000Y-124200000D01*
X142065000Y-124200000D02*
X144400000Y-124200000D01*
X142035000Y-114110000D02*
X144990000Y-114110000D01*
X144990000Y-114110000D02*
X145000000Y-114100000D01*
X142035000Y-114110000D02*
X138540000Y-114110000D01*
X138540000Y-114110000D02*
X138500000Y-114150000D01*
X124500000Y-66600000D02*
X124500000Y-70700000D01*
X124500000Y-70700000D02*
X124600000Y-70800000D01*
X126860000Y-89400000D02*
X126860000Y-86840000D01*
X126860000Y-86840000D02*
X126900000Y-86800000D01*
X126860000Y-89400000D02*
X126860000Y-92160000D01*
X126860000Y-92160000D02*
X126900000Y-92200000D01*
X155200000Y-113450000D02*
X155200000Y-115600000D01*
X152550000Y-106600000D02*
X152550000Y-108750000D01*
X152550000Y-108750000D02*
X152900000Y-109100000D01*
X157750000Y-101200000D02*
X157750000Y-103250000D01*
X157750000Y-103250000D02*
X157800000Y-103300000D01*
X162600000Y-106450000D02*
X160100000Y-106450000D01*
X160100000Y-106450000D02*
X160000000Y-106350000D01*
X160000000Y-106350000D02*
X160000000Y-104100000D01*
X162600000Y-106450000D02*
X165360000Y-106450000D01*
X165360000Y-106450000D02*
X165410000Y-106400000D01*
X165410000Y-106400000D02*
X168300000Y-106400000D01*
X165370000Y-124240000D02*
X162890000Y-124240000D01*
X162890000Y-124240000D02*
X162800000Y-124150000D01*
D30*
%TO.N,Net-(C1-Pad2)*%
X162600000Y-91150000D02*
X162600000Y-88350000D01*
X165370000Y-91220000D02*
X162670000Y-91220000D01*
X162670000Y-91220000D02*
X162640000Y-91250000D01*
X162640000Y-91250000D02*
X160000000Y-91250000D01*
%TO.N,Net-(C2-Pad1)*%
X138500000Y-116650000D02*
X142035000Y-116650000D01*
%TO.N,Net-(C3-Pad1)*%
X138650000Y-126800000D02*
X138660000Y-126810000D01*
X138660000Y-126810000D02*
X142035000Y-126810000D01*
X133450000Y-126750000D02*
X133400000Y-126800000D01*
X138700000Y-126750000D02*
X133450000Y-126750000D01*
%TO.N,Net-(C4-Pad2)*%
X165370000Y-103920000D02*
X162630000Y-103920000D01*
X162630000Y-103920000D02*
X162600000Y-103950000D01*
%TO.N,Net-(C5-Pad2)*%
X165370000Y-126780000D02*
X162930000Y-126780000D01*
X162930000Y-126780000D02*
X162800000Y-126650000D01*
D29*
%TO.N,+12V*%
X129500000Y-77800000D02*
X129500000Y-89300000D01*
X129500000Y-89300000D02*
X129400000Y-89400000D01*
X129580000Y-66600000D02*
X129580000Y-77720000D01*
X129580000Y-77720000D02*
X129500000Y-77800000D01*
X129580000Y-66600000D02*
X133380000Y-66600000D01*
X133380000Y-66600000D02*
X135480000Y-64500000D01*
%TO.N,+5V*%
X151360000Y-77360000D02*
X151360000Y-72500000D01*
X151400000Y-77400000D02*
X151360000Y-77360000D01*
X124320000Y-89400000D02*
X124320000Y-100680000D01*
X124320000Y-100680000D02*
X124300000Y-100700000D01*
X124300000Y-100700000D02*
X124300000Y-107900000D01*
X124300000Y-107900000D02*
X123000000Y-109200000D01*
X123000000Y-109200000D02*
X123000000Y-122540000D01*
X151360000Y-64500000D02*
X151360000Y-68500000D01*
X151360000Y-68500000D02*
X151360000Y-72500000D01*
X127260000Y-126800000D02*
X123000000Y-122540000D01*
X130860000Y-126800000D02*
X127260000Y-126800000D01*
D30*
%TO.N,Net-(C8-Pad1)*%
X142035000Y-119190000D02*
X128590000Y-119190000D01*
X128590000Y-119190000D02*
X127500000Y-118100000D01*
%TO.N,Net-(D1-Pad1)*%
X162600000Y-85650000D02*
X162600000Y-81650000D01*
X162600000Y-81650000D02*
X162800000Y-81450000D01*
X159100000Y-81450000D02*
X162800000Y-81450000D01*
X162800000Y-81450000D02*
X166700000Y-81450000D01*
%TO.N,Net-(D1-Pad2)*%
X159100000Y-75950000D02*
X159100000Y-74000000D01*
X157600000Y-72500000D02*
X153900000Y-72500000D01*
X159100000Y-74000000D02*
X157600000Y-72500000D01*
%TO.N,Net-(D2-Pad2)*%
X162800000Y-75950000D02*
X162800000Y-72900000D01*
X158400000Y-68500000D02*
X153900000Y-68500000D01*
X162800000Y-72900000D02*
X158400000Y-68500000D01*
%TO.N,Net-(D3-Pad2)*%
X166700000Y-75950000D02*
X166700000Y-71700000D01*
X159500000Y-64500000D02*
X153900000Y-64500000D01*
X166700000Y-71700000D02*
X159500000Y-64500000D01*
%TO.N,Net-(J6-Pad2)*%
X140560000Y-64500000D02*
X140560000Y-75260000D01*
X153500000Y-88200000D02*
X153500000Y-104600000D01*
X140560000Y-75260000D02*
X153500000Y-88200000D01*
%TO.N,Net-(J6-Pad3)*%
X138020000Y-64500000D02*
X138020000Y-75620000D01*
X151600000Y-112500000D02*
X153200000Y-112500000D01*
X149600000Y-110500000D02*
X151600000Y-112500000D01*
X149600000Y-87200000D02*
X149600000Y-110500000D01*
X138020000Y-75620000D02*
X149600000Y-87200000D01*
%TO.N,Net-(Q1-Pad1)*%
X165370000Y-101380000D02*
X162730000Y-101380000D01*
X162730000Y-101380000D02*
X162550000Y-101200000D01*
X162550000Y-101200000D02*
X159650000Y-101200000D01*
%TO.N,Net-(Q2-Pad1)*%
X165370000Y-109000000D02*
X158100000Y-109000000D01*
X157350000Y-108250000D02*
X157350000Y-106500000D01*
X158100000Y-109000000D02*
X157350000Y-108250000D01*
X157350000Y-106500000D02*
X157250000Y-106600000D01*
X157250000Y-106600000D02*
X154450000Y-106600000D01*
%TO.N,Net-(Q3-Pad1)*%
X155200000Y-111550000D02*
X158100000Y-111550000D01*
X165370000Y-111540000D02*
X158110000Y-111540000D01*
X158110000Y-111540000D02*
X158100000Y-111550000D01*
%TO.N,Net-(J6-Pad1)*%
X143100000Y-64500000D02*
X143100000Y-75000000D01*
X158700000Y-97000000D02*
X158700000Y-99200000D01*
X156100000Y-94400000D02*
X158700000Y-97000000D01*
X156100000Y-88000000D02*
X156100000Y-94400000D01*
X143100000Y-75000000D02*
X156100000Y-88000000D01*
%TD*%
D31*
%TO.N,GND*%
X171725001Y-134725000D02*
X118275000Y-134725000D01*
X118275000Y-129606034D01*
X119000000Y-129606034D01*
X119000000Y-130393966D01*
X119153718Y-131166757D01*
X119455246Y-131894710D01*
X119892997Y-132549851D01*
X120450149Y-133107003D01*
X121105290Y-133544754D01*
X121833243Y-133846282D01*
X122606034Y-134000000D01*
X123393966Y-134000000D01*
X124166757Y-133846282D01*
X124894710Y-133544754D01*
X125549851Y-133107003D01*
X126107003Y-132549851D01*
X126544754Y-131894710D01*
X126846282Y-131166757D01*
X127000000Y-130393966D01*
X127000000Y-129606034D01*
X126846282Y-128833243D01*
X126739455Y-128575339D01*
X126897337Y-128623232D01*
X127169118Y-128650000D01*
X127169121Y-128650000D01*
X127260000Y-128658951D01*
X127350879Y-128650000D01*
X129969388Y-128650000D01*
X130262037Y-128771220D01*
X130658093Y-128850000D01*
X131061907Y-128850000D01*
X131457963Y-128771220D01*
X131831039Y-128616686D01*
X131833961Y-128614734D01*
X131880090Y-128652591D01*
X132088558Y-128764019D01*
X132314759Y-128832637D01*
X132550000Y-128855806D01*
X134250000Y-128855806D01*
X134485241Y-128832637D01*
X134711442Y-128764019D01*
X134919910Y-128652591D01*
X135102634Y-128502634D01*
X135145829Y-128450000D01*
X137341007Y-128450000D01*
X137405090Y-128502591D01*
X137613558Y-128614019D01*
X137839759Y-128682637D01*
X138075000Y-128705806D01*
X139325000Y-128705806D01*
X139560241Y-128682637D01*
X139786442Y-128614019D01*
X139981049Y-128510000D01*
X141047723Y-128510000D01*
X141105645Y-128548702D01*
X141462706Y-128696601D01*
X141841760Y-128772000D01*
X142228240Y-128772000D01*
X142607294Y-128696601D01*
X142964355Y-128548702D01*
X143285702Y-128333985D01*
X143558985Y-128060702D01*
X143773702Y-127739355D01*
X143921601Y-127382294D01*
X143997000Y-127003240D01*
X143997000Y-126616760D01*
X143921601Y-126237706D01*
X143773702Y-125880645D01*
X143558985Y-125559298D01*
X143285702Y-125286015D01*
X143214802Y-125238641D01*
X143414876Y-125210736D01*
X143571890Y-124923459D01*
X143669843Y-124611071D01*
X143704969Y-124285575D01*
X143675920Y-123959482D01*
X143583811Y-123645321D01*
X143432183Y-123355166D01*
X143414876Y-123329264D01*
X143214802Y-123301359D01*
X143285702Y-123253985D01*
X143558985Y-122980702D01*
X143773702Y-122659355D01*
X143821069Y-122545000D01*
X145130953Y-122545000D01*
X145130953Y-131645000D01*
X159469048Y-131645000D01*
X159469048Y-123400000D01*
X161270645Y-123400000D01*
X161275000Y-123875000D01*
X161500000Y-124100000D01*
X162750000Y-124100000D01*
X162750000Y-122725000D01*
X162525000Y-122500000D01*
X162175000Y-122495645D01*
X161998569Y-122513022D01*
X161828918Y-122564485D01*
X161672567Y-122648056D01*
X161535524Y-122760524D01*
X161423056Y-122897567D01*
X161339485Y-123053918D01*
X161288022Y-123223569D01*
X161270645Y-123400000D01*
X159469048Y-123400000D01*
X159469048Y-122545000D01*
X145130953Y-122545000D01*
X143821069Y-122545000D01*
X143921601Y-122302294D01*
X143997000Y-121923240D01*
X143997000Y-121536760D01*
X143921601Y-121157706D01*
X143773702Y-120800645D01*
X143558985Y-120479298D01*
X143539687Y-120460000D01*
X143558985Y-120440702D01*
X143773702Y-120119355D01*
X143921601Y-119762294D01*
X143997000Y-119383240D01*
X143997000Y-118996760D01*
X143921601Y-118617706D01*
X143773702Y-118260645D01*
X143558985Y-117939298D01*
X143539687Y-117920000D01*
X143558985Y-117900702D01*
X143773702Y-117579355D01*
X143921601Y-117222294D01*
X143997000Y-116843240D01*
X143997000Y-116456760D01*
X143921601Y-116077706D01*
X143773702Y-115720645D01*
X143558985Y-115399298D01*
X143285702Y-115126015D01*
X143214802Y-115078641D01*
X143414876Y-115050736D01*
X143442606Y-115000000D01*
X156545645Y-115000000D01*
X156563022Y-115176431D01*
X156614485Y-115346082D01*
X156698056Y-115502433D01*
X156810524Y-115639476D01*
X156947567Y-115751944D01*
X157103918Y-115835515D01*
X157273569Y-115886978D01*
X157450000Y-115904355D01*
X157825000Y-115900000D01*
X158050000Y-115675000D01*
X158050000Y-114300000D01*
X158150000Y-114300000D01*
X158150000Y-115675000D01*
X158375000Y-115900000D01*
X158750000Y-115904355D01*
X158926431Y-115886978D01*
X159096082Y-115835515D01*
X159252433Y-115751944D01*
X159389476Y-115639476D01*
X159501944Y-115502433D01*
X159585515Y-115346082D01*
X159636978Y-115176431D01*
X159654355Y-115000000D01*
X159650000Y-114525000D01*
X159425000Y-114300000D01*
X158150000Y-114300000D01*
X158050000Y-114300000D01*
X156775000Y-114300000D01*
X156550000Y-114525000D01*
X156545645Y-115000000D01*
X143442606Y-115000000D01*
X143571890Y-114763459D01*
X143669843Y-114451071D01*
X143704969Y-114125575D01*
X143675920Y-113799482D01*
X143583811Y-113485321D01*
X143432183Y-113195166D01*
X143414876Y-113169264D01*
X143214802Y-113141359D01*
X143285702Y-113093985D01*
X143558985Y-112820702D01*
X143773702Y-112499355D01*
X143921601Y-112142294D01*
X143997000Y-111763240D01*
X143997000Y-111376760D01*
X143921601Y-110997706D01*
X143773702Y-110640645D01*
X143558985Y-110319298D01*
X143539687Y-110300000D01*
X143558985Y-110280702D01*
X143773702Y-109959355D01*
X143921601Y-109602294D01*
X143997000Y-109223240D01*
X143997000Y-108836760D01*
X143921601Y-108457706D01*
X143773702Y-108100645D01*
X143558985Y-107779298D01*
X143539687Y-107760000D01*
X143558985Y-107740702D01*
X143773702Y-107419355D01*
X143921601Y-107062294D01*
X143997000Y-106683240D01*
X143997000Y-106296760D01*
X143921601Y-105917706D01*
X143773702Y-105560645D01*
X143558985Y-105239298D01*
X143539687Y-105220000D01*
X143558985Y-105200702D01*
X143773702Y-104879355D01*
X143921601Y-104522294D01*
X143997000Y-104143240D01*
X143997000Y-103756760D01*
X143921601Y-103377706D01*
X143773702Y-103020645D01*
X143558985Y-102699298D01*
X143539687Y-102680000D01*
X143558985Y-102660702D01*
X143773702Y-102339355D01*
X143921601Y-101982294D01*
X143997000Y-101603240D01*
X143997000Y-101216760D01*
X143921601Y-100837706D01*
X143773702Y-100480645D01*
X143558985Y-100159298D01*
X143539687Y-100140000D01*
X143558985Y-100120702D01*
X143773702Y-99799355D01*
X143921601Y-99442294D01*
X143997000Y-99063240D01*
X143997000Y-98676760D01*
X143921601Y-98297706D01*
X143773702Y-97940645D01*
X143558985Y-97619298D01*
X143539687Y-97600000D01*
X143558985Y-97580702D01*
X143773702Y-97259355D01*
X143921601Y-96902294D01*
X143997000Y-96523240D01*
X143997000Y-96136760D01*
X143921601Y-95757706D01*
X143773702Y-95400645D01*
X143558985Y-95079298D01*
X143539687Y-95060000D01*
X143558985Y-95040702D01*
X143773702Y-94719355D01*
X143921601Y-94362294D01*
X143997000Y-93983240D01*
X143997000Y-93596760D01*
X143921601Y-93217706D01*
X143773702Y-92860645D01*
X143558985Y-92539298D01*
X143539687Y-92520000D01*
X143558985Y-92500702D01*
X143773702Y-92179355D01*
X143921601Y-91822294D01*
X143997000Y-91443240D01*
X143997000Y-91056760D01*
X143921601Y-90677706D01*
X143773702Y-90320645D01*
X143558985Y-89999298D01*
X143285702Y-89726015D01*
X142964355Y-89511298D01*
X142607294Y-89363399D01*
X142228240Y-89288000D01*
X141841760Y-89288000D01*
X141462706Y-89363399D01*
X141105645Y-89511298D01*
X140784298Y-89726015D01*
X140511015Y-89999298D01*
X140296298Y-90320645D01*
X140148399Y-90677706D01*
X140073000Y-91056760D01*
X140073000Y-91443240D01*
X140148399Y-91822294D01*
X140296298Y-92179355D01*
X140511015Y-92500702D01*
X140530313Y-92520000D01*
X140511015Y-92539298D01*
X140296298Y-92860645D01*
X140148399Y-93217706D01*
X140073000Y-93596760D01*
X140073000Y-93983240D01*
X140148399Y-94362294D01*
X140296298Y-94719355D01*
X140511015Y-95040702D01*
X140530313Y-95060000D01*
X140511015Y-95079298D01*
X140296298Y-95400645D01*
X140148399Y-95757706D01*
X140073000Y-96136760D01*
X140073000Y-96523240D01*
X140148399Y-96902294D01*
X140296298Y-97259355D01*
X140511015Y-97580702D01*
X140530313Y-97600000D01*
X140511015Y-97619298D01*
X140296298Y-97940645D01*
X140148399Y-98297706D01*
X140073000Y-98676760D01*
X140073000Y-99063240D01*
X140148399Y-99442294D01*
X140296298Y-99799355D01*
X140511015Y-100120702D01*
X140530313Y-100140000D01*
X140511015Y-100159298D01*
X140296298Y-100480645D01*
X140148399Y-100837706D01*
X140073000Y-101216760D01*
X140073000Y-101603240D01*
X140148399Y-101982294D01*
X140296298Y-102339355D01*
X140511015Y-102660702D01*
X140530313Y-102680000D01*
X140511015Y-102699298D01*
X140296298Y-103020645D01*
X140148399Y-103377706D01*
X140073000Y-103756760D01*
X140073000Y-104143240D01*
X140148399Y-104522294D01*
X140296298Y-104879355D01*
X140511015Y-105200702D01*
X140530313Y-105220000D01*
X140511015Y-105239298D01*
X140296298Y-105560645D01*
X140148399Y-105917706D01*
X140073000Y-106296760D01*
X140073000Y-106683240D01*
X140148399Y-107062294D01*
X140296298Y-107419355D01*
X140511015Y-107740702D01*
X140530313Y-107760000D01*
X140511015Y-107779298D01*
X140296298Y-108100645D01*
X140148399Y-108457706D01*
X140073000Y-108836760D01*
X140073000Y-109223240D01*
X140148399Y-109602294D01*
X140296298Y-109959355D01*
X140511015Y-110280702D01*
X140530313Y-110300000D01*
X140511015Y-110319298D01*
X140296298Y-110640645D01*
X140148399Y-110997706D01*
X140073000Y-111376760D01*
X140073000Y-111763240D01*
X140148399Y-112142294D01*
X140296298Y-112499355D01*
X140511015Y-112820702D01*
X140784298Y-113093985D01*
X140855198Y-113141359D01*
X140655124Y-113169264D01*
X140498110Y-113456541D01*
X140400157Y-113768929D01*
X140365031Y-114094425D01*
X140394080Y-114420518D01*
X140486189Y-114734679D01*
X140598711Y-114950000D01*
X140024430Y-114950000D01*
X140029355Y-114900000D01*
X140025000Y-114425000D01*
X139800000Y-114200000D01*
X138550000Y-114200000D01*
X138550000Y-114220000D01*
X138450000Y-114220000D01*
X138450000Y-114200000D01*
X137200000Y-114200000D01*
X136975000Y-114425000D01*
X136970645Y-114900000D01*
X136988022Y-115076431D01*
X136990853Y-115085765D01*
X136872409Y-115230090D01*
X136760981Y-115438558D01*
X136692363Y-115664759D01*
X136669194Y-115900000D01*
X136669194Y-117400000D01*
X136678058Y-117490000D01*
X129705806Y-117490000D01*
X129705806Y-117100000D01*
X129682637Y-116864759D01*
X129614019Y-116638558D01*
X129502591Y-116430090D01*
X129352634Y-116247366D01*
X129169910Y-116097409D01*
X128961442Y-115985981D01*
X128735241Y-115917363D01*
X128637647Y-115907751D01*
X128655024Y-115825735D01*
X127500000Y-114670711D01*
X126344976Y-115825735D01*
X126362353Y-115907751D01*
X126264759Y-115917363D01*
X126038558Y-115985981D01*
X125830090Y-116097409D01*
X125647366Y-116247366D01*
X125497409Y-116430090D01*
X125385981Y-116638558D01*
X125317363Y-116864759D01*
X125294194Y-117100000D01*
X125294194Y-119100000D01*
X125317363Y-119335241D01*
X125385981Y-119561442D01*
X125497409Y-119769910D01*
X125647366Y-119952634D01*
X125830090Y-120102591D01*
X126038558Y-120214019D01*
X126264759Y-120282637D01*
X126500000Y-120305806D01*
X127301644Y-120305806D01*
X127328868Y-120333030D01*
X127382103Y-120397897D01*
X127640961Y-120610337D01*
X127936291Y-120768194D01*
X128256742Y-120865402D01*
X128506490Y-120890000D01*
X128506500Y-120890000D01*
X128590000Y-120898224D01*
X128673500Y-120890000D01*
X140259286Y-120890000D01*
X140148399Y-121157706D01*
X140073000Y-121536760D01*
X140073000Y-121923240D01*
X140148399Y-122302294D01*
X140296298Y-122659355D01*
X140511015Y-122980702D01*
X140784298Y-123253985D01*
X140855198Y-123301359D01*
X140655124Y-123329264D01*
X140498110Y-123616541D01*
X140400157Y-123928929D01*
X140365031Y-124254425D01*
X140394080Y-124580518D01*
X140486189Y-124894679D01*
X140598711Y-125110000D01*
X140218521Y-125110000D01*
X140229355Y-125000000D01*
X140225000Y-124525000D01*
X140000000Y-124300000D01*
X138750000Y-124300000D01*
X138750000Y-124320000D01*
X138650000Y-124320000D01*
X138650000Y-124300000D01*
X137400000Y-124300000D01*
X137175000Y-124525000D01*
X137170645Y-125000000D01*
X137175570Y-125050000D01*
X135044918Y-125050000D01*
X134919910Y-124947409D01*
X134711442Y-124835981D01*
X134485241Y-124767363D01*
X134250000Y-124744194D01*
X132550000Y-124744194D01*
X132314759Y-124767363D01*
X132088558Y-124835981D01*
X131880090Y-124947409D01*
X131833961Y-124985266D01*
X131831039Y-124983314D01*
X131457963Y-124828780D01*
X131061907Y-124750000D01*
X130658093Y-124750000D01*
X130262037Y-124828780D01*
X129969388Y-124950000D01*
X128026295Y-124950000D01*
X126576295Y-123500000D01*
X137170645Y-123500000D01*
X137175000Y-123975000D01*
X137400000Y-124200000D01*
X138650000Y-124200000D01*
X138650000Y-122825000D01*
X138750000Y-122825000D01*
X138750000Y-124200000D01*
X140000000Y-124200000D01*
X140225000Y-123975000D01*
X140229355Y-123500000D01*
X140211978Y-123323569D01*
X140160515Y-123153918D01*
X140076944Y-122997567D01*
X139964476Y-122860524D01*
X139827433Y-122748056D01*
X139671082Y-122664485D01*
X139501431Y-122613022D01*
X139325000Y-122595645D01*
X138975000Y-122600000D01*
X138750000Y-122825000D01*
X138650000Y-122825000D01*
X138425000Y-122600000D01*
X138075000Y-122595645D01*
X137898569Y-122613022D01*
X137728918Y-122664485D01*
X137572567Y-122748056D01*
X137435524Y-122860524D01*
X137323056Y-122997567D01*
X137239485Y-123153918D01*
X137188022Y-123323569D01*
X137170645Y-123500000D01*
X126576295Y-123500000D01*
X124850000Y-121773706D01*
X124850000Y-114575033D01*
X125590970Y-114575033D01*
X125622781Y-114947947D01*
X125726732Y-115307489D01*
X125898829Y-115639842D01*
X125926571Y-115681359D01*
X126274265Y-115755024D01*
X127429289Y-114600000D01*
X127570711Y-114600000D01*
X128725735Y-115755024D01*
X129073429Y-115681359D01*
X129254159Y-115353620D01*
X129367477Y-114996920D01*
X129409030Y-114624967D01*
X129377219Y-114252053D01*
X129273268Y-113892511D01*
X129101171Y-113560158D01*
X129073429Y-113518641D01*
X128725735Y-113444976D01*
X127570711Y-114600000D01*
X127429289Y-114600000D01*
X126274265Y-113444976D01*
X125926571Y-113518641D01*
X125745841Y-113846380D01*
X125632523Y-114203080D01*
X125590970Y-114575033D01*
X124850000Y-114575033D01*
X124850000Y-113374265D01*
X126344976Y-113374265D01*
X127500000Y-114529289D01*
X128629289Y-113400000D01*
X136970645Y-113400000D01*
X136975000Y-113875000D01*
X137200000Y-114100000D01*
X138450000Y-114100000D01*
X138450000Y-112725000D01*
X138550000Y-112725000D01*
X138550000Y-114100000D01*
X139800000Y-114100000D01*
X140025000Y-113875000D01*
X140029355Y-113400000D01*
X140011978Y-113223569D01*
X139960515Y-113053918D01*
X139876944Y-112897567D01*
X139764476Y-112760524D01*
X139627433Y-112648056D01*
X139471082Y-112564485D01*
X139301431Y-112513022D01*
X139125000Y-112495645D01*
X138775000Y-112500000D01*
X138550000Y-112725000D01*
X138450000Y-112725000D01*
X138225000Y-112500000D01*
X137875000Y-112495645D01*
X137698569Y-112513022D01*
X137528918Y-112564485D01*
X137372567Y-112648056D01*
X137235524Y-112760524D01*
X137123056Y-112897567D01*
X137039485Y-113053918D01*
X136988022Y-113223569D01*
X136970645Y-113400000D01*
X128629289Y-113400000D01*
X128655024Y-113374265D01*
X128581359Y-113026571D01*
X128253620Y-112845841D01*
X127896920Y-112732523D01*
X127524967Y-112690970D01*
X127152053Y-112722781D01*
X126792511Y-112826732D01*
X126460158Y-112998829D01*
X126418641Y-113026571D01*
X126344976Y-113374265D01*
X124850000Y-113374265D01*
X124850000Y-109966295D01*
X125543888Y-109272408D01*
X125614477Y-109214477D01*
X125672407Y-109143889D01*
X125672411Y-109143885D01*
X125845661Y-108932778D01*
X126017447Y-108611390D01*
X126025981Y-108583257D01*
X126123232Y-108262663D01*
X126150000Y-107990882D01*
X126150000Y-107990879D01*
X126158951Y-107900000D01*
X126150000Y-107809121D01*
X126150000Y-102554796D01*
X126152634Y-102552634D01*
X126302591Y-102369910D01*
X126414019Y-102161442D01*
X126482637Y-101935241D01*
X126483573Y-101925735D01*
X126644976Y-101925735D01*
X126718641Y-102273429D01*
X127046380Y-102454159D01*
X127403080Y-102567477D01*
X127775033Y-102609030D01*
X128147947Y-102577219D01*
X128507489Y-102473268D01*
X128839842Y-102301171D01*
X128881359Y-102273429D01*
X128955024Y-101925735D01*
X127800000Y-100770711D01*
X126644976Y-101925735D01*
X126483573Y-101925735D01*
X126492249Y-101837647D01*
X126574265Y-101855024D01*
X127729289Y-100700000D01*
X127870711Y-100700000D01*
X129025735Y-101855024D01*
X129373429Y-101781359D01*
X129554159Y-101453620D01*
X129667477Y-101096920D01*
X129709030Y-100724967D01*
X129677219Y-100352053D01*
X129573268Y-99992511D01*
X129401171Y-99660158D01*
X129373429Y-99618641D01*
X129025735Y-99544976D01*
X127870711Y-100700000D01*
X127729289Y-100700000D01*
X126574265Y-99544976D01*
X126492249Y-99562353D01*
X126483574Y-99474265D01*
X126644976Y-99474265D01*
X127800000Y-100629289D01*
X128955024Y-99474265D01*
X128881359Y-99126571D01*
X128553620Y-98945841D01*
X128196920Y-98832523D01*
X127824967Y-98790970D01*
X127452053Y-98822781D01*
X127092511Y-98926732D01*
X126760158Y-99098829D01*
X126718641Y-99126571D01*
X126644976Y-99474265D01*
X126483574Y-99474265D01*
X126482637Y-99464759D01*
X126414019Y-99238558D01*
X126302591Y-99030090D01*
X126170000Y-98868527D01*
X126170000Y-91060226D01*
X126190320Y-91070789D01*
X126529142Y-91169333D01*
X126810000Y-90974307D01*
X126810000Y-89450000D01*
X126790000Y-89450000D01*
X126790000Y-89350000D01*
X126810000Y-89350000D01*
X126810000Y-87825693D01*
X126529142Y-87630667D01*
X126190320Y-87729211D01*
X125877233Y-87891963D01*
X125824269Y-87934420D01*
X125658672Y-87768823D01*
X125314723Y-87539004D01*
X124932547Y-87380702D01*
X124526832Y-87300000D01*
X124113168Y-87300000D01*
X123707453Y-87380702D01*
X123325277Y-87539004D01*
X122981328Y-87768823D01*
X122688823Y-88061328D01*
X122459004Y-88405277D01*
X122300702Y-88787453D01*
X122220000Y-89193168D01*
X122220000Y-89606832D01*
X122300702Y-90012547D01*
X122459004Y-90394723D01*
X122470000Y-90411180D01*
X122470001Y-98828790D01*
X122447366Y-98847366D01*
X122297409Y-99030090D01*
X122185981Y-99238558D01*
X122117363Y-99464759D01*
X122094194Y-99700000D01*
X122094194Y-101700000D01*
X122117363Y-101935241D01*
X122185981Y-102161442D01*
X122297409Y-102369910D01*
X122447366Y-102552634D01*
X122450000Y-102554796D01*
X122450001Y-107133704D01*
X121756121Y-107827585D01*
X121685523Y-107885523D01*
X121550541Y-108050000D01*
X121454339Y-108167222D01*
X121406990Y-108255806D01*
X121282553Y-108488611D01*
X121176768Y-108837338D01*
X121152901Y-109079663D01*
X121141049Y-109200000D01*
X121150000Y-109290879D01*
X121150001Y-122449111D01*
X121141049Y-122540000D01*
X121176769Y-122902663D01*
X121282553Y-123251389D01*
X121454339Y-123572778D01*
X121614910Y-123768433D01*
X121685524Y-123854477D01*
X121756117Y-123912411D01*
X123955377Y-126111672D01*
X123393966Y-126000000D01*
X122606034Y-126000000D01*
X121833243Y-126153718D01*
X121105290Y-126455246D01*
X120450149Y-126892997D01*
X119892997Y-127450149D01*
X119455246Y-128105290D01*
X119153718Y-128833243D01*
X119000000Y-129606034D01*
X118275000Y-129606034D01*
X118275000Y-79025735D01*
X124844976Y-79025735D01*
X124918641Y-79373429D01*
X125246380Y-79554159D01*
X125603080Y-79667477D01*
X125975033Y-79709030D01*
X126347947Y-79677219D01*
X126707489Y-79573268D01*
X127039842Y-79401171D01*
X127081359Y-79373429D01*
X127155024Y-79025735D01*
X126000000Y-77870711D01*
X124844976Y-79025735D01*
X118275000Y-79025735D01*
X118275000Y-77775033D01*
X124090970Y-77775033D01*
X124122781Y-78147947D01*
X124226732Y-78507489D01*
X124398829Y-78839842D01*
X124426571Y-78881359D01*
X124774265Y-78955024D01*
X125929289Y-77800000D01*
X124774265Y-76644976D01*
X124426571Y-76718641D01*
X124245841Y-77046380D01*
X124132523Y-77403080D01*
X124090970Y-77775033D01*
X118275000Y-77775033D01*
X118275000Y-76574265D01*
X124844976Y-76574265D01*
X126000000Y-77729289D01*
X127155024Y-76574265D01*
X127081359Y-76226571D01*
X126753620Y-76045841D01*
X126396920Y-75932523D01*
X126024967Y-75890970D01*
X125652053Y-75922781D01*
X125292511Y-76026732D01*
X124960158Y-76198829D01*
X124918641Y-76226571D01*
X124844976Y-76574265D01*
X118275000Y-76574265D01*
X118275000Y-68100000D01*
X122095645Y-68100000D01*
X122113022Y-68276431D01*
X122164485Y-68446082D01*
X122248056Y-68602433D01*
X122360524Y-68739476D01*
X122497567Y-68851944D01*
X122653918Y-68935515D01*
X122823569Y-68986978D01*
X123000000Y-69004355D01*
X124225000Y-69000000D01*
X124450000Y-68775000D01*
X124450000Y-66650000D01*
X122325000Y-66650000D01*
X122100000Y-66875000D01*
X122095645Y-68100000D01*
X118275000Y-68100000D01*
X118275000Y-65100000D01*
X122095645Y-65100000D01*
X122100000Y-66325000D01*
X122325000Y-66550000D01*
X124450000Y-66550000D01*
X124450000Y-64425000D01*
X124550000Y-64425000D01*
X124550000Y-66550000D01*
X124570000Y-66550000D01*
X124570000Y-66650000D01*
X124550000Y-66650000D01*
X124550000Y-68775000D01*
X124775000Y-69000000D01*
X126000000Y-69004355D01*
X126176431Y-68986978D01*
X126346082Y-68935515D01*
X126502433Y-68851944D01*
X126639476Y-68739476D01*
X126751944Y-68602433D01*
X126835515Y-68446082D01*
X126886978Y-68276431D01*
X126904355Y-68100000D01*
X126900331Y-66968138D01*
X126983760Y-67387561D01*
X127187291Y-67878930D01*
X127482773Y-68321150D01*
X127730000Y-68568377D01*
X127730001Y-75879550D01*
X127647366Y-75947366D01*
X127497409Y-76130090D01*
X127385981Y-76338558D01*
X127317363Y-76564759D01*
X127307751Y-76662353D01*
X127225735Y-76644976D01*
X126070711Y-77800000D01*
X127225735Y-78955024D01*
X127307751Y-78937647D01*
X127317363Y-79035241D01*
X127385981Y-79261442D01*
X127497409Y-79469910D01*
X127647366Y-79652634D01*
X127650000Y-79654796D01*
X127650001Y-87645204D01*
X127647366Y-87647366D01*
X127565091Y-87747619D01*
X127529680Y-87729211D01*
X127190858Y-87630667D01*
X126910000Y-87825693D01*
X126910000Y-89350000D01*
X126930000Y-89350000D01*
X126930000Y-89450000D01*
X126910000Y-89450000D01*
X126910000Y-90974307D01*
X127190858Y-91169333D01*
X127529680Y-91070789D01*
X127565091Y-91052381D01*
X127647366Y-91152634D01*
X127830090Y-91302591D01*
X128038558Y-91414019D01*
X128264759Y-91482637D01*
X128500000Y-91505806D01*
X130300000Y-91505806D01*
X130535241Y-91482637D01*
X130761442Y-91414019D01*
X130969910Y-91302591D01*
X131152634Y-91152634D01*
X131302591Y-90969910D01*
X131414019Y-90761442D01*
X131482637Y-90535241D01*
X131505806Y-90300000D01*
X131505806Y-88500000D01*
X131482637Y-88264759D01*
X131414019Y-88038558D01*
X131350000Y-87918786D01*
X131350000Y-79654796D01*
X131352634Y-79652634D01*
X131502591Y-79469910D01*
X131614019Y-79261442D01*
X131682637Y-79035241D01*
X131705806Y-78800000D01*
X131705806Y-76800000D01*
X131682637Y-76564759D01*
X131614019Y-76338558D01*
X131502591Y-76130090D01*
X131430000Y-76041637D01*
X131430000Y-68568377D01*
X131548377Y-68450000D01*
X133289121Y-68450000D01*
X133380000Y-68458951D01*
X133470879Y-68450000D01*
X133470882Y-68450000D01*
X133742663Y-68423232D01*
X134091390Y-68317447D01*
X134412778Y-68145661D01*
X134694477Y-67914477D01*
X134752416Y-67843878D01*
X136158388Y-66437907D01*
X136320000Y-66370964D01*
X136320001Y-75536490D01*
X136311776Y-75620000D01*
X136344599Y-75953258D01*
X136441807Y-76273709D01*
X136599663Y-76569039D01*
X136758868Y-76763031D01*
X136758877Y-76763040D01*
X136812104Y-76827897D01*
X136876961Y-76881124D01*
X147900000Y-87904163D01*
X147900001Y-110416490D01*
X147891776Y-110500000D01*
X147924599Y-110833258D01*
X148021807Y-111153709D01*
X148179663Y-111449039D01*
X148338868Y-111643031D01*
X148338877Y-111643040D01*
X148392104Y-111707897D01*
X148456961Y-111761124D01*
X150338872Y-113643035D01*
X150392103Y-113707897D01*
X150456965Y-113761128D01*
X150456968Y-113761131D01*
X150650960Y-113920337D01*
X150753228Y-113975000D01*
X150946291Y-114078194D01*
X151266742Y-114175402D01*
X151516490Y-114200000D01*
X151516499Y-114200000D01*
X151599999Y-114208224D01*
X151683499Y-114200000D01*
X153283510Y-114200000D01*
X153533258Y-114175402D01*
X153816861Y-114089372D01*
X153880222Y-114083131D01*
X153914485Y-114196082D01*
X153998056Y-114352433D01*
X154110524Y-114489476D01*
X154247567Y-114601944D01*
X154403918Y-114685515D01*
X154573569Y-114736978D01*
X154750000Y-114754355D01*
X154925000Y-114750000D01*
X155150000Y-114525000D01*
X155150000Y-113500000D01*
X155130000Y-113500000D01*
X155130000Y-113400000D01*
X155150000Y-113400000D01*
X155150000Y-113380000D01*
X155250000Y-113380000D01*
X155250000Y-113400000D01*
X156325000Y-113400000D01*
X156475000Y-113250000D01*
X156585339Y-113250000D01*
X156563022Y-113323569D01*
X156545645Y-113500000D01*
X156547687Y-113722687D01*
X156325000Y-113500000D01*
X155250000Y-113500000D01*
X155250000Y-114525000D01*
X155475000Y-114750000D01*
X155650000Y-114754355D01*
X155826431Y-114736978D01*
X155996082Y-114685515D01*
X156152433Y-114601944D01*
X156289476Y-114489476D01*
X156401944Y-114352433D01*
X156485515Y-114196082D01*
X156536978Y-114026431D01*
X156549322Y-113901096D01*
X156550000Y-113975000D01*
X156775000Y-114200000D01*
X158050000Y-114200000D01*
X158050000Y-114180000D01*
X158150000Y-114180000D01*
X158150000Y-114200000D01*
X159425000Y-114200000D01*
X159650000Y-113975000D01*
X159654355Y-113500000D01*
X159636978Y-113323569D01*
X159611628Y-113240000D01*
X163766712Y-113240000D01*
X163643399Y-113537706D01*
X163568000Y-113916760D01*
X163568000Y-114303240D01*
X163643399Y-114682294D01*
X163791298Y-115039355D01*
X164006015Y-115360702D01*
X164025313Y-115380000D01*
X164006015Y-115399298D01*
X163791298Y-115720645D01*
X163643399Y-116077706D01*
X163568000Y-116456760D01*
X163568000Y-116843240D01*
X163643399Y-117222294D01*
X163791298Y-117579355D01*
X164006015Y-117900702D01*
X164025313Y-117920000D01*
X164006015Y-117939298D01*
X163791298Y-118260645D01*
X163643399Y-118617706D01*
X163568000Y-118996760D01*
X163568000Y-119383240D01*
X163643399Y-119762294D01*
X163791298Y-120119355D01*
X164006015Y-120440702D01*
X164025313Y-120460000D01*
X164006015Y-120479298D01*
X163791298Y-120800645D01*
X163643399Y-121157706D01*
X163568000Y-121536760D01*
X163568000Y-121923240D01*
X163643399Y-122302294D01*
X163749260Y-122557865D01*
X163601431Y-122513022D01*
X163425000Y-122495645D01*
X163075000Y-122500000D01*
X162850000Y-122725000D01*
X162850000Y-124100000D01*
X162870000Y-124100000D01*
X162870000Y-124200000D01*
X162850000Y-124200000D01*
X162850000Y-124220000D01*
X162750000Y-124220000D01*
X162750000Y-124200000D01*
X161500000Y-124200000D01*
X161275000Y-124425000D01*
X161270645Y-124900000D01*
X161288022Y-125076431D01*
X161290853Y-125085765D01*
X161172409Y-125230090D01*
X161060981Y-125438558D01*
X160992363Y-125664759D01*
X160969194Y-125900000D01*
X160969194Y-127400000D01*
X160992363Y-127635241D01*
X161060981Y-127861442D01*
X161172409Y-128069910D01*
X161322366Y-128252634D01*
X161505090Y-128402591D01*
X161713558Y-128514019D01*
X161939759Y-128582637D01*
X162175000Y-128605806D01*
X163425000Y-128605806D01*
X163660241Y-128582637D01*
X163886442Y-128514019D01*
X163950087Y-128480000D01*
X164497825Y-128480000D01*
X164600645Y-128548702D01*
X164957706Y-128696601D01*
X165336760Y-128772000D01*
X165723240Y-128772000D01*
X166102294Y-128696601D01*
X166459355Y-128548702D01*
X166780702Y-128333985D01*
X167053985Y-128060702D01*
X167268702Y-127739355D01*
X167416601Y-127382294D01*
X167492000Y-127003240D01*
X167492000Y-126616760D01*
X167416601Y-126237706D01*
X167268702Y-125880645D01*
X167053985Y-125559298D01*
X166780702Y-125286015D01*
X166709802Y-125238641D01*
X166909876Y-125210736D01*
X167066890Y-124923459D01*
X167164843Y-124611071D01*
X167199969Y-124285575D01*
X167170920Y-123959482D01*
X167078811Y-123645321D01*
X166927183Y-123355166D01*
X166909876Y-123329264D01*
X166709802Y-123301359D01*
X166780702Y-123253985D01*
X167053985Y-122980702D01*
X167268702Y-122659355D01*
X167416601Y-122302294D01*
X167492000Y-121923240D01*
X167492000Y-121536760D01*
X167416601Y-121157706D01*
X167268702Y-120800645D01*
X167053985Y-120479298D01*
X167034687Y-120460000D01*
X167053985Y-120440702D01*
X167268702Y-120119355D01*
X167416601Y-119762294D01*
X167492000Y-119383240D01*
X167492000Y-118996760D01*
X167416601Y-118617706D01*
X167268702Y-118260645D01*
X167053985Y-117939298D01*
X167034687Y-117920000D01*
X167053985Y-117900702D01*
X167268702Y-117579355D01*
X167416601Y-117222294D01*
X167492000Y-116843240D01*
X167492000Y-116456760D01*
X167416601Y-116077706D01*
X167268702Y-115720645D01*
X167053985Y-115399298D01*
X167034687Y-115380000D01*
X167053985Y-115360702D01*
X167268702Y-115039355D01*
X167416601Y-114682294D01*
X167492000Y-114303240D01*
X167492000Y-113916760D01*
X167416601Y-113537706D01*
X167268702Y-113180645D01*
X167053985Y-112859298D01*
X167034687Y-112840000D01*
X167053985Y-112820702D01*
X167268702Y-112499355D01*
X167416601Y-112142294D01*
X167492000Y-111763240D01*
X167492000Y-111376760D01*
X167416601Y-110997706D01*
X167268702Y-110640645D01*
X167053985Y-110319298D01*
X167034687Y-110300000D01*
X167053985Y-110280702D01*
X167268702Y-109959355D01*
X167416601Y-109602294D01*
X167492000Y-109223240D01*
X167492000Y-108836760D01*
X167416601Y-108457706D01*
X167268702Y-108100645D01*
X167053985Y-107779298D01*
X166780702Y-107506015D01*
X166709802Y-107458641D01*
X166909876Y-107430736D01*
X167066890Y-107143459D01*
X167164843Y-106831071D01*
X167199969Y-106505575D01*
X167170920Y-106179482D01*
X167078811Y-105865321D01*
X166927183Y-105575166D01*
X166909876Y-105549264D01*
X166709802Y-105521359D01*
X166780702Y-105473985D01*
X167053985Y-105200702D01*
X167268702Y-104879355D01*
X167416601Y-104522294D01*
X167492000Y-104143240D01*
X167492000Y-103756760D01*
X167416601Y-103377706D01*
X167268702Y-103020645D01*
X167053985Y-102699298D01*
X167034687Y-102680000D01*
X167053985Y-102660702D01*
X167268702Y-102339355D01*
X167416601Y-101982294D01*
X167492000Y-101603240D01*
X167492000Y-101216760D01*
X167416601Y-100837706D01*
X167268702Y-100480645D01*
X167053985Y-100159298D01*
X167034687Y-100140000D01*
X167053985Y-100120702D01*
X167268702Y-99799355D01*
X167416601Y-99442294D01*
X167492000Y-99063240D01*
X167492000Y-98676760D01*
X167416601Y-98297706D01*
X167268702Y-97940645D01*
X167053985Y-97619298D01*
X167034687Y-97600000D01*
X167053985Y-97580702D01*
X167268702Y-97259355D01*
X167416601Y-96902294D01*
X167492000Y-96523240D01*
X167492000Y-96136760D01*
X167416601Y-95757706D01*
X167268702Y-95400645D01*
X167053985Y-95079298D01*
X167034687Y-95060000D01*
X167053985Y-95040702D01*
X167268702Y-94719355D01*
X167416601Y-94362294D01*
X167492000Y-93983240D01*
X167492000Y-93596760D01*
X167416601Y-93217706D01*
X167268702Y-92860645D01*
X167053985Y-92539298D01*
X167034687Y-92520000D01*
X167053985Y-92500702D01*
X167268702Y-92179355D01*
X167416601Y-91822294D01*
X167492000Y-91443240D01*
X167492000Y-91056760D01*
X167416601Y-90677706D01*
X167268702Y-90320645D01*
X167053985Y-89999298D01*
X166780702Y-89726015D01*
X166459355Y-89511298D01*
X166102294Y-89363399D01*
X165723240Y-89288000D01*
X165336760Y-89288000D01*
X164957706Y-89363399D01*
X164600645Y-89511298D01*
X164587622Y-89520000D01*
X164376590Y-89520000D01*
X164432637Y-89335241D01*
X164455806Y-89100000D01*
X164455806Y-87600000D01*
X164432637Y-87364759D01*
X164364019Y-87138558D01*
X164289959Y-87000000D01*
X164364019Y-86861442D01*
X164432637Y-86635241D01*
X164455806Y-86400000D01*
X164455806Y-84900000D01*
X164432637Y-84664759D01*
X164364019Y-84438558D01*
X164300000Y-84318786D01*
X164300000Y-84113233D01*
X164319910Y-84102591D01*
X164502634Y-83952634D01*
X164652591Y-83769910D01*
X164750000Y-83587670D01*
X164847409Y-83769910D01*
X164997366Y-83952634D01*
X165180090Y-84102591D01*
X165388558Y-84214019D01*
X165614759Y-84282637D01*
X165850000Y-84305806D01*
X167550000Y-84305806D01*
X167785241Y-84282637D01*
X168011442Y-84214019D01*
X168219910Y-84102591D01*
X168402634Y-83952634D01*
X168552591Y-83769910D01*
X168664019Y-83561442D01*
X168732637Y-83335241D01*
X168755806Y-83100000D01*
X168755806Y-79800000D01*
X168732637Y-79564759D01*
X168664019Y-79338558D01*
X168552591Y-79130090D01*
X168402634Y-78947366D01*
X168219910Y-78797409D01*
X168037670Y-78700000D01*
X168219910Y-78602591D01*
X168402634Y-78452634D01*
X168552591Y-78269910D01*
X168664019Y-78061442D01*
X168732637Y-77835241D01*
X168755806Y-77600000D01*
X168755806Y-74300000D01*
X168732637Y-74064759D01*
X168664019Y-73838558D01*
X168552591Y-73630090D01*
X168402634Y-73447366D01*
X168400000Y-73445204D01*
X168400000Y-71783502D01*
X168408224Y-71700000D01*
X168400000Y-71616498D01*
X168400000Y-71616490D01*
X168375402Y-71366742D01*
X168278194Y-71046291D01*
X168120337Y-70750961D01*
X167961132Y-70556969D01*
X167961128Y-70556965D01*
X167907897Y-70492103D01*
X167843035Y-70438872D01*
X166354038Y-68949875D01*
X166606034Y-69000000D01*
X167393966Y-69000000D01*
X168166757Y-68846282D01*
X168894710Y-68544754D01*
X169549851Y-68107003D01*
X170107003Y-67549851D01*
X170544754Y-66894710D01*
X170846282Y-66166757D01*
X171000000Y-65393966D01*
X171000000Y-64606034D01*
X170846282Y-63833243D01*
X170544754Y-63105290D01*
X170107003Y-62450149D01*
X169549851Y-61892997D01*
X168894710Y-61455246D01*
X168166757Y-61153718D01*
X167393966Y-61000000D01*
X166606034Y-61000000D01*
X165833243Y-61153718D01*
X165105290Y-61455246D01*
X164450149Y-61892997D01*
X163892997Y-62450149D01*
X163455246Y-63105290D01*
X163153718Y-63833243D01*
X163000000Y-64606034D01*
X163000000Y-65393966D01*
X163050125Y-65645962D01*
X160761128Y-63356965D01*
X160707897Y-63292103D01*
X160643035Y-63238872D01*
X160643031Y-63238868D01*
X160449039Y-63079663D01*
X160403661Y-63055408D01*
X160153709Y-62921806D01*
X159833258Y-62824598D01*
X159583510Y-62800000D01*
X159583500Y-62800000D01*
X159500000Y-62791776D01*
X159416500Y-62800000D01*
X155604796Y-62800000D01*
X155602634Y-62797366D01*
X155419910Y-62647409D01*
X155211442Y-62535981D01*
X154985241Y-62467363D01*
X154750000Y-62444194D01*
X153050000Y-62444194D01*
X152814759Y-62467363D01*
X152588558Y-62535981D01*
X152380090Y-62647409D01*
X152333961Y-62685266D01*
X152331039Y-62683314D01*
X151957963Y-62528780D01*
X151561907Y-62450000D01*
X151158093Y-62450000D01*
X150762037Y-62528780D01*
X150388961Y-62683314D01*
X150053201Y-62907661D01*
X149860888Y-63099974D01*
X149807754Y-63055408D01*
X149506949Y-62890464D01*
X149179745Y-62787374D01*
X149143033Y-62780072D01*
X148870000Y-62975820D01*
X148870000Y-64450000D01*
X148890000Y-64450000D01*
X148890000Y-64550000D01*
X148870000Y-64550000D01*
X148870000Y-66024180D01*
X149143033Y-66219928D01*
X149179745Y-66212626D01*
X149506949Y-66109536D01*
X149510000Y-66107863D01*
X149510001Y-66892137D01*
X149506949Y-66890464D01*
X149179745Y-66787374D01*
X149143033Y-66780072D01*
X148870000Y-66975820D01*
X148870000Y-68450000D01*
X148890000Y-68450000D01*
X148890000Y-68550000D01*
X148870000Y-68550000D01*
X148870000Y-70024180D01*
X149143033Y-70219928D01*
X149179745Y-70212626D01*
X149506949Y-70109536D01*
X149510000Y-70107863D01*
X149510001Y-70892137D01*
X149506949Y-70890464D01*
X149179745Y-70787374D01*
X149143033Y-70780072D01*
X148870000Y-70975820D01*
X148870000Y-72450000D01*
X148890000Y-72450000D01*
X148890000Y-72550000D01*
X148870000Y-72550000D01*
X148870000Y-74024180D01*
X149143033Y-74219928D01*
X149179745Y-74212626D01*
X149506949Y-74109536D01*
X149510001Y-74107863D01*
X149510000Y-76906303D01*
X149450000Y-77207942D01*
X149450000Y-77592058D01*
X149524938Y-77968794D01*
X149671933Y-78323671D01*
X149885336Y-78643052D01*
X150156948Y-78914664D01*
X150476329Y-79128067D01*
X150831206Y-79275062D01*
X151207942Y-79350000D01*
X151592058Y-79350000D01*
X151968794Y-79275062D01*
X152323671Y-79128067D01*
X152643052Y-78914664D01*
X152914664Y-78643052D01*
X153128067Y-78323671D01*
X153275062Y-77968794D01*
X153350000Y-77592058D01*
X153350000Y-77207942D01*
X153275062Y-76831206D01*
X153210000Y-76674133D01*
X153210000Y-74555806D01*
X154750000Y-74555806D01*
X154985241Y-74532637D01*
X155211442Y-74464019D01*
X155419910Y-74352591D01*
X155602634Y-74202634D01*
X155604796Y-74200000D01*
X156895837Y-74200000D01*
X157044194Y-74348357D01*
X157044194Y-77600000D01*
X157067363Y-77835241D01*
X157135981Y-78061442D01*
X157247409Y-78269910D01*
X157397366Y-78452634D01*
X157580090Y-78602591D01*
X157762330Y-78700000D01*
X157580090Y-78797409D01*
X157397366Y-78947366D01*
X157247409Y-79130090D01*
X157135981Y-79338558D01*
X157067363Y-79564759D01*
X157044194Y-79800000D01*
X157044194Y-83100000D01*
X157067363Y-83335241D01*
X157135981Y-83561442D01*
X157247409Y-83769910D01*
X157397366Y-83952634D01*
X157580090Y-84102591D01*
X157788558Y-84214019D01*
X158014759Y-84282637D01*
X158250000Y-84305806D01*
X159950000Y-84305806D01*
X160185241Y-84282637D01*
X160411442Y-84214019D01*
X160619910Y-84102591D01*
X160802634Y-83952634D01*
X160900000Y-83833992D01*
X160900000Y-84318786D01*
X160835981Y-84438558D01*
X160767363Y-84664759D01*
X160744194Y-84900000D01*
X160744194Y-86400000D01*
X160767363Y-86635241D01*
X160835981Y-86861442D01*
X160910041Y-87000000D01*
X160835981Y-87138558D01*
X160767363Y-87364759D01*
X160744194Y-87600000D01*
X160744194Y-89100000D01*
X160764675Y-89307951D01*
X160625000Y-89294194D01*
X159375000Y-89294194D01*
X159139759Y-89317363D01*
X158913558Y-89385981D01*
X158705090Y-89497409D01*
X158522366Y-89647366D01*
X158372409Y-89830090D01*
X158260981Y-90038558D01*
X158192363Y-90264759D01*
X158169194Y-90500000D01*
X158169194Y-92000000D01*
X158192363Y-92235241D01*
X158260981Y-92461442D01*
X158372409Y-92669910D01*
X158490853Y-92814235D01*
X158488022Y-92823569D01*
X158470645Y-93000000D01*
X158475000Y-93475000D01*
X158700000Y-93700000D01*
X159950000Y-93700000D01*
X159950000Y-93680000D01*
X160050000Y-93680000D01*
X160050000Y-93700000D01*
X160070000Y-93700000D01*
X160070000Y-93800000D01*
X160050000Y-93800000D01*
X160050000Y-95175000D01*
X160275000Y-95400000D01*
X160625000Y-95404355D01*
X160801431Y-95386978D01*
X160971082Y-95335515D01*
X161127433Y-95251944D01*
X161242953Y-95157140D01*
X161310524Y-95239476D01*
X161447567Y-95351944D01*
X161603918Y-95435515D01*
X161773569Y-95486978D01*
X161950000Y-95504355D01*
X162325000Y-95500000D01*
X162550000Y-95275000D01*
X162550000Y-93900000D01*
X162530000Y-93900000D01*
X162530000Y-93800000D01*
X162550000Y-93800000D01*
X162550000Y-93780000D01*
X162650000Y-93780000D01*
X162650000Y-93800000D01*
X162670000Y-93800000D01*
X162670000Y-93900000D01*
X162650000Y-93900000D01*
X162650000Y-95275000D01*
X162875000Y-95500000D01*
X163250000Y-95504355D01*
X163426431Y-95486978D01*
X163596082Y-95435515D01*
X163752433Y-95351944D01*
X163889476Y-95239476D01*
X163940663Y-95177104D01*
X163791298Y-95400645D01*
X163643399Y-95757706D01*
X163568000Y-96136760D01*
X163568000Y-96523240D01*
X163643399Y-96902294D01*
X163689939Y-97014653D01*
X163596082Y-96964485D01*
X163426431Y-96913022D01*
X163250000Y-96895645D01*
X162875000Y-96900000D01*
X162650000Y-97125000D01*
X162650000Y-98500000D01*
X162670000Y-98500000D01*
X162670000Y-98600000D01*
X162650000Y-98600000D01*
X162650000Y-98620000D01*
X162550000Y-98620000D01*
X162550000Y-98600000D01*
X161275000Y-98600000D01*
X161050000Y-98825000D01*
X161045645Y-99300000D01*
X161063022Y-99476431D01*
X161070172Y-99500000D01*
X160378678Y-99500000D01*
X160400000Y-99283510D01*
X160400000Y-97800000D01*
X161045645Y-97800000D01*
X161050000Y-98275000D01*
X161275000Y-98500000D01*
X162550000Y-98500000D01*
X162550000Y-97125000D01*
X162325000Y-96900000D01*
X161950000Y-96895645D01*
X161773569Y-96913022D01*
X161603918Y-96964485D01*
X161447567Y-97048056D01*
X161310524Y-97160524D01*
X161198056Y-97297567D01*
X161114485Y-97453918D01*
X161063022Y-97623569D01*
X161045645Y-97800000D01*
X160400000Y-97800000D01*
X160400000Y-97083499D01*
X160408224Y-96999999D01*
X160400000Y-96916499D01*
X160400000Y-96916490D01*
X160375402Y-96666742D01*
X160278194Y-96346291D01*
X160120337Y-96050961D01*
X160077518Y-95998786D01*
X159961131Y-95856968D01*
X159961128Y-95856965D01*
X159907897Y-95792103D01*
X159843036Y-95738873D01*
X159506877Y-95402714D01*
X159725000Y-95400000D01*
X159950000Y-95175000D01*
X159950000Y-93800000D01*
X158700000Y-93800000D01*
X158475000Y-94025000D01*
X158471858Y-94367695D01*
X157800000Y-93695837D01*
X157800000Y-88083499D01*
X157808224Y-87999999D01*
X157800000Y-87916499D01*
X157800000Y-87916490D01*
X157775402Y-87666742D01*
X157678194Y-87346291D01*
X157520337Y-87050961D01*
X157472033Y-86992103D01*
X157361131Y-86856968D01*
X157361128Y-86856965D01*
X157307897Y-86792103D01*
X157243036Y-86738873D01*
X144800000Y-74295837D01*
X144800000Y-72823033D01*
X147100071Y-72823033D01*
X147196140Y-73152368D01*
X147354613Y-73456632D01*
X147569400Y-73724133D01*
X147832246Y-73944592D01*
X148133051Y-74109536D01*
X148460255Y-74212626D01*
X148496967Y-74219928D01*
X148770000Y-74024180D01*
X148770000Y-72550000D01*
X147295713Y-72550000D01*
X147100071Y-72823033D01*
X144800000Y-72823033D01*
X144800000Y-72176967D01*
X147100071Y-72176967D01*
X147295713Y-72450000D01*
X148770000Y-72450000D01*
X148770000Y-70975820D01*
X148496967Y-70780072D01*
X148460255Y-70787374D01*
X148133051Y-70890464D01*
X147832246Y-71055408D01*
X147569400Y-71275867D01*
X147354613Y-71543368D01*
X147196140Y-71847632D01*
X147100071Y-72176967D01*
X144800000Y-72176967D01*
X144800000Y-68823033D01*
X147100071Y-68823033D01*
X147196140Y-69152368D01*
X147354613Y-69456632D01*
X147569400Y-69724133D01*
X147832246Y-69944592D01*
X148133051Y-70109536D01*
X148460255Y-70212626D01*
X148496967Y-70219928D01*
X148770000Y-70024180D01*
X148770000Y-68550000D01*
X147295713Y-68550000D01*
X147100071Y-68823033D01*
X144800000Y-68823033D01*
X144800000Y-68176967D01*
X147100071Y-68176967D01*
X147295713Y-68450000D01*
X148770000Y-68450000D01*
X148770000Y-66975820D01*
X148496967Y-66780072D01*
X148460255Y-66787374D01*
X148133051Y-66890464D01*
X147832246Y-67055408D01*
X147569400Y-67275867D01*
X147354613Y-67543368D01*
X147196140Y-67847632D01*
X147100071Y-68176967D01*
X144800000Y-68176967D01*
X144800000Y-66204796D01*
X144802634Y-66202634D01*
X144952591Y-66019910D01*
X145064019Y-65811442D01*
X145132637Y-65585241D01*
X145155806Y-65350000D01*
X145155806Y-64823033D01*
X147100071Y-64823033D01*
X147196140Y-65152368D01*
X147354613Y-65456632D01*
X147569400Y-65724133D01*
X147832246Y-65944592D01*
X148133051Y-66109536D01*
X148460255Y-66212626D01*
X148496967Y-66219928D01*
X148770000Y-66024180D01*
X148770000Y-64550000D01*
X147295713Y-64550000D01*
X147100071Y-64823033D01*
X145155806Y-64823033D01*
X145155806Y-64176967D01*
X147100071Y-64176967D01*
X147295713Y-64450000D01*
X148770000Y-64450000D01*
X148770000Y-62975820D01*
X148496967Y-62780072D01*
X148460255Y-62787374D01*
X148133051Y-62890464D01*
X147832246Y-63055408D01*
X147569400Y-63275867D01*
X147354613Y-63543368D01*
X147196140Y-63847632D01*
X147100071Y-64176967D01*
X145155806Y-64176967D01*
X145155806Y-63650000D01*
X145132637Y-63414759D01*
X145064019Y-63188558D01*
X144952591Y-62980090D01*
X144802634Y-62797366D01*
X144619910Y-62647409D01*
X144411442Y-62535981D01*
X144185241Y-62467363D01*
X143950000Y-62444194D01*
X142250000Y-62444194D01*
X142014759Y-62467363D01*
X141788558Y-62535981D01*
X141580090Y-62647409D01*
X141533961Y-62685266D01*
X141531039Y-62683314D01*
X141157963Y-62528780D01*
X140761907Y-62450000D01*
X140358093Y-62450000D01*
X139962037Y-62528780D01*
X139588961Y-62683314D01*
X139290000Y-62883073D01*
X138991039Y-62683314D01*
X138617963Y-62528780D01*
X138221907Y-62450000D01*
X137818093Y-62450000D01*
X137422037Y-62528780D01*
X137048961Y-62683314D01*
X136750000Y-62883073D01*
X136451039Y-62683314D01*
X136077963Y-62528780D01*
X135681907Y-62450000D01*
X135278093Y-62450000D01*
X134882037Y-62528780D01*
X134508961Y-62683314D01*
X134173201Y-62907661D01*
X133887661Y-63193201D01*
X133663314Y-63528961D01*
X133542093Y-63821612D01*
X132613706Y-64750000D01*
X131548377Y-64750000D01*
X131301150Y-64502773D01*
X130858930Y-64207291D01*
X130367561Y-64003760D01*
X129845927Y-63900000D01*
X129314073Y-63900000D01*
X128792439Y-64003760D01*
X128301070Y-64207291D01*
X127858850Y-64502773D01*
X127482773Y-64878850D01*
X127187291Y-65321070D01*
X126983760Y-65812439D01*
X126900331Y-66231862D01*
X126904355Y-65100000D01*
X126886978Y-64923569D01*
X126835515Y-64753918D01*
X126751944Y-64597567D01*
X126639476Y-64460524D01*
X126502433Y-64348056D01*
X126346082Y-64264485D01*
X126176431Y-64213022D01*
X126000000Y-64195645D01*
X124775000Y-64200000D01*
X124550000Y-64425000D01*
X124450000Y-64425000D01*
X124225000Y-64200000D01*
X123000000Y-64195645D01*
X122823569Y-64213022D01*
X122653918Y-64264485D01*
X122497567Y-64348056D01*
X122360524Y-64460524D01*
X122248056Y-64597567D01*
X122164485Y-64753918D01*
X122113022Y-64923569D01*
X122095645Y-65100000D01*
X118275000Y-65100000D01*
X118275000Y-60275000D01*
X171725000Y-60275000D01*
X171725001Y-134725000D01*
%TA.AperFunction,Conductor*%
D32*
G36*
X171725001Y-134725000D02*
G01*
X118275000Y-134725000D01*
X118275000Y-129606034D01*
X119000000Y-129606034D01*
X119000000Y-130393966D01*
X119153718Y-131166757D01*
X119455246Y-131894710D01*
X119892997Y-132549851D01*
X120450149Y-133107003D01*
X121105290Y-133544754D01*
X121833243Y-133846282D01*
X122606034Y-134000000D01*
X123393966Y-134000000D01*
X124166757Y-133846282D01*
X124894710Y-133544754D01*
X125549851Y-133107003D01*
X126107003Y-132549851D01*
X126544754Y-131894710D01*
X126846282Y-131166757D01*
X127000000Y-130393966D01*
X127000000Y-129606034D01*
X126846282Y-128833243D01*
X126739455Y-128575339D01*
X126897337Y-128623232D01*
X127169118Y-128650000D01*
X127169121Y-128650000D01*
X127260000Y-128658951D01*
X127350879Y-128650000D01*
X129969388Y-128650000D01*
X130262037Y-128771220D01*
X130658093Y-128850000D01*
X131061907Y-128850000D01*
X131457963Y-128771220D01*
X131831039Y-128616686D01*
X131833961Y-128614734D01*
X131880090Y-128652591D01*
X132088558Y-128764019D01*
X132314759Y-128832637D01*
X132550000Y-128855806D01*
X134250000Y-128855806D01*
X134485241Y-128832637D01*
X134711442Y-128764019D01*
X134919910Y-128652591D01*
X135102634Y-128502634D01*
X135145829Y-128450000D01*
X137341007Y-128450000D01*
X137405090Y-128502591D01*
X137613558Y-128614019D01*
X137839759Y-128682637D01*
X138075000Y-128705806D01*
X139325000Y-128705806D01*
X139560241Y-128682637D01*
X139786442Y-128614019D01*
X139981049Y-128510000D01*
X141047723Y-128510000D01*
X141105645Y-128548702D01*
X141462706Y-128696601D01*
X141841760Y-128772000D01*
X142228240Y-128772000D01*
X142607294Y-128696601D01*
X142964355Y-128548702D01*
X143285702Y-128333985D01*
X143558985Y-128060702D01*
X143773702Y-127739355D01*
X143921601Y-127382294D01*
X143997000Y-127003240D01*
X143997000Y-126616760D01*
X143921601Y-126237706D01*
X143773702Y-125880645D01*
X143558985Y-125559298D01*
X143285702Y-125286015D01*
X143214802Y-125238641D01*
X143414876Y-125210736D01*
X143571890Y-124923459D01*
X143669843Y-124611071D01*
X143704969Y-124285575D01*
X143675920Y-123959482D01*
X143583811Y-123645321D01*
X143432183Y-123355166D01*
X143414876Y-123329264D01*
X143214802Y-123301359D01*
X143285702Y-123253985D01*
X143558985Y-122980702D01*
X143773702Y-122659355D01*
X143821069Y-122545000D01*
X145130953Y-122545000D01*
X145130953Y-131645000D01*
X159469048Y-131645000D01*
X159469048Y-123400000D01*
X161270645Y-123400000D01*
X161275000Y-123875000D01*
X161500000Y-124100000D01*
X162750000Y-124100000D01*
X162750000Y-122725000D01*
X162525000Y-122500000D01*
X162175000Y-122495645D01*
X161998569Y-122513022D01*
X161828918Y-122564485D01*
X161672567Y-122648056D01*
X161535524Y-122760524D01*
X161423056Y-122897567D01*
X161339485Y-123053918D01*
X161288022Y-123223569D01*
X161270645Y-123400000D01*
X159469048Y-123400000D01*
X159469048Y-122545000D01*
X145130953Y-122545000D01*
X143821069Y-122545000D01*
X143921601Y-122302294D01*
X143997000Y-121923240D01*
X143997000Y-121536760D01*
X143921601Y-121157706D01*
X143773702Y-120800645D01*
X143558985Y-120479298D01*
X143539687Y-120460000D01*
X143558985Y-120440702D01*
X143773702Y-120119355D01*
X143921601Y-119762294D01*
X143997000Y-119383240D01*
X143997000Y-118996760D01*
X143921601Y-118617706D01*
X143773702Y-118260645D01*
X143558985Y-117939298D01*
X143539687Y-117920000D01*
X143558985Y-117900702D01*
X143773702Y-117579355D01*
X143921601Y-117222294D01*
X143997000Y-116843240D01*
X143997000Y-116456760D01*
X143921601Y-116077706D01*
X143773702Y-115720645D01*
X143558985Y-115399298D01*
X143285702Y-115126015D01*
X143214802Y-115078641D01*
X143414876Y-115050736D01*
X143442606Y-115000000D01*
X156545645Y-115000000D01*
X156563022Y-115176431D01*
X156614485Y-115346082D01*
X156698056Y-115502433D01*
X156810524Y-115639476D01*
X156947567Y-115751944D01*
X157103918Y-115835515D01*
X157273569Y-115886978D01*
X157450000Y-115904355D01*
X157825000Y-115900000D01*
X158050000Y-115675000D01*
X158050000Y-114300000D01*
X158150000Y-114300000D01*
X158150000Y-115675000D01*
X158375000Y-115900000D01*
X158750000Y-115904355D01*
X158926431Y-115886978D01*
X159096082Y-115835515D01*
X159252433Y-115751944D01*
X159389476Y-115639476D01*
X159501944Y-115502433D01*
X159585515Y-115346082D01*
X159636978Y-115176431D01*
X159654355Y-115000000D01*
X159650000Y-114525000D01*
X159425000Y-114300000D01*
X158150000Y-114300000D01*
X158050000Y-114300000D01*
X156775000Y-114300000D01*
X156550000Y-114525000D01*
X156545645Y-115000000D01*
X143442606Y-115000000D01*
X143571890Y-114763459D01*
X143669843Y-114451071D01*
X143704969Y-114125575D01*
X143675920Y-113799482D01*
X143583811Y-113485321D01*
X143432183Y-113195166D01*
X143414876Y-113169264D01*
X143214802Y-113141359D01*
X143285702Y-113093985D01*
X143558985Y-112820702D01*
X143773702Y-112499355D01*
X143921601Y-112142294D01*
X143997000Y-111763240D01*
X143997000Y-111376760D01*
X143921601Y-110997706D01*
X143773702Y-110640645D01*
X143558985Y-110319298D01*
X143539687Y-110300000D01*
X143558985Y-110280702D01*
X143773702Y-109959355D01*
X143921601Y-109602294D01*
X143997000Y-109223240D01*
X143997000Y-108836760D01*
X143921601Y-108457706D01*
X143773702Y-108100645D01*
X143558985Y-107779298D01*
X143539687Y-107760000D01*
X143558985Y-107740702D01*
X143773702Y-107419355D01*
X143921601Y-107062294D01*
X143997000Y-106683240D01*
X143997000Y-106296760D01*
X143921601Y-105917706D01*
X143773702Y-105560645D01*
X143558985Y-105239298D01*
X143539687Y-105220000D01*
X143558985Y-105200702D01*
X143773702Y-104879355D01*
X143921601Y-104522294D01*
X143997000Y-104143240D01*
X143997000Y-103756760D01*
X143921601Y-103377706D01*
X143773702Y-103020645D01*
X143558985Y-102699298D01*
X143539687Y-102680000D01*
X143558985Y-102660702D01*
X143773702Y-102339355D01*
X143921601Y-101982294D01*
X143997000Y-101603240D01*
X143997000Y-101216760D01*
X143921601Y-100837706D01*
X143773702Y-100480645D01*
X143558985Y-100159298D01*
X143539687Y-100140000D01*
X143558985Y-100120702D01*
X143773702Y-99799355D01*
X143921601Y-99442294D01*
X143997000Y-99063240D01*
X143997000Y-98676760D01*
X143921601Y-98297706D01*
X143773702Y-97940645D01*
X143558985Y-97619298D01*
X143539687Y-97600000D01*
X143558985Y-97580702D01*
X143773702Y-97259355D01*
X143921601Y-96902294D01*
X143997000Y-96523240D01*
X143997000Y-96136760D01*
X143921601Y-95757706D01*
X143773702Y-95400645D01*
X143558985Y-95079298D01*
X143539687Y-95060000D01*
X143558985Y-95040702D01*
X143773702Y-94719355D01*
X143921601Y-94362294D01*
X143997000Y-93983240D01*
X143997000Y-93596760D01*
X143921601Y-93217706D01*
X143773702Y-92860645D01*
X143558985Y-92539298D01*
X143539687Y-92520000D01*
X143558985Y-92500702D01*
X143773702Y-92179355D01*
X143921601Y-91822294D01*
X143997000Y-91443240D01*
X143997000Y-91056760D01*
X143921601Y-90677706D01*
X143773702Y-90320645D01*
X143558985Y-89999298D01*
X143285702Y-89726015D01*
X142964355Y-89511298D01*
X142607294Y-89363399D01*
X142228240Y-89288000D01*
X141841760Y-89288000D01*
X141462706Y-89363399D01*
X141105645Y-89511298D01*
X140784298Y-89726015D01*
X140511015Y-89999298D01*
X140296298Y-90320645D01*
X140148399Y-90677706D01*
X140073000Y-91056760D01*
X140073000Y-91443240D01*
X140148399Y-91822294D01*
X140296298Y-92179355D01*
X140511015Y-92500702D01*
X140530313Y-92520000D01*
X140511015Y-92539298D01*
X140296298Y-92860645D01*
X140148399Y-93217706D01*
X140073000Y-93596760D01*
X140073000Y-93983240D01*
X140148399Y-94362294D01*
X140296298Y-94719355D01*
X140511015Y-95040702D01*
X140530313Y-95060000D01*
X140511015Y-95079298D01*
X140296298Y-95400645D01*
X140148399Y-95757706D01*
X140073000Y-96136760D01*
X140073000Y-96523240D01*
X140148399Y-96902294D01*
X140296298Y-97259355D01*
X140511015Y-97580702D01*
X140530313Y-97600000D01*
X140511015Y-97619298D01*
X140296298Y-97940645D01*
X140148399Y-98297706D01*
X140073000Y-98676760D01*
X140073000Y-99063240D01*
X140148399Y-99442294D01*
X140296298Y-99799355D01*
X140511015Y-100120702D01*
X140530313Y-100140000D01*
X140511015Y-100159298D01*
X140296298Y-100480645D01*
X140148399Y-100837706D01*
X140073000Y-101216760D01*
X140073000Y-101603240D01*
X140148399Y-101982294D01*
X140296298Y-102339355D01*
X140511015Y-102660702D01*
X140530313Y-102680000D01*
X140511015Y-102699298D01*
X140296298Y-103020645D01*
X140148399Y-103377706D01*
X140073000Y-103756760D01*
X140073000Y-104143240D01*
X140148399Y-104522294D01*
X140296298Y-104879355D01*
X140511015Y-105200702D01*
X140530313Y-105220000D01*
X140511015Y-105239298D01*
X140296298Y-105560645D01*
X140148399Y-105917706D01*
X140073000Y-106296760D01*
X140073000Y-106683240D01*
X140148399Y-107062294D01*
X140296298Y-107419355D01*
X140511015Y-107740702D01*
X140530313Y-107760000D01*
X140511015Y-107779298D01*
X140296298Y-108100645D01*
X140148399Y-108457706D01*
X140073000Y-108836760D01*
X140073000Y-109223240D01*
X140148399Y-109602294D01*
X140296298Y-109959355D01*
X140511015Y-110280702D01*
X140530313Y-110300000D01*
X140511015Y-110319298D01*
X140296298Y-110640645D01*
X140148399Y-110997706D01*
X140073000Y-111376760D01*
X140073000Y-111763240D01*
X140148399Y-112142294D01*
X140296298Y-112499355D01*
X140511015Y-112820702D01*
X140784298Y-113093985D01*
X140855198Y-113141359D01*
X140655124Y-113169264D01*
X140498110Y-113456541D01*
X140400157Y-113768929D01*
X140365031Y-114094425D01*
X140394080Y-114420518D01*
X140486189Y-114734679D01*
X140598711Y-114950000D01*
X140024430Y-114950000D01*
X140029355Y-114900000D01*
X140025000Y-114425000D01*
X139800000Y-114200000D01*
X138550000Y-114200000D01*
X138550000Y-114220000D01*
X138450000Y-114220000D01*
X138450000Y-114200000D01*
X137200000Y-114200000D01*
X136975000Y-114425000D01*
X136970645Y-114900000D01*
X136988022Y-115076431D01*
X136990853Y-115085765D01*
X136872409Y-115230090D01*
X136760981Y-115438558D01*
X136692363Y-115664759D01*
X136669194Y-115900000D01*
X136669194Y-117400000D01*
X136678058Y-117490000D01*
X129705806Y-117490000D01*
X129705806Y-117100000D01*
X129682637Y-116864759D01*
X129614019Y-116638558D01*
X129502591Y-116430090D01*
X129352634Y-116247366D01*
X129169910Y-116097409D01*
X128961442Y-115985981D01*
X128735241Y-115917363D01*
X128637647Y-115907751D01*
X128655024Y-115825735D01*
X127500000Y-114670711D01*
X126344976Y-115825735D01*
X126362353Y-115907751D01*
X126264759Y-115917363D01*
X126038558Y-115985981D01*
X125830090Y-116097409D01*
X125647366Y-116247366D01*
X125497409Y-116430090D01*
X125385981Y-116638558D01*
X125317363Y-116864759D01*
X125294194Y-117100000D01*
X125294194Y-119100000D01*
X125317363Y-119335241D01*
X125385981Y-119561442D01*
X125497409Y-119769910D01*
X125647366Y-119952634D01*
X125830090Y-120102591D01*
X126038558Y-120214019D01*
X126264759Y-120282637D01*
X126500000Y-120305806D01*
X127301644Y-120305806D01*
X127328868Y-120333030D01*
X127382103Y-120397897D01*
X127640961Y-120610337D01*
X127936291Y-120768194D01*
X128256742Y-120865402D01*
X128506490Y-120890000D01*
X128506500Y-120890000D01*
X128590000Y-120898224D01*
X128673500Y-120890000D01*
X140259286Y-120890000D01*
X140148399Y-121157706D01*
X140073000Y-121536760D01*
X140073000Y-121923240D01*
X140148399Y-122302294D01*
X140296298Y-122659355D01*
X140511015Y-122980702D01*
X140784298Y-123253985D01*
X140855198Y-123301359D01*
X140655124Y-123329264D01*
X140498110Y-123616541D01*
X140400157Y-123928929D01*
X140365031Y-124254425D01*
X140394080Y-124580518D01*
X140486189Y-124894679D01*
X140598711Y-125110000D01*
X140218521Y-125110000D01*
X140229355Y-125000000D01*
X140225000Y-124525000D01*
X140000000Y-124300000D01*
X138750000Y-124300000D01*
X138750000Y-124320000D01*
X138650000Y-124320000D01*
X138650000Y-124300000D01*
X137400000Y-124300000D01*
X137175000Y-124525000D01*
X137170645Y-125000000D01*
X137175570Y-125050000D01*
X135044918Y-125050000D01*
X134919910Y-124947409D01*
X134711442Y-124835981D01*
X134485241Y-124767363D01*
X134250000Y-124744194D01*
X132550000Y-124744194D01*
X132314759Y-124767363D01*
X132088558Y-124835981D01*
X131880090Y-124947409D01*
X131833961Y-124985266D01*
X131831039Y-124983314D01*
X131457963Y-124828780D01*
X131061907Y-124750000D01*
X130658093Y-124750000D01*
X130262037Y-124828780D01*
X129969388Y-124950000D01*
X128026295Y-124950000D01*
X126576295Y-123500000D01*
X137170645Y-123500000D01*
X137175000Y-123975000D01*
X137400000Y-124200000D01*
X138650000Y-124200000D01*
X138650000Y-122825000D01*
X138750000Y-122825000D01*
X138750000Y-124200000D01*
X140000000Y-124200000D01*
X140225000Y-123975000D01*
X140229355Y-123500000D01*
X140211978Y-123323569D01*
X140160515Y-123153918D01*
X140076944Y-122997567D01*
X139964476Y-122860524D01*
X139827433Y-122748056D01*
X139671082Y-122664485D01*
X139501431Y-122613022D01*
X139325000Y-122595645D01*
X138975000Y-122600000D01*
X138750000Y-122825000D01*
X138650000Y-122825000D01*
X138425000Y-122600000D01*
X138075000Y-122595645D01*
X137898569Y-122613022D01*
X137728918Y-122664485D01*
X137572567Y-122748056D01*
X137435524Y-122860524D01*
X137323056Y-122997567D01*
X137239485Y-123153918D01*
X137188022Y-123323569D01*
X137170645Y-123500000D01*
X126576295Y-123500000D01*
X124850000Y-121773706D01*
X124850000Y-114575033D01*
X125590970Y-114575033D01*
X125622781Y-114947947D01*
X125726732Y-115307489D01*
X125898829Y-115639842D01*
X125926571Y-115681359D01*
X126274265Y-115755024D01*
X127429289Y-114600000D01*
X127570711Y-114600000D01*
X128725735Y-115755024D01*
X129073429Y-115681359D01*
X129254159Y-115353620D01*
X129367477Y-114996920D01*
X129409030Y-114624967D01*
X129377219Y-114252053D01*
X129273268Y-113892511D01*
X129101171Y-113560158D01*
X129073429Y-113518641D01*
X128725735Y-113444976D01*
X127570711Y-114600000D01*
X127429289Y-114600000D01*
X126274265Y-113444976D01*
X125926571Y-113518641D01*
X125745841Y-113846380D01*
X125632523Y-114203080D01*
X125590970Y-114575033D01*
X124850000Y-114575033D01*
X124850000Y-113374265D01*
X126344976Y-113374265D01*
X127500000Y-114529289D01*
X128629289Y-113400000D01*
X136970645Y-113400000D01*
X136975000Y-113875000D01*
X137200000Y-114100000D01*
X138450000Y-114100000D01*
X138450000Y-112725000D01*
X138550000Y-112725000D01*
X138550000Y-114100000D01*
X139800000Y-114100000D01*
X140025000Y-113875000D01*
X140029355Y-113400000D01*
X140011978Y-113223569D01*
X139960515Y-113053918D01*
X139876944Y-112897567D01*
X139764476Y-112760524D01*
X139627433Y-112648056D01*
X139471082Y-112564485D01*
X139301431Y-112513022D01*
X139125000Y-112495645D01*
X138775000Y-112500000D01*
X138550000Y-112725000D01*
X138450000Y-112725000D01*
X138225000Y-112500000D01*
X137875000Y-112495645D01*
X137698569Y-112513022D01*
X137528918Y-112564485D01*
X137372567Y-112648056D01*
X137235524Y-112760524D01*
X137123056Y-112897567D01*
X137039485Y-113053918D01*
X136988022Y-113223569D01*
X136970645Y-113400000D01*
X128629289Y-113400000D01*
X128655024Y-113374265D01*
X128581359Y-113026571D01*
X128253620Y-112845841D01*
X127896920Y-112732523D01*
X127524967Y-112690970D01*
X127152053Y-112722781D01*
X126792511Y-112826732D01*
X126460158Y-112998829D01*
X126418641Y-113026571D01*
X126344976Y-113374265D01*
X124850000Y-113374265D01*
X124850000Y-109966295D01*
X125543888Y-109272408D01*
X125614477Y-109214477D01*
X125672407Y-109143889D01*
X125672411Y-109143885D01*
X125845661Y-108932778D01*
X126017447Y-108611390D01*
X126025981Y-108583257D01*
X126123232Y-108262663D01*
X126150000Y-107990882D01*
X126150000Y-107990879D01*
X126158951Y-107900000D01*
X126150000Y-107809121D01*
X126150000Y-102554796D01*
X126152634Y-102552634D01*
X126302591Y-102369910D01*
X126414019Y-102161442D01*
X126482637Y-101935241D01*
X126483573Y-101925735D01*
X126644976Y-101925735D01*
X126718641Y-102273429D01*
X127046380Y-102454159D01*
X127403080Y-102567477D01*
X127775033Y-102609030D01*
X128147947Y-102577219D01*
X128507489Y-102473268D01*
X128839842Y-102301171D01*
X128881359Y-102273429D01*
X128955024Y-101925735D01*
X127800000Y-100770711D01*
X126644976Y-101925735D01*
X126483573Y-101925735D01*
X126492249Y-101837647D01*
X126574265Y-101855024D01*
X127729289Y-100700000D01*
X127870711Y-100700000D01*
X129025735Y-101855024D01*
X129373429Y-101781359D01*
X129554159Y-101453620D01*
X129667477Y-101096920D01*
X129709030Y-100724967D01*
X129677219Y-100352053D01*
X129573268Y-99992511D01*
X129401171Y-99660158D01*
X129373429Y-99618641D01*
X129025735Y-99544976D01*
X127870711Y-100700000D01*
X127729289Y-100700000D01*
X126574265Y-99544976D01*
X126492249Y-99562353D01*
X126483574Y-99474265D01*
X126644976Y-99474265D01*
X127800000Y-100629289D01*
X128955024Y-99474265D01*
X128881359Y-99126571D01*
X128553620Y-98945841D01*
X128196920Y-98832523D01*
X127824967Y-98790970D01*
X127452053Y-98822781D01*
X127092511Y-98926732D01*
X126760158Y-99098829D01*
X126718641Y-99126571D01*
X126644976Y-99474265D01*
X126483574Y-99474265D01*
X126482637Y-99464759D01*
X126414019Y-99238558D01*
X126302591Y-99030090D01*
X126170000Y-98868527D01*
X126170000Y-91060226D01*
X126190320Y-91070789D01*
X126529142Y-91169333D01*
X126810000Y-90974307D01*
X126810000Y-89450000D01*
X126790000Y-89450000D01*
X126790000Y-89350000D01*
X126810000Y-89350000D01*
X126810000Y-87825693D01*
X126529142Y-87630667D01*
X126190320Y-87729211D01*
X125877233Y-87891963D01*
X125824269Y-87934420D01*
X125658672Y-87768823D01*
X125314723Y-87539004D01*
X124932547Y-87380702D01*
X124526832Y-87300000D01*
X124113168Y-87300000D01*
X123707453Y-87380702D01*
X123325277Y-87539004D01*
X122981328Y-87768823D01*
X122688823Y-88061328D01*
X122459004Y-88405277D01*
X122300702Y-88787453D01*
X122220000Y-89193168D01*
X122220000Y-89606832D01*
X122300702Y-90012547D01*
X122459004Y-90394723D01*
X122470000Y-90411180D01*
X122470001Y-98828790D01*
X122447366Y-98847366D01*
X122297409Y-99030090D01*
X122185981Y-99238558D01*
X122117363Y-99464759D01*
X122094194Y-99700000D01*
X122094194Y-101700000D01*
X122117363Y-101935241D01*
X122185981Y-102161442D01*
X122297409Y-102369910D01*
X122447366Y-102552634D01*
X122450000Y-102554796D01*
X122450001Y-107133704D01*
X121756121Y-107827585D01*
X121685523Y-107885523D01*
X121550541Y-108050000D01*
X121454339Y-108167222D01*
X121406990Y-108255806D01*
X121282553Y-108488611D01*
X121176768Y-108837338D01*
X121152901Y-109079663D01*
X121141049Y-109200000D01*
X121150000Y-109290879D01*
X121150001Y-122449111D01*
X121141049Y-122540000D01*
X121176769Y-122902663D01*
X121282553Y-123251389D01*
X121454339Y-123572778D01*
X121614910Y-123768433D01*
X121685524Y-123854477D01*
X121756117Y-123912411D01*
X123955377Y-126111672D01*
X123393966Y-126000000D01*
X122606034Y-126000000D01*
X121833243Y-126153718D01*
X121105290Y-126455246D01*
X120450149Y-126892997D01*
X119892997Y-127450149D01*
X119455246Y-128105290D01*
X119153718Y-128833243D01*
X119000000Y-129606034D01*
X118275000Y-129606034D01*
X118275000Y-79025735D01*
X124844976Y-79025735D01*
X124918641Y-79373429D01*
X125246380Y-79554159D01*
X125603080Y-79667477D01*
X125975033Y-79709030D01*
X126347947Y-79677219D01*
X126707489Y-79573268D01*
X127039842Y-79401171D01*
X127081359Y-79373429D01*
X127155024Y-79025735D01*
X126000000Y-77870711D01*
X124844976Y-79025735D01*
X118275000Y-79025735D01*
X118275000Y-77775033D01*
X124090970Y-77775033D01*
X124122781Y-78147947D01*
X124226732Y-78507489D01*
X124398829Y-78839842D01*
X124426571Y-78881359D01*
X124774265Y-78955024D01*
X125929289Y-77800000D01*
X124774265Y-76644976D01*
X124426571Y-76718641D01*
X124245841Y-77046380D01*
X124132523Y-77403080D01*
X124090970Y-77775033D01*
X118275000Y-77775033D01*
X118275000Y-76574265D01*
X124844976Y-76574265D01*
X126000000Y-77729289D01*
X127155024Y-76574265D01*
X127081359Y-76226571D01*
X126753620Y-76045841D01*
X126396920Y-75932523D01*
X126024967Y-75890970D01*
X125652053Y-75922781D01*
X125292511Y-76026732D01*
X124960158Y-76198829D01*
X124918641Y-76226571D01*
X124844976Y-76574265D01*
X118275000Y-76574265D01*
X118275000Y-68100000D01*
X122095645Y-68100000D01*
X122113022Y-68276431D01*
X122164485Y-68446082D01*
X122248056Y-68602433D01*
X122360524Y-68739476D01*
X122497567Y-68851944D01*
X122653918Y-68935515D01*
X122823569Y-68986978D01*
X123000000Y-69004355D01*
X124225000Y-69000000D01*
X124450000Y-68775000D01*
X124450000Y-66650000D01*
X122325000Y-66650000D01*
X122100000Y-66875000D01*
X122095645Y-68100000D01*
X118275000Y-68100000D01*
X118275000Y-65100000D01*
X122095645Y-65100000D01*
X122100000Y-66325000D01*
X122325000Y-66550000D01*
X124450000Y-66550000D01*
X124450000Y-64425000D01*
X124550000Y-64425000D01*
X124550000Y-66550000D01*
X124570000Y-66550000D01*
X124570000Y-66650000D01*
X124550000Y-66650000D01*
X124550000Y-68775000D01*
X124775000Y-69000000D01*
X126000000Y-69004355D01*
X126176431Y-68986978D01*
X126346082Y-68935515D01*
X126502433Y-68851944D01*
X126639476Y-68739476D01*
X126751944Y-68602433D01*
X126835515Y-68446082D01*
X126886978Y-68276431D01*
X126904355Y-68100000D01*
X126900331Y-66968138D01*
X126983760Y-67387561D01*
X127187291Y-67878930D01*
X127482773Y-68321150D01*
X127730000Y-68568377D01*
X127730001Y-75879550D01*
X127647366Y-75947366D01*
X127497409Y-76130090D01*
X127385981Y-76338558D01*
X127317363Y-76564759D01*
X127307751Y-76662353D01*
X127225735Y-76644976D01*
X126070711Y-77800000D01*
X127225735Y-78955024D01*
X127307751Y-78937647D01*
X127317363Y-79035241D01*
X127385981Y-79261442D01*
X127497409Y-79469910D01*
X127647366Y-79652634D01*
X127650000Y-79654796D01*
X127650001Y-87645204D01*
X127647366Y-87647366D01*
X127565091Y-87747619D01*
X127529680Y-87729211D01*
X127190858Y-87630667D01*
X126910000Y-87825693D01*
X126910000Y-89350000D01*
X126930000Y-89350000D01*
X126930000Y-89450000D01*
X126910000Y-89450000D01*
X126910000Y-90974307D01*
X127190858Y-91169333D01*
X127529680Y-91070789D01*
X127565091Y-91052381D01*
X127647366Y-91152634D01*
X127830090Y-91302591D01*
X128038558Y-91414019D01*
X128264759Y-91482637D01*
X128500000Y-91505806D01*
X130300000Y-91505806D01*
X130535241Y-91482637D01*
X130761442Y-91414019D01*
X130969910Y-91302591D01*
X131152634Y-91152634D01*
X131302591Y-90969910D01*
X131414019Y-90761442D01*
X131482637Y-90535241D01*
X131505806Y-90300000D01*
X131505806Y-88500000D01*
X131482637Y-88264759D01*
X131414019Y-88038558D01*
X131350000Y-87918786D01*
X131350000Y-79654796D01*
X131352634Y-79652634D01*
X131502591Y-79469910D01*
X131614019Y-79261442D01*
X131682637Y-79035241D01*
X131705806Y-78800000D01*
X131705806Y-76800000D01*
X131682637Y-76564759D01*
X131614019Y-76338558D01*
X131502591Y-76130090D01*
X131430000Y-76041637D01*
X131430000Y-68568377D01*
X131548377Y-68450000D01*
X133289121Y-68450000D01*
X133380000Y-68458951D01*
X133470879Y-68450000D01*
X133470882Y-68450000D01*
X133742663Y-68423232D01*
X134091390Y-68317447D01*
X134412778Y-68145661D01*
X134694477Y-67914477D01*
X134752416Y-67843878D01*
X136158388Y-66437907D01*
X136320000Y-66370964D01*
X136320001Y-75536490D01*
X136311776Y-75620000D01*
X136344599Y-75953258D01*
X136441807Y-76273709D01*
X136599663Y-76569039D01*
X136758868Y-76763031D01*
X136758877Y-76763040D01*
X136812104Y-76827897D01*
X136876961Y-76881124D01*
X147900000Y-87904163D01*
X147900001Y-110416490D01*
X147891776Y-110500000D01*
X147924599Y-110833258D01*
X148021807Y-111153709D01*
X148179663Y-111449039D01*
X148338868Y-111643031D01*
X148338877Y-111643040D01*
X148392104Y-111707897D01*
X148456961Y-111761124D01*
X150338872Y-113643035D01*
X150392103Y-113707897D01*
X150456965Y-113761128D01*
X150456968Y-113761131D01*
X150650960Y-113920337D01*
X150753228Y-113975000D01*
X150946291Y-114078194D01*
X151266742Y-114175402D01*
X151516490Y-114200000D01*
X151516499Y-114200000D01*
X151599999Y-114208224D01*
X151683499Y-114200000D01*
X153283510Y-114200000D01*
X153533258Y-114175402D01*
X153816861Y-114089372D01*
X153880222Y-114083131D01*
X153914485Y-114196082D01*
X153998056Y-114352433D01*
X154110524Y-114489476D01*
X154247567Y-114601944D01*
X154403918Y-114685515D01*
X154573569Y-114736978D01*
X154750000Y-114754355D01*
X154925000Y-114750000D01*
X155150000Y-114525000D01*
X155150000Y-113500000D01*
X155130000Y-113500000D01*
X155130000Y-113400000D01*
X155150000Y-113400000D01*
X155150000Y-113380000D01*
X155250000Y-113380000D01*
X155250000Y-113400000D01*
X156325000Y-113400000D01*
X156475000Y-113250000D01*
X156585339Y-113250000D01*
X156563022Y-113323569D01*
X156545645Y-113500000D01*
X156547687Y-113722687D01*
X156325000Y-113500000D01*
X155250000Y-113500000D01*
X155250000Y-114525000D01*
X155475000Y-114750000D01*
X155650000Y-114754355D01*
X155826431Y-114736978D01*
X155996082Y-114685515D01*
X156152433Y-114601944D01*
X156289476Y-114489476D01*
X156401944Y-114352433D01*
X156485515Y-114196082D01*
X156536978Y-114026431D01*
X156549322Y-113901096D01*
X156550000Y-113975000D01*
X156775000Y-114200000D01*
X158050000Y-114200000D01*
X158050000Y-114180000D01*
X158150000Y-114180000D01*
X158150000Y-114200000D01*
X159425000Y-114200000D01*
X159650000Y-113975000D01*
X159654355Y-113500000D01*
X159636978Y-113323569D01*
X159611628Y-113240000D01*
X163766712Y-113240000D01*
X163643399Y-113537706D01*
X163568000Y-113916760D01*
X163568000Y-114303240D01*
X163643399Y-114682294D01*
X163791298Y-115039355D01*
X164006015Y-115360702D01*
X164025313Y-115380000D01*
X164006015Y-115399298D01*
X163791298Y-115720645D01*
X163643399Y-116077706D01*
X163568000Y-116456760D01*
X163568000Y-116843240D01*
X163643399Y-117222294D01*
X163791298Y-117579355D01*
X164006015Y-117900702D01*
X164025313Y-117920000D01*
X164006015Y-117939298D01*
X163791298Y-118260645D01*
X163643399Y-118617706D01*
X163568000Y-118996760D01*
X163568000Y-119383240D01*
X163643399Y-119762294D01*
X163791298Y-120119355D01*
X164006015Y-120440702D01*
X164025313Y-120460000D01*
X164006015Y-120479298D01*
X163791298Y-120800645D01*
X163643399Y-121157706D01*
X163568000Y-121536760D01*
X163568000Y-121923240D01*
X163643399Y-122302294D01*
X163749260Y-122557865D01*
X163601431Y-122513022D01*
X163425000Y-122495645D01*
X163075000Y-122500000D01*
X162850000Y-122725000D01*
X162850000Y-124100000D01*
X162870000Y-124100000D01*
X162870000Y-124200000D01*
X162850000Y-124200000D01*
X162850000Y-124220000D01*
X162750000Y-124220000D01*
X162750000Y-124200000D01*
X161500000Y-124200000D01*
X161275000Y-124425000D01*
X161270645Y-124900000D01*
X161288022Y-125076431D01*
X161290853Y-125085765D01*
X161172409Y-125230090D01*
X161060981Y-125438558D01*
X160992363Y-125664759D01*
X160969194Y-125900000D01*
X160969194Y-127400000D01*
X160992363Y-127635241D01*
X161060981Y-127861442D01*
X161172409Y-128069910D01*
X161322366Y-128252634D01*
X161505090Y-128402591D01*
X161713558Y-128514019D01*
X161939759Y-128582637D01*
X162175000Y-128605806D01*
X163425000Y-128605806D01*
X163660241Y-128582637D01*
X163886442Y-128514019D01*
X163950087Y-128480000D01*
X164497825Y-128480000D01*
X164600645Y-128548702D01*
X164957706Y-128696601D01*
X165336760Y-128772000D01*
X165723240Y-128772000D01*
X166102294Y-128696601D01*
X166459355Y-128548702D01*
X166780702Y-128333985D01*
X167053985Y-128060702D01*
X167268702Y-127739355D01*
X167416601Y-127382294D01*
X167492000Y-127003240D01*
X167492000Y-126616760D01*
X167416601Y-126237706D01*
X167268702Y-125880645D01*
X167053985Y-125559298D01*
X166780702Y-125286015D01*
X166709802Y-125238641D01*
X166909876Y-125210736D01*
X167066890Y-124923459D01*
X167164843Y-124611071D01*
X167199969Y-124285575D01*
X167170920Y-123959482D01*
X167078811Y-123645321D01*
X166927183Y-123355166D01*
X166909876Y-123329264D01*
X166709802Y-123301359D01*
X166780702Y-123253985D01*
X167053985Y-122980702D01*
X167268702Y-122659355D01*
X167416601Y-122302294D01*
X167492000Y-121923240D01*
X167492000Y-121536760D01*
X167416601Y-121157706D01*
X167268702Y-120800645D01*
X167053985Y-120479298D01*
X167034687Y-120460000D01*
X167053985Y-120440702D01*
X167268702Y-120119355D01*
X167416601Y-119762294D01*
X167492000Y-119383240D01*
X167492000Y-118996760D01*
X167416601Y-118617706D01*
X167268702Y-118260645D01*
X167053985Y-117939298D01*
X167034687Y-117920000D01*
X167053985Y-117900702D01*
X167268702Y-117579355D01*
X167416601Y-117222294D01*
X167492000Y-116843240D01*
X167492000Y-116456760D01*
X167416601Y-116077706D01*
X167268702Y-115720645D01*
X167053985Y-115399298D01*
X167034687Y-115380000D01*
X167053985Y-115360702D01*
X167268702Y-115039355D01*
X167416601Y-114682294D01*
X167492000Y-114303240D01*
X167492000Y-113916760D01*
X167416601Y-113537706D01*
X167268702Y-113180645D01*
X167053985Y-112859298D01*
X167034687Y-112840000D01*
X167053985Y-112820702D01*
X167268702Y-112499355D01*
X167416601Y-112142294D01*
X167492000Y-111763240D01*
X167492000Y-111376760D01*
X167416601Y-110997706D01*
X167268702Y-110640645D01*
X167053985Y-110319298D01*
X167034687Y-110300000D01*
X167053985Y-110280702D01*
X167268702Y-109959355D01*
X167416601Y-109602294D01*
X167492000Y-109223240D01*
X167492000Y-108836760D01*
X167416601Y-108457706D01*
X167268702Y-108100645D01*
X167053985Y-107779298D01*
X166780702Y-107506015D01*
X166709802Y-107458641D01*
X166909876Y-107430736D01*
X167066890Y-107143459D01*
X167164843Y-106831071D01*
X167199969Y-106505575D01*
X167170920Y-106179482D01*
X167078811Y-105865321D01*
X166927183Y-105575166D01*
X166909876Y-105549264D01*
X166709802Y-105521359D01*
X166780702Y-105473985D01*
X167053985Y-105200702D01*
X167268702Y-104879355D01*
X167416601Y-104522294D01*
X167492000Y-104143240D01*
X167492000Y-103756760D01*
X167416601Y-103377706D01*
X167268702Y-103020645D01*
X167053985Y-102699298D01*
X167034687Y-102680000D01*
X167053985Y-102660702D01*
X167268702Y-102339355D01*
X167416601Y-101982294D01*
X167492000Y-101603240D01*
X167492000Y-101216760D01*
X167416601Y-100837706D01*
X167268702Y-100480645D01*
X167053985Y-100159298D01*
X167034687Y-100140000D01*
X167053985Y-100120702D01*
X167268702Y-99799355D01*
X167416601Y-99442294D01*
X167492000Y-99063240D01*
X167492000Y-98676760D01*
X167416601Y-98297706D01*
X167268702Y-97940645D01*
X167053985Y-97619298D01*
X167034687Y-97600000D01*
X167053985Y-97580702D01*
X167268702Y-97259355D01*
X167416601Y-96902294D01*
X167492000Y-96523240D01*
X167492000Y-96136760D01*
X167416601Y-95757706D01*
X167268702Y-95400645D01*
X167053985Y-95079298D01*
X167034687Y-95060000D01*
X167053985Y-95040702D01*
X167268702Y-94719355D01*
X167416601Y-94362294D01*
X167492000Y-93983240D01*
X167492000Y-93596760D01*
X167416601Y-93217706D01*
X167268702Y-92860645D01*
X167053985Y-92539298D01*
X167034687Y-92520000D01*
X167053985Y-92500702D01*
X167268702Y-92179355D01*
X167416601Y-91822294D01*
X167492000Y-91443240D01*
X167492000Y-91056760D01*
X167416601Y-90677706D01*
X167268702Y-90320645D01*
X167053985Y-89999298D01*
X166780702Y-89726015D01*
X166459355Y-89511298D01*
X166102294Y-89363399D01*
X165723240Y-89288000D01*
X165336760Y-89288000D01*
X164957706Y-89363399D01*
X164600645Y-89511298D01*
X164587622Y-89520000D01*
X164376590Y-89520000D01*
X164432637Y-89335241D01*
X164455806Y-89100000D01*
X164455806Y-87600000D01*
X164432637Y-87364759D01*
X164364019Y-87138558D01*
X164289959Y-87000000D01*
X164364019Y-86861442D01*
X164432637Y-86635241D01*
X164455806Y-86400000D01*
X164455806Y-84900000D01*
X164432637Y-84664759D01*
X164364019Y-84438558D01*
X164300000Y-84318786D01*
X164300000Y-84113233D01*
X164319910Y-84102591D01*
X164502634Y-83952634D01*
X164652591Y-83769910D01*
X164750000Y-83587670D01*
X164847409Y-83769910D01*
X164997366Y-83952634D01*
X165180090Y-84102591D01*
X165388558Y-84214019D01*
X165614759Y-84282637D01*
X165850000Y-84305806D01*
X167550000Y-84305806D01*
X167785241Y-84282637D01*
X168011442Y-84214019D01*
X168219910Y-84102591D01*
X168402634Y-83952634D01*
X168552591Y-83769910D01*
X168664019Y-83561442D01*
X168732637Y-83335241D01*
X168755806Y-83100000D01*
X168755806Y-79800000D01*
X168732637Y-79564759D01*
X168664019Y-79338558D01*
X168552591Y-79130090D01*
X168402634Y-78947366D01*
X168219910Y-78797409D01*
X168037670Y-78700000D01*
X168219910Y-78602591D01*
X168402634Y-78452634D01*
X168552591Y-78269910D01*
X168664019Y-78061442D01*
X168732637Y-77835241D01*
X168755806Y-77600000D01*
X168755806Y-74300000D01*
X168732637Y-74064759D01*
X168664019Y-73838558D01*
X168552591Y-73630090D01*
X168402634Y-73447366D01*
X168400000Y-73445204D01*
X168400000Y-71783502D01*
X168408224Y-71700000D01*
X168400000Y-71616498D01*
X168400000Y-71616490D01*
X168375402Y-71366742D01*
X168278194Y-71046291D01*
X168120337Y-70750961D01*
X167961132Y-70556969D01*
X167961128Y-70556965D01*
X167907897Y-70492103D01*
X167843035Y-70438872D01*
X166354038Y-68949875D01*
X166606034Y-69000000D01*
X167393966Y-69000000D01*
X168166757Y-68846282D01*
X168894710Y-68544754D01*
X169549851Y-68107003D01*
X170107003Y-67549851D01*
X170544754Y-66894710D01*
X170846282Y-66166757D01*
X171000000Y-65393966D01*
X171000000Y-64606034D01*
X170846282Y-63833243D01*
X170544754Y-63105290D01*
X170107003Y-62450149D01*
X169549851Y-61892997D01*
X168894710Y-61455246D01*
X168166757Y-61153718D01*
X167393966Y-61000000D01*
X166606034Y-61000000D01*
X165833243Y-61153718D01*
X165105290Y-61455246D01*
X164450149Y-61892997D01*
X163892997Y-62450149D01*
X163455246Y-63105290D01*
X163153718Y-63833243D01*
X163000000Y-64606034D01*
X163000000Y-65393966D01*
X163050125Y-65645962D01*
X160761128Y-63356965D01*
X160707897Y-63292103D01*
X160643035Y-63238872D01*
X160643031Y-63238868D01*
X160449039Y-63079663D01*
X160403661Y-63055408D01*
X160153709Y-62921806D01*
X159833258Y-62824598D01*
X159583510Y-62800000D01*
X159583500Y-62800000D01*
X159500000Y-62791776D01*
X159416500Y-62800000D01*
X155604796Y-62800000D01*
X155602634Y-62797366D01*
X155419910Y-62647409D01*
X155211442Y-62535981D01*
X154985241Y-62467363D01*
X154750000Y-62444194D01*
X153050000Y-62444194D01*
X152814759Y-62467363D01*
X152588558Y-62535981D01*
X152380090Y-62647409D01*
X152333961Y-62685266D01*
X152331039Y-62683314D01*
X151957963Y-62528780D01*
X151561907Y-62450000D01*
X151158093Y-62450000D01*
X150762037Y-62528780D01*
X150388961Y-62683314D01*
X150053201Y-62907661D01*
X149860888Y-63099974D01*
X149807754Y-63055408D01*
X149506949Y-62890464D01*
X149179745Y-62787374D01*
X149143033Y-62780072D01*
X148870000Y-62975820D01*
X148870000Y-64450000D01*
X148890000Y-64450000D01*
X148890000Y-64550000D01*
X148870000Y-64550000D01*
X148870000Y-66024180D01*
X149143033Y-66219928D01*
X149179745Y-66212626D01*
X149506949Y-66109536D01*
X149510000Y-66107863D01*
X149510001Y-66892137D01*
X149506949Y-66890464D01*
X149179745Y-66787374D01*
X149143033Y-66780072D01*
X148870000Y-66975820D01*
X148870000Y-68450000D01*
X148890000Y-68450000D01*
X148890000Y-68550000D01*
X148870000Y-68550000D01*
X148870000Y-70024180D01*
X149143033Y-70219928D01*
X149179745Y-70212626D01*
X149506949Y-70109536D01*
X149510000Y-70107863D01*
X149510001Y-70892137D01*
X149506949Y-70890464D01*
X149179745Y-70787374D01*
X149143033Y-70780072D01*
X148870000Y-70975820D01*
X148870000Y-72450000D01*
X148890000Y-72450000D01*
X148890000Y-72550000D01*
X148870000Y-72550000D01*
X148870000Y-74024180D01*
X149143033Y-74219928D01*
X149179745Y-74212626D01*
X149506949Y-74109536D01*
X149510001Y-74107863D01*
X149510000Y-76906303D01*
X149450000Y-77207942D01*
X149450000Y-77592058D01*
X149524938Y-77968794D01*
X149671933Y-78323671D01*
X149885336Y-78643052D01*
X150156948Y-78914664D01*
X150476329Y-79128067D01*
X150831206Y-79275062D01*
X151207942Y-79350000D01*
X151592058Y-79350000D01*
X151968794Y-79275062D01*
X152323671Y-79128067D01*
X152643052Y-78914664D01*
X152914664Y-78643052D01*
X153128067Y-78323671D01*
X153275062Y-77968794D01*
X153350000Y-77592058D01*
X153350000Y-77207942D01*
X153275062Y-76831206D01*
X153210000Y-76674133D01*
X153210000Y-74555806D01*
X154750000Y-74555806D01*
X154985241Y-74532637D01*
X155211442Y-74464019D01*
X155419910Y-74352591D01*
X155602634Y-74202634D01*
X155604796Y-74200000D01*
X156895837Y-74200000D01*
X157044194Y-74348357D01*
X157044194Y-77600000D01*
X157067363Y-77835241D01*
X157135981Y-78061442D01*
X157247409Y-78269910D01*
X157397366Y-78452634D01*
X157580090Y-78602591D01*
X157762330Y-78700000D01*
X157580090Y-78797409D01*
X157397366Y-78947366D01*
X157247409Y-79130090D01*
X157135981Y-79338558D01*
X157067363Y-79564759D01*
X157044194Y-79800000D01*
X157044194Y-83100000D01*
X157067363Y-83335241D01*
X157135981Y-83561442D01*
X157247409Y-83769910D01*
X157397366Y-83952634D01*
X157580090Y-84102591D01*
X157788558Y-84214019D01*
X158014759Y-84282637D01*
X158250000Y-84305806D01*
X159950000Y-84305806D01*
X160185241Y-84282637D01*
X160411442Y-84214019D01*
X160619910Y-84102591D01*
X160802634Y-83952634D01*
X160900000Y-83833992D01*
X160900000Y-84318786D01*
X160835981Y-84438558D01*
X160767363Y-84664759D01*
X160744194Y-84900000D01*
X160744194Y-86400000D01*
X160767363Y-86635241D01*
X160835981Y-86861442D01*
X160910041Y-87000000D01*
X160835981Y-87138558D01*
X160767363Y-87364759D01*
X160744194Y-87600000D01*
X160744194Y-89100000D01*
X160764675Y-89307951D01*
X160625000Y-89294194D01*
X159375000Y-89294194D01*
X159139759Y-89317363D01*
X158913558Y-89385981D01*
X158705090Y-89497409D01*
X158522366Y-89647366D01*
X158372409Y-89830090D01*
X158260981Y-90038558D01*
X158192363Y-90264759D01*
X158169194Y-90500000D01*
X158169194Y-92000000D01*
X158192363Y-92235241D01*
X158260981Y-92461442D01*
X158372409Y-92669910D01*
X158490853Y-92814235D01*
X158488022Y-92823569D01*
X158470645Y-93000000D01*
X158475000Y-93475000D01*
X158700000Y-93700000D01*
X159950000Y-93700000D01*
X159950000Y-93680000D01*
X160050000Y-93680000D01*
X160050000Y-93700000D01*
X160070000Y-93700000D01*
X160070000Y-93800000D01*
X160050000Y-93800000D01*
X160050000Y-95175000D01*
X160275000Y-95400000D01*
X160625000Y-95404355D01*
X160801431Y-95386978D01*
X160971082Y-95335515D01*
X161127433Y-95251944D01*
X161242953Y-95157140D01*
X161310524Y-95239476D01*
X161447567Y-95351944D01*
X161603918Y-95435515D01*
X161773569Y-95486978D01*
X161950000Y-95504355D01*
X162325000Y-95500000D01*
X162550000Y-95275000D01*
X162550000Y-93900000D01*
X162530000Y-93900000D01*
X162530000Y-93800000D01*
X162550000Y-93800000D01*
X162550000Y-93780000D01*
X162650000Y-93780000D01*
X162650000Y-93800000D01*
X162670000Y-93800000D01*
X162670000Y-93900000D01*
X162650000Y-93900000D01*
X162650000Y-95275000D01*
X162875000Y-95500000D01*
X163250000Y-95504355D01*
X163426431Y-95486978D01*
X163596082Y-95435515D01*
X163752433Y-95351944D01*
X163889476Y-95239476D01*
X163940663Y-95177104D01*
X163791298Y-95400645D01*
X163643399Y-95757706D01*
X163568000Y-96136760D01*
X163568000Y-96523240D01*
X163643399Y-96902294D01*
X163689939Y-97014653D01*
X163596082Y-96964485D01*
X163426431Y-96913022D01*
X163250000Y-96895645D01*
X162875000Y-96900000D01*
X162650000Y-97125000D01*
X162650000Y-98500000D01*
X162670000Y-98500000D01*
X162670000Y-98600000D01*
X162650000Y-98600000D01*
X162650000Y-98620000D01*
X162550000Y-98620000D01*
X162550000Y-98600000D01*
X161275000Y-98600000D01*
X161050000Y-98825000D01*
X161045645Y-99300000D01*
X161063022Y-99476431D01*
X161070172Y-99500000D01*
X160378678Y-99500000D01*
X160400000Y-99283510D01*
X160400000Y-97800000D01*
X161045645Y-97800000D01*
X161050000Y-98275000D01*
X161275000Y-98500000D01*
X162550000Y-98500000D01*
X162550000Y-97125000D01*
X162325000Y-96900000D01*
X161950000Y-96895645D01*
X161773569Y-96913022D01*
X161603918Y-96964485D01*
X161447567Y-97048056D01*
X161310524Y-97160524D01*
X161198056Y-97297567D01*
X161114485Y-97453918D01*
X161063022Y-97623569D01*
X161045645Y-97800000D01*
X160400000Y-97800000D01*
X160400000Y-97083499D01*
X160408224Y-96999999D01*
X160400000Y-96916499D01*
X160400000Y-96916490D01*
X160375402Y-96666742D01*
X160278194Y-96346291D01*
X160120337Y-96050961D01*
X160077518Y-95998786D01*
X159961131Y-95856968D01*
X159961128Y-95856965D01*
X159907897Y-95792103D01*
X159843036Y-95738873D01*
X159506877Y-95402714D01*
X159725000Y-95400000D01*
X159950000Y-95175000D01*
X159950000Y-93800000D01*
X158700000Y-93800000D01*
X158475000Y-94025000D01*
X158471858Y-94367695D01*
X157800000Y-93695837D01*
X157800000Y-88083499D01*
X157808224Y-87999999D01*
X157800000Y-87916499D01*
X157800000Y-87916490D01*
X157775402Y-87666742D01*
X157678194Y-87346291D01*
X157520337Y-87050961D01*
X157472033Y-86992103D01*
X157361131Y-86856968D01*
X157361128Y-86856965D01*
X157307897Y-86792103D01*
X157243036Y-86738873D01*
X144800000Y-74295837D01*
X144800000Y-72823033D01*
X147100071Y-72823033D01*
X147196140Y-73152368D01*
X147354613Y-73456632D01*
X147569400Y-73724133D01*
X147832246Y-73944592D01*
X148133051Y-74109536D01*
X148460255Y-74212626D01*
X148496967Y-74219928D01*
X148770000Y-74024180D01*
X148770000Y-72550000D01*
X147295713Y-72550000D01*
X147100071Y-72823033D01*
X144800000Y-72823033D01*
X144800000Y-72176967D01*
X147100071Y-72176967D01*
X147295713Y-72450000D01*
X148770000Y-72450000D01*
X148770000Y-70975820D01*
X148496967Y-70780072D01*
X148460255Y-70787374D01*
X148133051Y-70890464D01*
X147832246Y-71055408D01*
X147569400Y-71275867D01*
X147354613Y-71543368D01*
X147196140Y-71847632D01*
X147100071Y-72176967D01*
X144800000Y-72176967D01*
X144800000Y-68823033D01*
X147100071Y-68823033D01*
X147196140Y-69152368D01*
X147354613Y-69456632D01*
X147569400Y-69724133D01*
X147832246Y-69944592D01*
X148133051Y-70109536D01*
X148460255Y-70212626D01*
X148496967Y-70219928D01*
X148770000Y-70024180D01*
X148770000Y-68550000D01*
X147295713Y-68550000D01*
X147100071Y-68823033D01*
X144800000Y-68823033D01*
X144800000Y-68176967D01*
X147100071Y-68176967D01*
X147295713Y-68450000D01*
X148770000Y-68450000D01*
X148770000Y-66975820D01*
X148496967Y-66780072D01*
X148460255Y-66787374D01*
X148133051Y-66890464D01*
X147832246Y-67055408D01*
X147569400Y-67275867D01*
X147354613Y-67543368D01*
X147196140Y-67847632D01*
X147100071Y-68176967D01*
X144800000Y-68176967D01*
X144800000Y-66204796D01*
X144802634Y-66202634D01*
X144952591Y-66019910D01*
X145064019Y-65811442D01*
X145132637Y-65585241D01*
X145155806Y-65350000D01*
X145155806Y-64823033D01*
X147100071Y-64823033D01*
X147196140Y-65152368D01*
X147354613Y-65456632D01*
X147569400Y-65724133D01*
X147832246Y-65944592D01*
X148133051Y-66109536D01*
X148460255Y-66212626D01*
X148496967Y-66219928D01*
X148770000Y-66024180D01*
X148770000Y-64550000D01*
X147295713Y-64550000D01*
X147100071Y-64823033D01*
X145155806Y-64823033D01*
X145155806Y-64176967D01*
X147100071Y-64176967D01*
X147295713Y-64450000D01*
X148770000Y-64450000D01*
X148770000Y-62975820D01*
X148496967Y-62780072D01*
X148460255Y-62787374D01*
X148133051Y-62890464D01*
X147832246Y-63055408D01*
X147569400Y-63275867D01*
X147354613Y-63543368D01*
X147196140Y-63847632D01*
X147100071Y-64176967D01*
X145155806Y-64176967D01*
X145155806Y-63650000D01*
X145132637Y-63414759D01*
X145064019Y-63188558D01*
X144952591Y-62980090D01*
X144802634Y-62797366D01*
X144619910Y-62647409D01*
X144411442Y-62535981D01*
X144185241Y-62467363D01*
X143950000Y-62444194D01*
X142250000Y-62444194D01*
X142014759Y-62467363D01*
X141788558Y-62535981D01*
X141580090Y-62647409D01*
X141533961Y-62685266D01*
X141531039Y-62683314D01*
X141157963Y-62528780D01*
X140761907Y-62450000D01*
X140358093Y-62450000D01*
X139962037Y-62528780D01*
X139588961Y-62683314D01*
X139290000Y-62883073D01*
X138991039Y-62683314D01*
X138617963Y-62528780D01*
X138221907Y-62450000D01*
X137818093Y-62450000D01*
X137422037Y-62528780D01*
X137048961Y-62683314D01*
X136750000Y-62883073D01*
X136451039Y-62683314D01*
X136077963Y-62528780D01*
X135681907Y-62450000D01*
X135278093Y-62450000D01*
X134882037Y-62528780D01*
X134508961Y-62683314D01*
X134173201Y-62907661D01*
X133887661Y-63193201D01*
X133663314Y-63528961D01*
X133542093Y-63821612D01*
X132613706Y-64750000D01*
X131548377Y-64750000D01*
X131301150Y-64502773D01*
X130858930Y-64207291D01*
X130367561Y-64003760D01*
X129845927Y-63900000D01*
X129314073Y-63900000D01*
X128792439Y-64003760D01*
X128301070Y-64207291D01*
X127858850Y-64502773D01*
X127482773Y-64878850D01*
X127187291Y-65321070D01*
X126983760Y-65812439D01*
X126900331Y-66231862D01*
X126904355Y-65100000D01*
X126886978Y-64923569D01*
X126835515Y-64753918D01*
X126751944Y-64597567D01*
X126639476Y-64460524D01*
X126502433Y-64348056D01*
X126346082Y-64264485D01*
X126176431Y-64213022D01*
X126000000Y-64195645D01*
X124775000Y-64200000D01*
X124550000Y-64425000D01*
X124450000Y-64425000D01*
X124225000Y-64200000D01*
X123000000Y-64195645D01*
X122823569Y-64213022D01*
X122653918Y-64264485D01*
X122497567Y-64348056D01*
X122360524Y-64460524D01*
X122248056Y-64597567D01*
X122164485Y-64753918D01*
X122113022Y-64923569D01*
X122095645Y-65100000D01*
X118275000Y-65100000D01*
X118275000Y-60275000D01*
X171725000Y-60275000D01*
X171725001Y-134725000D01*
G37*
%TD.AperFunction*%
D31*
X142119853Y-124255858D02*
X142105711Y-124270000D01*
X142119853Y-124284142D01*
X142049142Y-124354853D01*
X142035000Y-124340711D01*
X142020858Y-124354853D01*
X141950147Y-124284142D01*
X141964289Y-124270000D01*
X141950147Y-124255858D01*
X142020858Y-124185147D01*
X142035000Y-124199289D01*
X142049142Y-124185147D01*
X142119853Y-124255858D01*
%TA.AperFunction,Conductor*%
D32*
G36*
X142119853Y-124255858D02*
G01*
X142105711Y-124270000D01*
X142119853Y-124284142D01*
X142049142Y-124354853D01*
X142035000Y-124340711D01*
X142020858Y-124354853D01*
X141950147Y-124284142D01*
X141964289Y-124270000D01*
X141950147Y-124255858D01*
X142020858Y-124185147D01*
X142035000Y-124199289D01*
X142049142Y-124185147D01*
X142119853Y-124255858D01*
G37*
%TD.AperFunction*%
D31*
X142119853Y-114095858D02*
X142105711Y-114110000D01*
X142119853Y-114124142D01*
X142049142Y-114194853D01*
X142035000Y-114180711D01*
X142020858Y-114194853D01*
X141950147Y-114124142D01*
X141964289Y-114110000D01*
X141950147Y-114095858D01*
X142020858Y-114025147D01*
X142035000Y-114039289D01*
X142049142Y-114025147D01*
X142119853Y-114095858D01*
%TA.AperFunction,Conductor*%
D32*
G36*
X142119853Y-114095858D02*
G01*
X142105711Y-114110000D01*
X142119853Y-114124142D01*
X142049142Y-114194853D01*
X142035000Y-114180711D01*
X142020858Y-114194853D01*
X141950147Y-114124142D01*
X141964289Y-114110000D01*
X141950147Y-114095858D01*
X142020858Y-114025147D01*
X142035000Y-114039289D01*
X142049142Y-114025147D01*
X142119853Y-114095858D01*
G37*
%TD.AperFunction*%
D31*
X165614853Y-124255858D02*
X165600711Y-124270000D01*
X165614853Y-124284142D01*
X165544142Y-124354853D01*
X165530000Y-124340711D01*
X165515858Y-124354853D01*
X165445147Y-124284142D01*
X165459289Y-124270000D01*
X165445147Y-124255858D01*
X165515858Y-124185147D01*
X165530000Y-124199289D01*
X165544142Y-124185147D01*
X165614853Y-124255858D01*
%TA.AperFunction,Conductor*%
D32*
G36*
X165614853Y-124255858D02*
G01*
X165600711Y-124270000D01*
X165614853Y-124284142D01*
X165544142Y-124354853D01*
X165530000Y-124340711D01*
X165515858Y-124354853D01*
X165445147Y-124284142D01*
X165459289Y-124270000D01*
X165445147Y-124255858D01*
X165515858Y-124185147D01*
X165530000Y-124199289D01*
X165544142Y-124185147D01*
X165614853Y-124255858D01*
G37*
%TD.AperFunction*%
D31*
X152600000Y-106550000D02*
X152620000Y-106550000D01*
X152620000Y-106650000D01*
X152600000Y-106650000D01*
X152600000Y-107725000D01*
X152825000Y-107950000D01*
X152950000Y-107954355D01*
X153126431Y-107936978D01*
X153208777Y-107911999D01*
X153380090Y-108052591D01*
X153588558Y-108164019D01*
X153814759Y-108232637D01*
X154050000Y-108255806D01*
X154052143Y-108255806D01*
X154116742Y-108275402D01*
X154366490Y-108300000D01*
X155646701Y-108300000D01*
X155650000Y-108333500D01*
X155650000Y-108333509D01*
X155674598Y-108583257D01*
X155771806Y-108903708D01*
X155823275Y-108999999D01*
X155929663Y-109199039D01*
X156088868Y-109393031D01*
X156088873Y-109393036D01*
X156142103Y-109457897D01*
X156206966Y-109511129D01*
X156545838Y-109850000D01*
X155116490Y-109850000D01*
X154866742Y-109874598D01*
X154583139Y-109960628D01*
X154514759Y-109967363D01*
X154288558Y-110035981D01*
X154080090Y-110147409D01*
X153897366Y-110297366D01*
X153747409Y-110480090D01*
X153635981Y-110688558D01*
X153589535Y-110841669D01*
X153533258Y-110824598D01*
X153283510Y-110800000D01*
X152304163Y-110800000D01*
X151300000Y-109795837D01*
X151300000Y-107348331D01*
X151314485Y-107396082D01*
X151398056Y-107552433D01*
X151510524Y-107689476D01*
X151647567Y-107801944D01*
X151803918Y-107885515D01*
X151973569Y-107936978D01*
X152150000Y-107954355D01*
X152275000Y-107950000D01*
X152500000Y-107725000D01*
X152500000Y-106650000D01*
X152480000Y-106650000D01*
X152480000Y-106550000D01*
X152500000Y-106550000D01*
X152500000Y-106530000D01*
X152600000Y-106530000D01*
X152600000Y-106550000D01*
%TA.AperFunction,Conductor*%
D32*
G36*
X152600000Y-106550000D02*
G01*
X152620000Y-106550000D01*
X152620000Y-106650000D01*
X152600000Y-106650000D01*
X152600000Y-107725000D01*
X152825000Y-107950000D01*
X152950000Y-107954355D01*
X153126431Y-107936978D01*
X153208777Y-107911999D01*
X153380090Y-108052591D01*
X153588558Y-108164019D01*
X153814759Y-108232637D01*
X154050000Y-108255806D01*
X154052143Y-108255806D01*
X154116742Y-108275402D01*
X154366490Y-108300000D01*
X155646701Y-108300000D01*
X155650000Y-108333500D01*
X155650000Y-108333509D01*
X155674598Y-108583257D01*
X155771806Y-108903708D01*
X155823275Y-108999999D01*
X155929663Y-109199039D01*
X156088868Y-109393031D01*
X156088873Y-109393036D01*
X156142103Y-109457897D01*
X156206966Y-109511129D01*
X156545838Y-109850000D01*
X155116490Y-109850000D01*
X154866742Y-109874598D01*
X154583139Y-109960628D01*
X154514759Y-109967363D01*
X154288558Y-110035981D01*
X154080090Y-110147409D01*
X153897366Y-110297366D01*
X153747409Y-110480090D01*
X153635981Y-110688558D01*
X153589535Y-110841669D01*
X153533258Y-110824598D01*
X153283510Y-110800000D01*
X152304163Y-110800000D01*
X151300000Y-109795837D01*
X151300000Y-107348331D01*
X151314485Y-107396082D01*
X151398056Y-107552433D01*
X151510524Y-107689476D01*
X151647567Y-107801944D01*
X151803918Y-107885515D01*
X151973569Y-107936978D01*
X152150000Y-107954355D01*
X152275000Y-107950000D01*
X152500000Y-107725000D01*
X152500000Y-106650000D01*
X152480000Y-106650000D01*
X152480000Y-106550000D01*
X152500000Y-106550000D01*
X152500000Y-106530000D01*
X152600000Y-106530000D01*
X152600000Y-106550000D01*
G37*
%TD.AperFunction*%
D31*
X165614853Y-106475858D02*
X165600711Y-106490000D01*
X165614853Y-106504142D01*
X165544142Y-106574853D01*
X165530000Y-106560711D01*
X165515858Y-106574853D01*
X165445147Y-106504142D01*
X165459289Y-106490000D01*
X165445147Y-106475858D01*
X165515858Y-106405147D01*
X165530000Y-106419289D01*
X165544142Y-106405147D01*
X165614853Y-106475858D01*
%TA.AperFunction,Conductor*%
D32*
G36*
X165614853Y-106475858D02*
G01*
X165600711Y-106490000D01*
X165614853Y-106504142D01*
X165544142Y-106574853D01*
X165530000Y-106560711D01*
X165515858Y-106574853D01*
X165445147Y-106504142D01*
X165459289Y-106490000D01*
X165445147Y-106475858D01*
X165515858Y-106405147D01*
X165530000Y-106419289D01*
X165544142Y-106405147D01*
X165614853Y-106475858D01*
G37*
%TD.AperFunction*%
D31*
X157000000Y-97704163D02*
X157000001Y-99283510D01*
X157024599Y-99533258D01*
X157110628Y-99816856D01*
X157116869Y-99880222D01*
X157003918Y-99914485D01*
X156847567Y-99998056D01*
X156710524Y-100110524D01*
X156598056Y-100247567D01*
X156514485Y-100403918D01*
X156463022Y-100573569D01*
X156445645Y-100750000D01*
X156450000Y-100925000D01*
X156675000Y-101150000D01*
X157700000Y-101150000D01*
X157700000Y-101130000D01*
X157800000Y-101130000D01*
X157800000Y-101150000D01*
X157820000Y-101150000D01*
X157820000Y-101250000D01*
X157800000Y-101250000D01*
X157800000Y-102325000D01*
X158025000Y-102550000D01*
X158150000Y-102554355D01*
X158326431Y-102536978D01*
X158408777Y-102511999D01*
X158580090Y-102652591D01*
X158788558Y-102764019D01*
X159014759Y-102832637D01*
X159250000Y-102855806D01*
X159252143Y-102855806D01*
X159316742Y-102875402D01*
X159566490Y-102900000D01*
X160812008Y-102900000D01*
X160792363Y-102964759D01*
X160769194Y-103200000D01*
X160769194Y-104700000D01*
X160792363Y-104935241D01*
X160795531Y-104945686D01*
X160325000Y-104950000D01*
X160100000Y-105175000D01*
X160100000Y-106450000D01*
X160120000Y-106450000D01*
X160120000Y-106550000D01*
X160100000Y-106550000D01*
X160100000Y-106570000D01*
X160000000Y-106570000D01*
X160000000Y-106550000D01*
X159980000Y-106550000D01*
X159980000Y-106450000D01*
X160000000Y-106450000D01*
X160000000Y-105175000D01*
X159775000Y-104950000D01*
X159300000Y-104945645D01*
X159123569Y-104963022D01*
X158964139Y-105011385D01*
X158952634Y-104997366D01*
X158769910Y-104847409D01*
X158561442Y-104735981D01*
X158335241Y-104667363D01*
X158100000Y-104644194D01*
X156600000Y-104644194D01*
X156364759Y-104667363D01*
X156138558Y-104735981D01*
X155930090Y-104847409D01*
X155866007Y-104900000D01*
X155178678Y-104900000D01*
X155200000Y-104683510D01*
X155200000Y-101650000D01*
X156445645Y-101650000D01*
X156463022Y-101826431D01*
X156514485Y-101996082D01*
X156598056Y-102152433D01*
X156710524Y-102289476D01*
X156847567Y-102401944D01*
X157003918Y-102485515D01*
X157173569Y-102536978D01*
X157350000Y-102554355D01*
X157475000Y-102550000D01*
X157700000Y-102325000D01*
X157700000Y-101250000D01*
X156675000Y-101250000D01*
X156450000Y-101475000D01*
X156445645Y-101650000D01*
X155200000Y-101650000D01*
X155200000Y-95904163D01*
X157000000Y-97704163D01*
%TA.AperFunction,Conductor*%
D32*
G36*
X157000000Y-97704163D02*
G01*
X157000001Y-99283510D01*
X157024599Y-99533258D01*
X157110628Y-99816856D01*
X157116869Y-99880222D01*
X157003918Y-99914485D01*
X156847567Y-99998056D01*
X156710524Y-100110524D01*
X156598056Y-100247567D01*
X156514485Y-100403918D01*
X156463022Y-100573569D01*
X156445645Y-100750000D01*
X156450000Y-100925000D01*
X156675000Y-101150000D01*
X157700000Y-101150000D01*
X157700000Y-101130000D01*
X157800000Y-101130000D01*
X157800000Y-101150000D01*
X157820000Y-101150000D01*
X157820000Y-101250000D01*
X157800000Y-101250000D01*
X157800000Y-102325000D01*
X158025000Y-102550000D01*
X158150000Y-102554355D01*
X158326431Y-102536978D01*
X158408777Y-102511999D01*
X158580090Y-102652591D01*
X158788558Y-102764019D01*
X159014759Y-102832637D01*
X159250000Y-102855806D01*
X159252143Y-102855806D01*
X159316742Y-102875402D01*
X159566490Y-102900000D01*
X160812008Y-102900000D01*
X160792363Y-102964759D01*
X160769194Y-103200000D01*
X160769194Y-104700000D01*
X160792363Y-104935241D01*
X160795531Y-104945686D01*
X160325000Y-104950000D01*
X160100000Y-105175000D01*
X160100000Y-106450000D01*
X160120000Y-106450000D01*
X160120000Y-106550000D01*
X160100000Y-106550000D01*
X160100000Y-106570000D01*
X160000000Y-106570000D01*
X160000000Y-106550000D01*
X159980000Y-106550000D01*
X159980000Y-106450000D01*
X160000000Y-106450000D01*
X160000000Y-105175000D01*
X159775000Y-104950000D01*
X159300000Y-104945645D01*
X159123569Y-104963022D01*
X158964139Y-105011385D01*
X158952634Y-104997366D01*
X158769910Y-104847409D01*
X158561442Y-104735981D01*
X158335241Y-104667363D01*
X158100000Y-104644194D01*
X156600000Y-104644194D01*
X156364759Y-104667363D01*
X156138558Y-104735981D01*
X155930090Y-104847409D01*
X155866007Y-104900000D01*
X155178678Y-104900000D01*
X155200000Y-104683510D01*
X155200000Y-101650000D01*
X156445645Y-101650000D01*
X156463022Y-101826431D01*
X156514485Y-101996082D01*
X156598056Y-102152433D01*
X156710524Y-102289476D01*
X156847567Y-102401944D01*
X157003918Y-102485515D01*
X157173569Y-102536978D01*
X157350000Y-102554355D01*
X157475000Y-102550000D01*
X157700000Y-102325000D01*
X157700000Y-101250000D01*
X156675000Y-101250000D01*
X156450000Y-101475000D01*
X156445645Y-101650000D01*
X155200000Y-101650000D01*
X155200000Y-95904163D01*
X157000000Y-97704163D01*
G37*
%TD.AperFunction*%
D31*
X162650000Y-106400000D02*
X162670000Y-106400000D01*
X162670000Y-106500000D01*
X162650000Y-106500000D01*
X162650000Y-106520000D01*
X162550000Y-106520000D01*
X162550000Y-106500000D01*
X162530000Y-106500000D01*
X162530000Y-106400000D01*
X162550000Y-106400000D01*
X162550000Y-106380000D01*
X162650000Y-106380000D01*
X162650000Y-106400000D01*
%TA.AperFunction,Conductor*%
D32*
G36*
X162650000Y-106400000D02*
G01*
X162670000Y-106400000D01*
X162670000Y-106500000D01*
X162650000Y-106500000D01*
X162650000Y-106520000D01*
X162550000Y-106520000D01*
X162550000Y-106500000D01*
X162530000Y-106500000D01*
X162530000Y-106400000D01*
X162550000Y-106400000D01*
X162550000Y-106380000D01*
X162650000Y-106380000D01*
X162650000Y-106400000D01*
G37*
%TD.AperFunction*%
%TD*%
M02*
