%TF.GenerationSoftware,KiCad,Pcbnew,(5.1.9)-1*%
%TF.CreationDate,2021-12-22T12:25:31+01:00*%
%TF.ProjectId,led_unterm_bett,6c65645f-756e-4746-9572-6d5f62657474,v1r1*%
%TF.SameCoordinates,Original*%
%TF.FileFunction,Legend,Bot*%
%TF.FilePolarity,Positive*%
%FSLAX46Y46*%
G04 Gerber Fmt 4.6, Leading zero omitted, Abs format (unit mm)*
G04 Created by KiCad (PCBNEW (5.1.9)-1) date 2021-12-22 12:25:31*
%MOMM*%
%LPD*%
G01*
G04 APERTURE LIST*
%TA.AperFunction,Profile*%
%ADD10C,0.150000*%
%TD*%
%ADD11C,0.120000*%
%ADD12C,0.150000*%
G04 APERTURE END LIST*
D10*
X173000000Y-136000000D02*
X117000000Y-136000000D01*
X173000000Y-59000000D02*
X173000000Y-136000000D01*
X117000000Y-59000000D02*
X173000000Y-59000000D01*
X117000000Y-136000000D02*
X117000000Y-59000000D01*
D11*
%TO.C,D3*%
X165700000Y-83250000D02*
X165700000Y-75950000D01*
X167700000Y-83250000D02*
X165700000Y-83250000D01*
X167700000Y-75950000D02*
X167700000Y-83250000D01*
%TO.C,D2*%
X161800000Y-83250000D02*
X161800000Y-75950000D01*
X163800000Y-83250000D02*
X161800000Y-83250000D01*
X163800000Y-75950000D02*
X163800000Y-83250000D01*
%TO.C,D1*%
X158100000Y-83250000D02*
X158100000Y-75950000D01*
X160100000Y-83250000D02*
X158100000Y-83250000D01*
X160100000Y-75950000D02*
X160100000Y-83250000D01*
%TO.C,C1*%
X159150000Y-93000000D02*
X159150000Y-92000000D01*
X160850000Y-92000000D02*
X160850000Y-93000000D01*
%TO.C,C2*%
X137650000Y-115900000D02*
X137650000Y-114900000D01*
X139350000Y-114900000D02*
X139350000Y-115900000D01*
%TO.C,C3*%
X137850000Y-126000000D02*
X137850000Y-125000000D01*
X139550000Y-125000000D02*
X139550000Y-126000000D01*
%TO.C,C4*%
X161750000Y-105700000D02*
X161750000Y-104700000D01*
X163450000Y-104700000D02*
X163450000Y-105700000D01*
%TO.C,C5*%
X163650000Y-124900000D02*
X163650000Y-125900000D01*
X161950000Y-125900000D02*
X161950000Y-124900000D01*
%TO.C,Q1*%
X157120000Y-99440000D02*
X157120000Y-100900000D01*
X160280000Y-99440000D02*
X160280000Y-101600000D01*
X160280000Y-99440000D02*
X159350000Y-99440000D01*
X157120000Y-99440000D02*
X158050000Y-99440000D01*
%TO.C,Q2*%
X151920000Y-104840000D02*
X151920000Y-106300000D01*
X155080000Y-104840000D02*
X155080000Y-107000000D01*
X155080000Y-104840000D02*
X154150000Y-104840000D01*
X151920000Y-104840000D02*
X152850000Y-104840000D01*
%TO.C,Q3*%
X153440000Y-114080000D02*
X154900000Y-114080000D01*
X153440000Y-110920000D02*
X155600000Y-110920000D01*
X153440000Y-110920000D02*
X153440000Y-111850000D01*
X153440000Y-114080000D02*
X153440000Y-113150000D01*
%TO.C,R1*%
X161720000Y-86400000D02*
X161720000Y-87600000D01*
X163480000Y-87600000D02*
X163480000Y-86400000D01*
%TO.C,R2*%
X161720000Y-91900000D02*
X161720000Y-93100000D01*
X163480000Y-93100000D02*
X163480000Y-91900000D01*
%TO.C,R3*%
X163480000Y-100500000D02*
X163480000Y-99300000D01*
X161720000Y-99300000D02*
X161720000Y-100500000D01*
%TO.C,R4*%
X158100000Y-107380000D02*
X159300000Y-107380000D01*
X159300000Y-105620000D02*
X158100000Y-105620000D01*
%TO.C,R5*%
X157220000Y-112300000D02*
X157220000Y-113500000D01*
X158980000Y-113500000D02*
X158980000Y-112300000D01*
%TD*%
%TO.C,D3*%
D12*
X168902380Y-77961904D02*
X167902380Y-77961904D01*
X167902380Y-78200000D01*
X167950000Y-78342857D01*
X168045238Y-78438095D01*
X168140476Y-78485714D01*
X168330952Y-78533333D01*
X168473809Y-78533333D01*
X168664285Y-78485714D01*
X168759523Y-78438095D01*
X168854761Y-78342857D01*
X168902380Y-78200000D01*
X168902380Y-77961904D01*
X167902380Y-78866666D02*
X167902380Y-79485714D01*
X168283333Y-79152380D01*
X168283333Y-79295238D01*
X168330952Y-79390476D01*
X168378571Y-79438095D01*
X168473809Y-79485714D01*
X168711904Y-79485714D01*
X168807142Y-79438095D01*
X168854761Y-79390476D01*
X168902380Y-79295238D01*
X168902380Y-79009523D01*
X168854761Y-78914285D01*
X168807142Y-78866666D01*
%TO.C,D2*%
X165002380Y-77961904D02*
X164002380Y-77961904D01*
X164002380Y-78200000D01*
X164050000Y-78342857D01*
X164145238Y-78438095D01*
X164240476Y-78485714D01*
X164430952Y-78533333D01*
X164573809Y-78533333D01*
X164764285Y-78485714D01*
X164859523Y-78438095D01*
X164954761Y-78342857D01*
X165002380Y-78200000D01*
X165002380Y-77961904D01*
X164097619Y-78914285D02*
X164050000Y-78961904D01*
X164002380Y-79057142D01*
X164002380Y-79295238D01*
X164050000Y-79390476D01*
X164097619Y-79438095D01*
X164192857Y-79485714D01*
X164288095Y-79485714D01*
X164430952Y-79438095D01*
X165002380Y-78866666D01*
X165002380Y-79485714D01*
%TO.C,D1*%
X161302380Y-77961904D02*
X160302380Y-77961904D01*
X160302380Y-78200000D01*
X160350000Y-78342857D01*
X160445238Y-78438095D01*
X160540476Y-78485714D01*
X160730952Y-78533333D01*
X160873809Y-78533333D01*
X161064285Y-78485714D01*
X161159523Y-78438095D01*
X161254761Y-78342857D01*
X161302380Y-78200000D01*
X161302380Y-77961904D01*
X161302380Y-79485714D02*
X161302380Y-78914285D01*
X161302380Y-79200000D02*
X160302380Y-79200000D01*
X160445238Y-79104761D01*
X160540476Y-79009523D01*
X160588095Y-78914285D01*
%TO.C,C1*%
X158357142Y-92333333D02*
X158404761Y-92285714D01*
X158452380Y-92142857D01*
X158452380Y-92047619D01*
X158404761Y-91904761D01*
X158309523Y-91809523D01*
X158214285Y-91761904D01*
X158023809Y-91714285D01*
X157880952Y-91714285D01*
X157690476Y-91761904D01*
X157595238Y-91809523D01*
X157500000Y-91904761D01*
X157452380Y-92047619D01*
X157452380Y-92142857D01*
X157500000Y-92285714D01*
X157547619Y-92333333D01*
X158452380Y-93285714D02*
X158452380Y-92714285D01*
X158452380Y-93000000D02*
X157452380Y-93000000D01*
X157595238Y-92904761D01*
X157690476Y-92809523D01*
X157738095Y-92714285D01*
%TO.C,C2*%
X140607142Y-115233333D02*
X140654761Y-115185714D01*
X140702380Y-115042857D01*
X140702380Y-114947619D01*
X140654761Y-114804761D01*
X140559523Y-114709523D01*
X140464285Y-114661904D01*
X140273809Y-114614285D01*
X140130952Y-114614285D01*
X139940476Y-114661904D01*
X139845238Y-114709523D01*
X139750000Y-114804761D01*
X139702380Y-114947619D01*
X139702380Y-115042857D01*
X139750000Y-115185714D01*
X139797619Y-115233333D01*
X139797619Y-115614285D02*
X139750000Y-115661904D01*
X139702380Y-115757142D01*
X139702380Y-115995238D01*
X139750000Y-116090476D01*
X139797619Y-116138095D01*
X139892857Y-116185714D01*
X139988095Y-116185714D01*
X140130952Y-116138095D01*
X140702380Y-115566666D01*
X140702380Y-116185714D01*
%TO.C,C3*%
X140807142Y-125333333D02*
X140854761Y-125285714D01*
X140902380Y-125142857D01*
X140902380Y-125047619D01*
X140854761Y-124904761D01*
X140759523Y-124809523D01*
X140664285Y-124761904D01*
X140473809Y-124714285D01*
X140330952Y-124714285D01*
X140140476Y-124761904D01*
X140045238Y-124809523D01*
X139950000Y-124904761D01*
X139902380Y-125047619D01*
X139902380Y-125142857D01*
X139950000Y-125285714D01*
X139997619Y-125333333D01*
X139902380Y-125666666D02*
X139902380Y-126285714D01*
X140283333Y-125952380D01*
X140283333Y-126095238D01*
X140330952Y-126190476D01*
X140378571Y-126238095D01*
X140473809Y-126285714D01*
X140711904Y-126285714D01*
X140807142Y-126238095D01*
X140854761Y-126190476D01*
X140902380Y-126095238D01*
X140902380Y-125809523D01*
X140854761Y-125714285D01*
X140807142Y-125666666D01*
%TO.C,C4*%
X161357142Y-103833333D02*
X161404761Y-103785714D01*
X161452380Y-103642857D01*
X161452380Y-103547619D01*
X161404761Y-103404761D01*
X161309523Y-103309523D01*
X161214285Y-103261904D01*
X161023809Y-103214285D01*
X160880952Y-103214285D01*
X160690476Y-103261904D01*
X160595238Y-103309523D01*
X160500000Y-103404761D01*
X160452380Y-103547619D01*
X160452380Y-103642857D01*
X160500000Y-103785714D01*
X160547619Y-103833333D01*
X160785714Y-104690476D02*
X161452380Y-104690476D01*
X160404761Y-104452380D02*
X161119047Y-104214285D01*
X161119047Y-104833333D01*
%TO.C,C5*%
X161407142Y-125233333D02*
X161454761Y-125185714D01*
X161502380Y-125042857D01*
X161502380Y-124947619D01*
X161454761Y-124804761D01*
X161359523Y-124709523D01*
X161264285Y-124661904D01*
X161073809Y-124614285D01*
X160930952Y-124614285D01*
X160740476Y-124661904D01*
X160645238Y-124709523D01*
X160550000Y-124804761D01*
X160502380Y-124947619D01*
X160502380Y-125042857D01*
X160550000Y-125185714D01*
X160597619Y-125233333D01*
X160502380Y-126138095D02*
X160502380Y-125661904D01*
X160978571Y-125614285D01*
X160930952Y-125661904D01*
X160883333Y-125757142D01*
X160883333Y-125995238D01*
X160930952Y-126090476D01*
X160978571Y-126138095D01*
X161073809Y-126185714D01*
X161311904Y-126185714D01*
X161407142Y-126138095D01*
X161454761Y-126090476D01*
X161502380Y-125995238D01*
X161502380Y-125757142D01*
X161454761Y-125661904D01*
X161407142Y-125614285D01*
%TO.C,Q1*%
X156547619Y-100104761D02*
X156500000Y-100009523D01*
X156404761Y-99914285D01*
X156261904Y-99771428D01*
X156214285Y-99676190D01*
X156214285Y-99580952D01*
X156452380Y-99628571D02*
X156404761Y-99533333D01*
X156309523Y-99438095D01*
X156119047Y-99390476D01*
X155785714Y-99390476D01*
X155595238Y-99438095D01*
X155500000Y-99533333D01*
X155452380Y-99628571D01*
X155452380Y-99819047D01*
X155500000Y-99914285D01*
X155595238Y-100009523D01*
X155785714Y-100057142D01*
X156119047Y-100057142D01*
X156309523Y-100009523D01*
X156404761Y-99914285D01*
X156452380Y-99819047D01*
X156452380Y-99628571D01*
X156452380Y-101009523D02*
X156452380Y-100438095D01*
X156452380Y-100723809D02*
X155452380Y-100723809D01*
X155595238Y-100628571D01*
X155690476Y-100533333D01*
X155738095Y-100438095D01*
%TO.C,Q2*%
X151547619Y-105904761D02*
X151500000Y-105809523D01*
X151404761Y-105714285D01*
X151261904Y-105571428D01*
X151214285Y-105476190D01*
X151214285Y-105380952D01*
X151452380Y-105428571D02*
X151404761Y-105333333D01*
X151309523Y-105238095D01*
X151119047Y-105190476D01*
X150785714Y-105190476D01*
X150595238Y-105238095D01*
X150500000Y-105333333D01*
X150452380Y-105428571D01*
X150452380Y-105619047D01*
X150500000Y-105714285D01*
X150595238Y-105809523D01*
X150785714Y-105857142D01*
X151119047Y-105857142D01*
X151309523Y-105809523D01*
X151404761Y-105714285D01*
X151452380Y-105619047D01*
X151452380Y-105428571D01*
X150547619Y-106238095D02*
X150500000Y-106285714D01*
X150452380Y-106380952D01*
X150452380Y-106619047D01*
X150500000Y-106714285D01*
X150547619Y-106761904D01*
X150642857Y-106809523D01*
X150738095Y-106809523D01*
X150880952Y-106761904D01*
X151452380Y-106190476D01*
X151452380Y-106809523D01*
%TO.C,Q3*%
X153195238Y-115647619D02*
X153290476Y-115600000D01*
X153385714Y-115504761D01*
X153528571Y-115361904D01*
X153623809Y-115314285D01*
X153719047Y-115314285D01*
X153671428Y-115552380D02*
X153766666Y-115504761D01*
X153861904Y-115409523D01*
X153909523Y-115219047D01*
X153909523Y-114885714D01*
X153861904Y-114695238D01*
X153766666Y-114600000D01*
X153671428Y-114552380D01*
X153480952Y-114552380D01*
X153385714Y-114600000D01*
X153290476Y-114695238D01*
X153242857Y-114885714D01*
X153242857Y-115219047D01*
X153290476Y-115409523D01*
X153385714Y-115504761D01*
X153480952Y-115552380D01*
X153671428Y-115552380D01*
X152909523Y-114552380D02*
X152290476Y-114552380D01*
X152623809Y-114933333D01*
X152480952Y-114933333D01*
X152385714Y-114980952D01*
X152338095Y-115028571D01*
X152290476Y-115123809D01*
X152290476Y-115361904D01*
X152338095Y-115457142D01*
X152385714Y-115504761D01*
X152480952Y-115552380D01*
X152766666Y-115552380D01*
X152861904Y-115504761D01*
X152909523Y-115457142D01*
%TO.C,R1*%
X161352380Y-86833333D02*
X160876190Y-86500000D01*
X161352380Y-86261904D02*
X160352380Y-86261904D01*
X160352380Y-86642857D01*
X160400000Y-86738095D01*
X160447619Y-86785714D01*
X160542857Y-86833333D01*
X160685714Y-86833333D01*
X160780952Y-86785714D01*
X160828571Y-86738095D01*
X160876190Y-86642857D01*
X160876190Y-86261904D01*
X161352380Y-87785714D02*
X161352380Y-87214285D01*
X161352380Y-87500000D02*
X160352380Y-87500000D01*
X160495238Y-87404761D01*
X160590476Y-87309523D01*
X160638095Y-87214285D01*
%TO.C,R2*%
X163452380Y-95833333D02*
X162976190Y-95500000D01*
X163452380Y-95261904D02*
X162452380Y-95261904D01*
X162452380Y-95642857D01*
X162500000Y-95738095D01*
X162547619Y-95785714D01*
X162642857Y-95833333D01*
X162785714Y-95833333D01*
X162880952Y-95785714D01*
X162928571Y-95738095D01*
X162976190Y-95642857D01*
X162976190Y-95261904D01*
X162547619Y-96214285D02*
X162500000Y-96261904D01*
X162452380Y-96357142D01*
X162452380Y-96595238D01*
X162500000Y-96690476D01*
X162547619Y-96738095D01*
X162642857Y-96785714D01*
X162738095Y-96785714D01*
X162880952Y-96738095D01*
X163452380Y-96166666D01*
X163452380Y-96785714D01*
%TO.C,R3*%
X161452380Y-97833333D02*
X160976190Y-97500000D01*
X161452380Y-97261904D02*
X160452380Y-97261904D01*
X160452380Y-97642857D01*
X160500000Y-97738095D01*
X160547619Y-97785714D01*
X160642857Y-97833333D01*
X160785714Y-97833333D01*
X160880952Y-97785714D01*
X160928571Y-97738095D01*
X160976190Y-97642857D01*
X160976190Y-97261904D01*
X160452380Y-98166666D02*
X160452380Y-98785714D01*
X160833333Y-98452380D01*
X160833333Y-98595238D01*
X160880952Y-98690476D01*
X160928571Y-98738095D01*
X161023809Y-98785714D01*
X161261904Y-98785714D01*
X161357142Y-98738095D01*
X161404761Y-98690476D01*
X161452380Y-98595238D01*
X161452380Y-98309523D01*
X161404761Y-98214285D01*
X161357142Y-98166666D01*
%TO.C,R4*%
X158866666Y-108652380D02*
X159200000Y-108176190D01*
X159438095Y-108652380D02*
X159438095Y-107652380D01*
X159057142Y-107652380D01*
X158961904Y-107700000D01*
X158914285Y-107747619D01*
X158866666Y-107842857D01*
X158866666Y-107985714D01*
X158914285Y-108080952D01*
X158961904Y-108128571D01*
X159057142Y-108176190D01*
X159438095Y-108176190D01*
X158009523Y-107985714D02*
X158009523Y-108652380D01*
X158247619Y-107604761D02*
X158485714Y-108319047D01*
X157866666Y-108319047D01*
%TO.C,R5*%
X160452380Y-112833333D02*
X159976190Y-112500000D01*
X160452380Y-112261904D02*
X159452380Y-112261904D01*
X159452380Y-112642857D01*
X159500000Y-112738095D01*
X159547619Y-112785714D01*
X159642857Y-112833333D01*
X159785714Y-112833333D01*
X159880952Y-112785714D01*
X159928571Y-112738095D01*
X159976190Y-112642857D01*
X159976190Y-112261904D01*
X159452380Y-113738095D02*
X159452380Y-113261904D01*
X159928571Y-113214285D01*
X159880952Y-113261904D01*
X159833333Y-113357142D01*
X159833333Y-113595238D01*
X159880952Y-113690476D01*
X159928571Y-113738095D01*
X160023809Y-113785714D01*
X160261904Y-113785714D01*
X160357142Y-113738095D01*
X160404761Y-113690476D01*
X160452380Y-113595238D01*
X160452380Y-113357142D01*
X160404761Y-113261904D01*
X160357142Y-113214285D01*
%TD*%
M02*
