%TF.GenerationSoftware,KiCad,Pcbnew,(5.1.9)-1*%
%TF.CreationDate,2021-12-22T12:25:31+01:00*%
%TF.ProjectId,led_unterm_bett,6c65645f-756e-4746-9572-6d5f62657474,v1r1*%
%TF.SameCoordinates,Original*%
%TF.FileFunction,Soldermask,Bot*%
%TF.FilePolarity,Negative*%
%FSLAX46Y46*%
G04 Gerber Fmt 4.6, Leading zero omitted, Abs format (unit mm)*
G04 Created by KiCad (PCBNEW (5.1.9)-1) date 2021-12-22 12:25:31*
%MOMM*%
%LPD*%
G01*
G04 APERTURE LIST*
%TA.AperFunction,Profile*%
%ADD10C,0.150000*%
%TD*%
%ADD11C,5.600000*%
%ADD12R,1.700000X3.300000*%
%ADD13R,1.250000X1.500000*%
%ADD14R,2.000000X2.000000*%
%ADD15C,2.000000*%
%ADD16R,3.000000X3.000000*%
%ADD17C,3.000000*%
%ADD18R,0.800000X0.900000*%
%ADD19R,0.900000X0.800000*%
%ADD20R,1.300000X1.500000*%
%ADD21R,1.500000X1.300000*%
%ADD22R,1.800000X1.800000*%
%ADD23O,1.800000X1.800000*%
%ADD24R,1.700000X1.700000*%
%ADD25O,1.700000X1.700000*%
%ADD26C,1.524000*%
G04 APERTURE END LIST*
D10*
X173000000Y-136000000D02*
X117000000Y-136000000D01*
X173000000Y-59000000D02*
X173000000Y-136000000D01*
X117000000Y-59000000D02*
X173000000Y-59000000D01*
X117000000Y-136000000D02*
X117000000Y-59000000D01*
X173000000Y-136000000D02*
X117000000Y-136000000D01*
X173000000Y-59000000D02*
X173000000Y-136000000D01*
X117000000Y-59000000D02*
X173000000Y-59000000D01*
X117000000Y-136000000D02*
X117000000Y-59000000D01*
D11*
%TO.C,REF\u002A\u002A*%
X123000000Y-130000000D03*
%TD*%
%TO.C,REF\u002A\u002A*%
X167000000Y-65000000D03*
%TD*%
D12*
%TO.C,D3*%
X166700000Y-81450000D03*
X166700000Y-75950000D03*
%TD*%
%TO.C,D2*%
X162800000Y-81450000D03*
X162800000Y-75950000D03*
%TD*%
%TO.C,D1*%
X159100000Y-81450000D03*
X159100000Y-75950000D03*
%TD*%
D13*
%TO.C,C1*%
X160000000Y-93750000D03*
X160000000Y-91250000D03*
%TD*%
%TO.C,C2*%
X138500000Y-116650000D03*
X138500000Y-114150000D03*
%TD*%
%TO.C,C3*%
X138700000Y-126750000D03*
X138700000Y-124250000D03*
%TD*%
%TO.C,C4*%
X162600000Y-106450000D03*
X162600000Y-103950000D03*
%TD*%
%TO.C,C5*%
X162800000Y-124150000D03*
X162800000Y-126650000D03*
%TD*%
D14*
%TO.C,C6*%
X129500000Y-77800000D03*
D15*
X126000000Y-77800000D03*
%TD*%
D14*
%TO.C,C7*%
X124300000Y-100700000D03*
D15*
X127800000Y-100700000D03*
%TD*%
D14*
%TO.C,C8*%
X127500000Y-118100000D03*
D15*
X127500000Y-114600000D03*
%TD*%
D16*
%TO.C,J5*%
X124500000Y-66600000D03*
D17*
X129580000Y-66600000D03*
%TD*%
D18*
%TO.C,Q1*%
X159650000Y-101200000D03*
X157750000Y-101200000D03*
X158700000Y-99200000D03*
%TD*%
%TO.C,Q2*%
X154450000Y-106600000D03*
X152550000Y-106600000D03*
X153500000Y-104600000D03*
%TD*%
D19*
%TO.C,Q3*%
X155200000Y-111550000D03*
X155200000Y-113450000D03*
X153200000Y-112500000D03*
%TD*%
D20*
%TO.C,R1*%
X162600000Y-85650000D03*
X162600000Y-88350000D03*
%TD*%
%TO.C,R2*%
X162600000Y-91150000D03*
X162600000Y-93850000D03*
%TD*%
%TO.C,R3*%
X162600000Y-101250000D03*
X162600000Y-98550000D03*
%TD*%
D21*
%TO.C,R4*%
X157350000Y-106500000D03*
X160050000Y-106500000D03*
%TD*%
D20*
%TO.C,R5*%
X158100000Y-111550000D03*
X158100000Y-114250000D03*
%TD*%
D22*
%TO.C,U2*%
X129400000Y-89400000D03*
D23*
X126860000Y-89400000D03*
X124320000Y-89400000D03*
%TD*%
D24*
%TO.C,J1*%
X153900000Y-72500000D03*
D25*
X151360000Y-72500000D03*
X148820000Y-72500000D03*
%TD*%
D24*
%TO.C,J2*%
X153900000Y-68500000D03*
D25*
X151360000Y-68500000D03*
X148820000Y-68500000D03*
%TD*%
D24*
%TO.C,J3*%
X153900000Y-64500000D03*
D25*
X151360000Y-64500000D03*
X148820000Y-64500000D03*
%TD*%
D24*
%TO.C,J4*%
X133400000Y-126800000D03*
D25*
X130860000Y-126800000D03*
%TD*%
D24*
%TO.C,J6*%
X143100000Y-64500000D03*
D25*
X140560000Y-64500000D03*
X138020000Y-64500000D03*
X135480000Y-64500000D03*
%TD*%
D26*
%TO.C,U1*%
X142035000Y-91250000D03*
X142035000Y-93790000D03*
X142035000Y-96330000D03*
X142035000Y-98870000D03*
X142035000Y-101410000D03*
X142035000Y-103950000D03*
X142035000Y-106490000D03*
X142035000Y-109030000D03*
X142035000Y-111570000D03*
X142035000Y-114110000D03*
X142035000Y-116650000D03*
X142035000Y-119190000D03*
X142035000Y-121730000D03*
X142035000Y-124270000D03*
X142035000Y-126810000D03*
X165530000Y-126810000D03*
X165530000Y-124270000D03*
X165530000Y-121730000D03*
X165530000Y-119190000D03*
X165530000Y-116650000D03*
X165530000Y-114110000D03*
X165530000Y-111570000D03*
X165530000Y-109030000D03*
X165530000Y-106490000D03*
X165530000Y-103950000D03*
X165530000Y-101410000D03*
X165530000Y-98870000D03*
X165530000Y-96330000D03*
X165530000Y-93790000D03*
X165530000Y-91250000D03*
%TD*%
M02*
