%TF.GenerationSoftware,KiCad,Pcbnew,(5.1.9)-1*%
%TF.CreationDate,2021-12-22T12:25:31+01:00*%
%TF.ProjectId,led_unterm_bett,6c65645f-756e-4746-9572-6d5f62657474,v1r1*%
%TF.SameCoordinates,Original*%
%TF.FileFunction,Copper,L1,Top*%
%TF.FilePolarity,Positive*%
%FSLAX46Y46*%
G04 Gerber Fmt 4.6, Leading zero omitted, Abs format (unit mm)*
G04 Created by KiCad (PCBNEW (5.1.9)-1) date 2021-12-22 12:25:31*
%MOMM*%
%LPD*%
G01*
G04 APERTURE LIST*
%TA.AperFunction,NonConductor*%
%ADD10C,0.700000*%
%TD*%
%TA.AperFunction,Profile*%
%ADD11C,0.150000*%
%TD*%
%TA.AperFunction,ComponentPad*%
%ADD12C,5.600000*%
%TD*%
%TA.AperFunction,ComponentPad*%
%ADD13R,2.000000X2.000000*%
%TD*%
%TA.AperFunction,ComponentPad*%
%ADD14C,2.000000*%
%TD*%
%TA.AperFunction,ComponentPad*%
%ADD15R,3.000000X3.000000*%
%TD*%
%TA.AperFunction,ComponentPad*%
%ADD16C,3.000000*%
%TD*%
%TA.AperFunction,ComponentPad*%
%ADD17R,1.800000X1.800000*%
%TD*%
%TA.AperFunction,ComponentPad*%
%ADD18O,1.800000X1.800000*%
%TD*%
%TA.AperFunction,ComponentPad*%
%ADD19R,1.700000X1.700000*%
%TD*%
%TA.AperFunction,ComponentPad*%
%ADD20O,1.700000X1.700000*%
%TD*%
%TA.AperFunction,ComponentPad*%
%ADD21C,1.524000*%
%TD*%
%TA.AperFunction,ViaPad*%
%ADD22C,1.500000*%
%TD*%
%TA.AperFunction,Conductor*%
%ADD23C,1.300000*%
%TD*%
%TA.AperFunction,Conductor*%
%ADD24C,0.400000*%
%TD*%
%TA.AperFunction,Conductor*%
%ADD25C,0.100000*%
%TD*%
G04 APERTURE END LIST*
D10*
X147061904Y-118409523D02*
X149347619Y-118409523D01*
X148204761Y-122409523D02*
X148204761Y-118409523D01*
X151442857Y-118409523D02*
X152204761Y-118409523D01*
X152585714Y-118600000D01*
X152966666Y-118980952D01*
X153157142Y-119742857D01*
X153157142Y-121076190D01*
X152966666Y-121838095D01*
X152585714Y-122219047D01*
X152204761Y-122409523D01*
X151442857Y-122409523D01*
X151061904Y-122219047D01*
X150680952Y-121838095D01*
X150490476Y-121076190D01*
X150490476Y-119742857D01*
X150680952Y-118980952D01*
X151061904Y-118600000D01*
X151442857Y-118409523D01*
X154871428Y-122409523D02*
X154871428Y-118409523D01*
X156395238Y-118409523D01*
X156776190Y-118600000D01*
X156966666Y-118790476D01*
X157157142Y-119171428D01*
X157157142Y-119742857D01*
X156966666Y-120123809D01*
X156776190Y-120314285D01*
X156395238Y-120504761D01*
X154871428Y-120504761D01*
D11*
X173000000Y-136000000D02*
X117000000Y-136000000D01*
X173000000Y-59000000D02*
X173000000Y-136000000D01*
X117000000Y-59000000D02*
X173000000Y-59000000D01*
X117000000Y-136000000D02*
X117000000Y-59000000D01*
D12*
%TO.P,REF\u002A\u002A,1*%
%TO.N,N/C*%
X123000000Y-130000000D03*
%TD*%
%TO.P,REF\u002A\u002A,1*%
%TO.N,N/C*%
X167000000Y-65000000D03*
%TD*%
D13*
%TO.P,C6,1*%
%TO.N,+12V*%
X129500000Y-77800000D03*
D14*
%TO.P,C6,2*%
%TO.N,GND*%
X126000000Y-77800000D03*
%TD*%
D13*
%TO.P,C7,1*%
%TO.N,+5V*%
X124300000Y-100700000D03*
D14*
%TO.P,C7,2*%
%TO.N,GND*%
X127800000Y-100700000D03*
%TD*%
D13*
%TO.P,C8,1*%
%TO.N,Net-(C8-Pad1)*%
X127500000Y-118100000D03*
D14*
%TO.P,C8,2*%
%TO.N,GND*%
X127500000Y-114600000D03*
%TD*%
D15*
%TO.P,J5,1*%
%TO.N,GND*%
X124500000Y-66600000D03*
D16*
%TO.P,J5,2*%
%TO.N,+12V*%
X129580000Y-66600000D03*
%TD*%
D17*
%TO.P,U2,1*%
%TO.N,+12V*%
X129400000Y-89400000D03*
D18*
%TO.P,U2,2*%
%TO.N,GND*%
X126860000Y-89400000D03*
%TO.P,U2,3*%
%TO.N,+5V*%
X124320000Y-89400000D03*
%TD*%
D19*
%TO.P,J1,1*%
%TO.N,Net-(D1-Pad2)*%
X153900000Y-72500000D03*
D20*
%TO.P,J1,2*%
%TO.N,+5V*%
X151360000Y-72500000D03*
%TO.P,J1,3*%
%TO.N,GND*%
X148820000Y-72500000D03*
%TD*%
D19*
%TO.P,J2,1*%
%TO.N,Net-(D2-Pad2)*%
X153900000Y-68500000D03*
D20*
%TO.P,J2,2*%
%TO.N,+5V*%
X151360000Y-68500000D03*
%TO.P,J2,3*%
%TO.N,GND*%
X148820000Y-68500000D03*
%TD*%
D19*
%TO.P,J3,1*%
%TO.N,Net-(D3-Pad2)*%
X153900000Y-64500000D03*
D20*
%TO.P,J3,2*%
%TO.N,+5V*%
X151360000Y-64500000D03*
%TO.P,J3,3*%
%TO.N,GND*%
X148820000Y-64500000D03*
%TD*%
D19*
%TO.P,J4,1*%
%TO.N,Net-(C3-Pad1)*%
X133400000Y-126800000D03*
D20*
%TO.P,J4,2*%
%TO.N,+5V*%
X130860000Y-126800000D03*
%TD*%
D19*
%TO.P,J6,1*%
%TO.N,Net-(J6-Pad1)*%
X143100000Y-64500000D03*
D20*
%TO.P,J6,2*%
%TO.N,Net-(J6-Pad2)*%
X140560000Y-64500000D03*
%TO.P,J6,3*%
%TO.N,Net-(J6-Pad3)*%
X138020000Y-64500000D03*
%TO.P,J6,4*%
%TO.N,+12V*%
X135480000Y-64500000D03*
%TD*%
D21*
%TO.P,U1,1*%
%TO.N,N/C*%
X142035000Y-91250000D03*
%TO.P,U1,2*%
X142035000Y-93790000D03*
%TO.P,U1,3*%
X142035000Y-96330000D03*
%TO.P,U1,4*%
X142035000Y-98870000D03*
%TO.P,U1,5*%
X142035000Y-101410000D03*
%TO.P,U1,6*%
X142035000Y-103950000D03*
%TO.P,U1,7*%
X142035000Y-106490000D03*
%TO.P,U1,8*%
X142035000Y-109030000D03*
%TO.P,U1,9*%
X142035000Y-111570000D03*
%TO.P,U1,10*%
%TO.N,GND*%
X142035000Y-114110000D03*
%TO.P,U1,11*%
%TO.N,Net-(C2-Pad1)*%
X142035000Y-116650000D03*
%TO.P,U1,12*%
%TO.N,Net-(C8-Pad1)*%
X142035000Y-119190000D03*
%TO.P,U1,13*%
%TO.N,N/C*%
X142035000Y-121730000D03*
%TO.P,U1,14*%
%TO.N,GND*%
X142035000Y-124270000D03*
%TO.P,U1,15*%
%TO.N,Net-(C3-Pad1)*%
X142035000Y-126810000D03*
%TO.P,U1,16*%
%TO.N,Net-(C5-Pad2)*%
X165530000Y-126810000D03*
%TO.P,U1,17*%
%TO.N,GND*%
X165530000Y-124270000D03*
%TO.P,U1,18*%
%TO.N,N/C*%
X165530000Y-121730000D03*
%TO.P,U1,19*%
X165530000Y-119190000D03*
%TO.P,U1,20*%
X165530000Y-116650000D03*
%TO.P,U1,21*%
X165530000Y-114110000D03*
%TO.P,U1,22*%
%TO.N,Net-(Q3-Pad1)*%
X165530000Y-111570000D03*
%TO.P,U1,23*%
%TO.N,Net-(Q2-Pad1)*%
X165530000Y-109030000D03*
%TO.P,U1,24*%
%TO.N,GND*%
X165530000Y-106490000D03*
%TO.P,U1,25*%
%TO.N,Net-(C4-Pad2)*%
X165530000Y-103950000D03*
%TO.P,U1,26*%
%TO.N,Net-(Q1-Pad1)*%
X165530000Y-101410000D03*
%TO.P,U1,27*%
%TO.N,N/C*%
X165530000Y-98870000D03*
%TO.P,U1,28*%
X165530000Y-96330000D03*
%TO.P,U1,29*%
X165530000Y-93790000D03*
%TO.P,U1,30*%
%TO.N,Net-(C1-Pad2)*%
X165530000Y-91250000D03*
%TD*%
D22*
%TO.N,GND*%
X124600000Y-70800000D03*
X152900000Y-109100000D03*
%TO.N,+5V*%
X151400000Y-77400000D03*
%TD*%
D23*
%TO.N,GND*%
X124600000Y-70800000D02*
X124500000Y-70700000D01*
X124500000Y-70700000D02*
X125000000Y-71200000D01*
X152900000Y-109100000D02*
X152900000Y-109200000D01*
%TO.N,+5V*%
X124320000Y-89400000D02*
X124320000Y-87080000D01*
X147800000Y-81000000D02*
X151400000Y-77400000D01*
X130400000Y-81000000D02*
X147800000Y-81000000D01*
X124320000Y-87080000D02*
X130400000Y-81000000D01*
%TD*%
D24*
%TO.N,GND*%
X171725001Y-134725000D02*
X118275000Y-134725000D01*
X118275000Y-129606034D01*
X119000000Y-129606034D01*
X119000000Y-130393966D01*
X119153718Y-131166757D01*
X119455246Y-131894710D01*
X119892997Y-132549851D01*
X120450149Y-133107003D01*
X121105290Y-133544754D01*
X121833243Y-133846282D01*
X122606034Y-134000000D01*
X123393966Y-134000000D01*
X124166757Y-133846282D01*
X124894710Y-133544754D01*
X125549851Y-133107003D01*
X126107003Y-132549851D01*
X126544754Y-131894710D01*
X126846282Y-131166757D01*
X127000000Y-130393966D01*
X127000000Y-129606034D01*
X126846282Y-128833243D01*
X126544754Y-128105290D01*
X126107003Y-127450149D01*
X125549851Y-126892997D01*
X125108496Y-126598093D01*
X128810000Y-126598093D01*
X128810000Y-127001907D01*
X128888780Y-127397963D01*
X129043314Y-127771039D01*
X129267661Y-128106799D01*
X129553201Y-128392339D01*
X129888961Y-128616686D01*
X130262037Y-128771220D01*
X130658093Y-128850000D01*
X131061907Y-128850000D01*
X131457963Y-128771220D01*
X131831039Y-128616686D01*
X131833961Y-128614734D01*
X131880090Y-128652591D01*
X132088558Y-128764019D01*
X132314759Y-128832637D01*
X132550000Y-128855806D01*
X134250000Y-128855806D01*
X134485241Y-128832637D01*
X134711442Y-128764019D01*
X134919910Y-128652591D01*
X135102634Y-128502634D01*
X135252591Y-128319910D01*
X135364019Y-128111442D01*
X135432637Y-127885241D01*
X135455806Y-127650000D01*
X135455806Y-125950000D01*
X135432637Y-125714759D01*
X135364019Y-125488558D01*
X135252591Y-125280090D01*
X135102634Y-125097366D01*
X134919910Y-124947409D01*
X134711442Y-124835981D01*
X134485241Y-124767363D01*
X134250000Y-124744194D01*
X132550000Y-124744194D01*
X132314759Y-124767363D01*
X132088558Y-124835981D01*
X131880090Y-124947409D01*
X131833961Y-124985266D01*
X131831039Y-124983314D01*
X131457963Y-124828780D01*
X131061907Y-124750000D01*
X130658093Y-124750000D01*
X130262037Y-124828780D01*
X129888961Y-124983314D01*
X129553201Y-125207661D01*
X129267661Y-125493201D01*
X129043314Y-125828961D01*
X128888780Y-126202037D01*
X128810000Y-126598093D01*
X125108496Y-126598093D01*
X124894710Y-126455246D01*
X124166757Y-126153718D01*
X123393966Y-126000000D01*
X122606034Y-126000000D01*
X121833243Y-126153718D01*
X121105290Y-126455246D01*
X120450149Y-126892997D01*
X119892997Y-127450149D01*
X119455246Y-128105290D01*
X119153718Y-128833243D01*
X119000000Y-129606034D01*
X118275000Y-129606034D01*
X118275000Y-117100000D01*
X125294194Y-117100000D01*
X125294194Y-119100000D01*
X125317363Y-119335241D01*
X125385981Y-119561442D01*
X125497409Y-119769910D01*
X125647366Y-119952634D01*
X125830090Y-120102591D01*
X126038558Y-120214019D01*
X126264759Y-120282637D01*
X126500000Y-120305806D01*
X128500000Y-120305806D01*
X128735241Y-120282637D01*
X128961442Y-120214019D01*
X129169910Y-120102591D01*
X129352634Y-119952634D01*
X129502591Y-119769910D01*
X129614019Y-119561442D01*
X129682637Y-119335241D01*
X129705806Y-119100000D01*
X129705806Y-117100000D01*
X129682637Y-116864759D01*
X129614019Y-116638558D01*
X129502591Y-116430090D01*
X129352634Y-116247366D01*
X129169910Y-116097409D01*
X128961442Y-115985981D01*
X128735241Y-115917363D01*
X128637647Y-115907751D01*
X128655024Y-115825735D01*
X127500000Y-114670711D01*
X126344976Y-115825735D01*
X126362353Y-115907751D01*
X126264759Y-115917363D01*
X126038558Y-115985981D01*
X125830090Y-116097409D01*
X125647366Y-116247366D01*
X125497409Y-116430090D01*
X125385981Y-116638558D01*
X125317363Y-116864759D01*
X125294194Y-117100000D01*
X118275000Y-117100000D01*
X118275000Y-114575033D01*
X125590970Y-114575033D01*
X125622781Y-114947947D01*
X125726732Y-115307489D01*
X125898829Y-115639842D01*
X125926571Y-115681359D01*
X126274265Y-115755024D01*
X127429289Y-114600000D01*
X127570711Y-114600000D01*
X128725735Y-115755024D01*
X129073429Y-115681359D01*
X129254159Y-115353620D01*
X129367477Y-114996920D01*
X129409030Y-114624967D01*
X129377219Y-114252053D01*
X129273268Y-113892511D01*
X129101171Y-113560158D01*
X129073429Y-113518641D01*
X128725735Y-113444976D01*
X127570711Y-114600000D01*
X127429289Y-114600000D01*
X126274265Y-113444976D01*
X125926571Y-113518641D01*
X125745841Y-113846380D01*
X125632523Y-114203080D01*
X125590970Y-114575033D01*
X118275000Y-114575033D01*
X118275000Y-113374265D01*
X126344976Y-113374265D01*
X127500000Y-114529289D01*
X128655024Y-113374265D01*
X128581359Y-113026571D01*
X128253620Y-112845841D01*
X127896920Y-112732523D01*
X127524967Y-112690970D01*
X127152053Y-112722781D01*
X126792511Y-112826732D01*
X126460158Y-112998829D01*
X126418641Y-113026571D01*
X126344976Y-113374265D01*
X118275000Y-113374265D01*
X118275000Y-99700000D01*
X122094194Y-99700000D01*
X122094194Y-101700000D01*
X122117363Y-101935241D01*
X122185981Y-102161442D01*
X122297409Y-102369910D01*
X122447366Y-102552634D01*
X122630090Y-102702591D01*
X122838558Y-102814019D01*
X123064759Y-102882637D01*
X123300000Y-102905806D01*
X125300000Y-102905806D01*
X125535241Y-102882637D01*
X125761442Y-102814019D01*
X125969910Y-102702591D01*
X126152634Y-102552634D01*
X126302591Y-102369910D01*
X126414019Y-102161442D01*
X126482637Y-101935241D01*
X126483573Y-101925735D01*
X126644976Y-101925735D01*
X126718641Y-102273429D01*
X127046380Y-102454159D01*
X127403080Y-102567477D01*
X127775033Y-102609030D01*
X128147947Y-102577219D01*
X128507489Y-102473268D01*
X128839842Y-102301171D01*
X128881359Y-102273429D01*
X128955024Y-101925735D01*
X127800000Y-100770711D01*
X126644976Y-101925735D01*
X126483573Y-101925735D01*
X126492249Y-101837647D01*
X126574265Y-101855024D01*
X127729289Y-100700000D01*
X127870711Y-100700000D01*
X129025735Y-101855024D01*
X129373429Y-101781359D01*
X129554159Y-101453620D01*
X129667477Y-101096920D01*
X129709030Y-100724967D01*
X129677219Y-100352053D01*
X129573268Y-99992511D01*
X129401171Y-99660158D01*
X129373429Y-99618641D01*
X129025735Y-99544976D01*
X127870711Y-100700000D01*
X127729289Y-100700000D01*
X126574265Y-99544976D01*
X126492249Y-99562353D01*
X126483574Y-99474265D01*
X126644976Y-99474265D01*
X127800000Y-100629289D01*
X128955024Y-99474265D01*
X128881359Y-99126571D01*
X128553620Y-98945841D01*
X128196920Y-98832523D01*
X127824967Y-98790970D01*
X127452053Y-98822781D01*
X127092511Y-98926732D01*
X126760158Y-99098829D01*
X126718641Y-99126571D01*
X126644976Y-99474265D01*
X126483574Y-99474265D01*
X126482637Y-99464759D01*
X126414019Y-99238558D01*
X126302591Y-99030090D01*
X126152634Y-98847366D01*
X125969910Y-98697409D01*
X125761442Y-98585981D01*
X125535241Y-98517363D01*
X125300000Y-98494194D01*
X123300000Y-98494194D01*
X123064759Y-98517363D01*
X122838558Y-98585981D01*
X122630090Y-98697409D01*
X122447366Y-98847366D01*
X122297409Y-99030090D01*
X122185981Y-99238558D01*
X122117363Y-99464759D01*
X122094194Y-99700000D01*
X118275000Y-99700000D01*
X118275000Y-89193168D01*
X122220000Y-89193168D01*
X122220000Y-89606832D01*
X122300702Y-90012547D01*
X122459004Y-90394723D01*
X122688823Y-90738672D01*
X122981328Y-91031177D01*
X123325277Y-91260996D01*
X123707453Y-91419298D01*
X124113168Y-91500000D01*
X124526832Y-91500000D01*
X124932547Y-91419298D01*
X125314723Y-91260996D01*
X125658672Y-91031177D01*
X125824269Y-90865580D01*
X125877233Y-90908037D01*
X126190320Y-91070789D01*
X126529142Y-91169333D01*
X126810000Y-90974307D01*
X126810000Y-89450000D01*
X126790000Y-89450000D01*
X126790000Y-89350000D01*
X126810000Y-89350000D01*
X126810000Y-87825693D01*
X126910000Y-87825693D01*
X126910000Y-89350000D01*
X126930000Y-89350000D01*
X126930000Y-89450000D01*
X126910000Y-89450000D01*
X126910000Y-90974307D01*
X127190858Y-91169333D01*
X127529680Y-91070789D01*
X127565091Y-91052381D01*
X127647366Y-91152634D01*
X127830090Y-91302591D01*
X128038558Y-91414019D01*
X128264759Y-91482637D01*
X128500000Y-91505806D01*
X130300000Y-91505806D01*
X130535241Y-91482637D01*
X130761442Y-91414019D01*
X130969910Y-91302591D01*
X131152634Y-91152634D01*
X131231315Y-91056760D01*
X140073000Y-91056760D01*
X140073000Y-91443240D01*
X140148399Y-91822294D01*
X140296298Y-92179355D01*
X140511015Y-92500702D01*
X140530313Y-92520000D01*
X140511015Y-92539298D01*
X140296298Y-92860645D01*
X140148399Y-93217706D01*
X140073000Y-93596760D01*
X140073000Y-93983240D01*
X140148399Y-94362294D01*
X140296298Y-94719355D01*
X140511015Y-95040702D01*
X140530313Y-95060000D01*
X140511015Y-95079298D01*
X140296298Y-95400645D01*
X140148399Y-95757706D01*
X140073000Y-96136760D01*
X140073000Y-96523240D01*
X140148399Y-96902294D01*
X140296298Y-97259355D01*
X140511015Y-97580702D01*
X140530313Y-97600000D01*
X140511015Y-97619298D01*
X140296298Y-97940645D01*
X140148399Y-98297706D01*
X140073000Y-98676760D01*
X140073000Y-99063240D01*
X140148399Y-99442294D01*
X140296298Y-99799355D01*
X140511015Y-100120702D01*
X140530313Y-100140000D01*
X140511015Y-100159298D01*
X140296298Y-100480645D01*
X140148399Y-100837706D01*
X140073000Y-101216760D01*
X140073000Y-101603240D01*
X140148399Y-101982294D01*
X140296298Y-102339355D01*
X140511015Y-102660702D01*
X140530313Y-102680000D01*
X140511015Y-102699298D01*
X140296298Y-103020645D01*
X140148399Y-103377706D01*
X140073000Y-103756760D01*
X140073000Y-104143240D01*
X140148399Y-104522294D01*
X140296298Y-104879355D01*
X140511015Y-105200702D01*
X140530313Y-105220000D01*
X140511015Y-105239298D01*
X140296298Y-105560645D01*
X140148399Y-105917706D01*
X140073000Y-106296760D01*
X140073000Y-106683240D01*
X140148399Y-107062294D01*
X140296298Y-107419355D01*
X140511015Y-107740702D01*
X140530313Y-107760000D01*
X140511015Y-107779298D01*
X140296298Y-108100645D01*
X140148399Y-108457706D01*
X140073000Y-108836760D01*
X140073000Y-109223240D01*
X140148399Y-109602294D01*
X140296298Y-109959355D01*
X140511015Y-110280702D01*
X140530313Y-110300000D01*
X140511015Y-110319298D01*
X140296298Y-110640645D01*
X140148399Y-110997706D01*
X140073000Y-111376760D01*
X140073000Y-111763240D01*
X140148399Y-112142294D01*
X140296298Y-112499355D01*
X140511015Y-112820702D01*
X140784298Y-113093985D01*
X140855198Y-113141359D01*
X140655124Y-113169264D01*
X140498110Y-113456541D01*
X140400157Y-113768929D01*
X140365031Y-114094425D01*
X140394080Y-114420518D01*
X140486189Y-114734679D01*
X140637817Y-115024834D01*
X140655124Y-115050736D01*
X140855198Y-115078641D01*
X140784298Y-115126015D01*
X140511015Y-115399298D01*
X140296298Y-115720645D01*
X140148399Y-116077706D01*
X140073000Y-116456760D01*
X140073000Y-116843240D01*
X140148399Y-117222294D01*
X140296298Y-117579355D01*
X140511015Y-117900702D01*
X140530313Y-117920000D01*
X140511015Y-117939298D01*
X140296298Y-118260645D01*
X140148399Y-118617706D01*
X140073000Y-118996760D01*
X140073000Y-119383240D01*
X140148399Y-119762294D01*
X140296298Y-120119355D01*
X140511015Y-120440702D01*
X140530313Y-120460000D01*
X140511015Y-120479298D01*
X140296298Y-120800645D01*
X140148399Y-121157706D01*
X140073000Y-121536760D01*
X140073000Y-121923240D01*
X140148399Y-122302294D01*
X140296298Y-122659355D01*
X140511015Y-122980702D01*
X140784298Y-123253985D01*
X140855198Y-123301359D01*
X140655124Y-123329264D01*
X140498110Y-123616541D01*
X140400157Y-123928929D01*
X140365031Y-124254425D01*
X140394080Y-124580518D01*
X140486189Y-124894679D01*
X140637817Y-125184834D01*
X140655124Y-125210736D01*
X140855198Y-125238641D01*
X140784298Y-125286015D01*
X140511015Y-125559298D01*
X140296298Y-125880645D01*
X140148399Y-126237706D01*
X140073000Y-126616760D01*
X140073000Y-127003240D01*
X140148399Y-127382294D01*
X140296298Y-127739355D01*
X140511015Y-128060702D01*
X140784298Y-128333985D01*
X141105645Y-128548702D01*
X141462706Y-128696601D01*
X141841760Y-128772000D01*
X142228240Y-128772000D01*
X142607294Y-128696601D01*
X142964355Y-128548702D01*
X143285702Y-128333985D01*
X143558985Y-128060702D01*
X143773702Y-127739355D01*
X143921601Y-127382294D01*
X143997000Y-127003240D01*
X143997000Y-126616760D01*
X143921601Y-126237706D01*
X143773702Y-125880645D01*
X143558985Y-125559298D01*
X143285702Y-125286015D01*
X143214802Y-125238641D01*
X143414876Y-125210736D01*
X143571890Y-124923459D01*
X143669843Y-124611071D01*
X143704969Y-124285575D01*
X143675920Y-123959482D01*
X143583811Y-123645321D01*
X143432183Y-123355166D01*
X143414876Y-123329264D01*
X143214802Y-123301359D01*
X143285702Y-123253985D01*
X143558985Y-122980702D01*
X143773702Y-122659355D01*
X143921601Y-122302294D01*
X143997000Y-121923240D01*
X143997000Y-121536760D01*
X143921601Y-121157706D01*
X143773702Y-120800645D01*
X143558985Y-120479298D01*
X143539687Y-120460000D01*
X143558985Y-120440702D01*
X143773702Y-120119355D01*
X143921601Y-119762294D01*
X143997000Y-119383240D01*
X143997000Y-118996760D01*
X143921601Y-118617706D01*
X143773702Y-118260645D01*
X143558985Y-117939298D01*
X143539687Y-117920000D01*
X143558985Y-117900702D01*
X143773702Y-117579355D01*
X143921601Y-117222294D01*
X143997000Y-116843240D01*
X143997000Y-116456760D01*
X143974770Y-116345000D01*
X145130953Y-116345000D01*
X145130953Y-125445000D01*
X159469048Y-125445000D01*
X159469048Y-116345000D01*
X145130953Y-116345000D01*
X143974770Y-116345000D01*
X143921601Y-116077706D01*
X143773702Y-115720645D01*
X143558985Y-115399298D01*
X143285702Y-115126015D01*
X143214802Y-115078641D01*
X143414876Y-115050736D01*
X143571890Y-114763459D01*
X143669843Y-114451071D01*
X143704969Y-114125575D01*
X143675920Y-113799482D01*
X143583811Y-113485321D01*
X143432183Y-113195166D01*
X143414876Y-113169264D01*
X143214802Y-113141359D01*
X143285702Y-113093985D01*
X143558985Y-112820702D01*
X143773702Y-112499355D01*
X143921601Y-112142294D01*
X143997000Y-111763240D01*
X143997000Y-111376760D01*
X143921601Y-110997706D01*
X143773702Y-110640645D01*
X143558985Y-110319298D01*
X143539687Y-110300000D01*
X143558985Y-110280702D01*
X143773702Y-109959355D01*
X143921601Y-109602294D01*
X143997000Y-109223240D01*
X143997000Y-108836760D01*
X143921601Y-108457706D01*
X143773702Y-108100645D01*
X143558985Y-107779298D01*
X143539687Y-107760000D01*
X143558985Y-107740702D01*
X143773702Y-107419355D01*
X143921601Y-107062294D01*
X143997000Y-106683240D01*
X143997000Y-106296760D01*
X143921601Y-105917706D01*
X143773702Y-105560645D01*
X143558985Y-105239298D01*
X143539687Y-105220000D01*
X143558985Y-105200702D01*
X143773702Y-104879355D01*
X143921601Y-104522294D01*
X143997000Y-104143240D01*
X143997000Y-103756760D01*
X143921601Y-103377706D01*
X143773702Y-103020645D01*
X143558985Y-102699298D01*
X143539687Y-102680000D01*
X143558985Y-102660702D01*
X143773702Y-102339355D01*
X143921601Y-101982294D01*
X143997000Y-101603240D01*
X143997000Y-101216760D01*
X143921601Y-100837706D01*
X143773702Y-100480645D01*
X143558985Y-100159298D01*
X143539687Y-100140000D01*
X143558985Y-100120702D01*
X143773702Y-99799355D01*
X143921601Y-99442294D01*
X143997000Y-99063240D01*
X143997000Y-98676760D01*
X143921601Y-98297706D01*
X143773702Y-97940645D01*
X143558985Y-97619298D01*
X143539687Y-97600000D01*
X143558985Y-97580702D01*
X143773702Y-97259355D01*
X143921601Y-96902294D01*
X143997000Y-96523240D01*
X143997000Y-96136760D01*
X143921601Y-95757706D01*
X143773702Y-95400645D01*
X143558985Y-95079298D01*
X143539687Y-95060000D01*
X143558985Y-95040702D01*
X143773702Y-94719355D01*
X143921601Y-94362294D01*
X143997000Y-93983240D01*
X143997000Y-93596760D01*
X143921601Y-93217706D01*
X143773702Y-92860645D01*
X143558985Y-92539298D01*
X143539687Y-92520000D01*
X143558985Y-92500702D01*
X143773702Y-92179355D01*
X143921601Y-91822294D01*
X143997000Y-91443240D01*
X143997000Y-91056760D01*
X163568000Y-91056760D01*
X163568000Y-91443240D01*
X163643399Y-91822294D01*
X163791298Y-92179355D01*
X164006015Y-92500702D01*
X164025313Y-92520000D01*
X164006015Y-92539298D01*
X163791298Y-92860645D01*
X163643399Y-93217706D01*
X163568000Y-93596760D01*
X163568000Y-93983240D01*
X163643399Y-94362294D01*
X163791298Y-94719355D01*
X164006015Y-95040702D01*
X164025313Y-95060000D01*
X164006015Y-95079298D01*
X163791298Y-95400645D01*
X163643399Y-95757706D01*
X163568000Y-96136760D01*
X163568000Y-96523240D01*
X163643399Y-96902294D01*
X163791298Y-97259355D01*
X164006015Y-97580702D01*
X164025313Y-97600000D01*
X164006015Y-97619298D01*
X163791298Y-97940645D01*
X163643399Y-98297706D01*
X163568000Y-98676760D01*
X163568000Y-99063240D01*
X163643399Y-99442294D01*
X163791298Y-99799355D01*
X164006015Y-100120702D01*
X164025313Y-100140000D01*
X164006015Y-100159298D01*
X163791298Y-100480645D01*
X163643399Y-100837706D01*
X163568000Y-101216760D01*
X163568000Y-101603240D01*
X163643399Y-101982294D01*
X163791298Y-102339355D01*
X164006015Y-102660702D01*
X164025313Y-102680000D01*
X164006015Y-102699298D01*
X163791298Y-103020645D01*
X163643399Y-103377706D01*
X163568000Y-103756760D01*
X163568000Y-104143240D01*
X163643399Y-104522294D01*
X163791298Y-104879355D01*
X164006015Y-105200702D01*
X164279298Y-105473985D01*
X164350198Y-105521359D01*
X164150124Y-105549264D01*
X163993110Y-105836541D01*
X163895157Y-106148929D01*
X163860031Y-106474425D01*
X163889080Y-106800518D01*
X163981189Y-107114679D01*
X164132817Y-107404834D01*
X164150124Y-107430736D01*
X164350198Y-107458641D01*
X164279298Y-107506015D01*
X164006015Y-107779298D01*
X163791298Y-108100645D01*
X163643399Y-108457706D01*
X163568000Y-108836760D01*
X163568000Y-109223240D01*
X163643399Y-109602294D01*
X163791298Y-109959355D01*
X164006015Y-110280702D01*
X164025313Y-110300000D01*
X164006015Y-110319298D01*
X163791298Y-110640645D01*
X163643399Y-110997706D01*
X163568000Y-111376760D01*
X163568000Y-111763240D01*
X163643399Y-112142294D01*
X163791298Y-112499355D01*
X164006015Y-112820702D01*
X164025313Y-112840000D01*
X164006015Y-112859298D01*
X163791298Y-113180645D01*
X163643399Y-113537706D01*
X163568000Y-113916760D01*
X163568000Y-114303240D01*
X163643399Y-114682294D01*
X163791298Y-115039355D01*
X164006015Y-115360702D01*
X164025313Y-115380000D01*
X164006015Y-115399298D01*
X163791298Y-115720645D01*
X163643399Y-116077706D01*
X163568000Y-116456760D01*
X163568000Y-116843240D01*
X163643399Y-117222294D01*
X163791298Y-117579355D01*
X164006015Y-117900702D01*
X164025313Y-117920000D01*
X164006015Y-117939298D01*
X163791298Y-118260645D01*
X163643399Y-118617706D01*
X163568000Y-118996760D01*
X163568000Y-119383240D01*
X163643399Y-119762294D01*
X163791298Y-120119355D01*
X164006015Y-120440702D01*
X164025313Y-120460000D01*
X164006015Y-120479298D01*
X163791298Y-120800645D01*
X163643399Y-121157706D01*
X163568000Y-121536760D01*
X163568000Y-121923240D01*
X163643399Y-122302294D01*
X163791298Y-122659355D01*
X164006015Y-122980702D01*
X164279298Y-123253985D01*
X164350198Y-123301359D01*
X164150124Y-123329264D01*
X163993110Y-123616541D01*
X163895157Y-123928929D01*
X163860031Y-124254425D01*
X163889080Y-124580518D01*
X163981189Y-124894679D01*
X164132817Y-125184834D01*
X164150124Y-125210736D01*
X164350198Y-125238641D01*
X164279298Y-125286015D01*
X164006015Y-125559298D01*
X163791298Y-125880645D01*
X163643399Y-126237706D01*
X163568000Y-126616760D01*
X163568000Y-127003240D01*
X163643399Y-127382294D01*
X163791298Y-127739355D01*
X164006015Y-128060702D01*
X164279298Y-128333985D01*
X164600645Y-128548702D01*
X164957706Y-128696601D01*
X165336760Y-128772000D01*
X165723240Y-128772000D01*
X166102294Y-128696601D01*
X166459355Y-128548702D01*
X166780702Y-128333985D01*
X167053985Y-128060702D01*
X167268702Y-127739355D01*
X167416601Y-127382294D01*
X167492000Y-127003240D01*
X167492000Y-126616760D01*
X167416601Y-126237706D01*
X167268702Y-125880645D01*
X167053985Y-125559298D01*
X166780702Y-125286015D01*
X166709802Y-125238641D01*
X166909876Y-125210736D01*
X167066890Y-124923459D01*
X167164843Y-124611071D01*
X167199969Y-124285575D01*
X167170920Y-123959482D01*
X167078811Y-123645321D01*
X166927183Y-123355166D01*
X166909876Y-123329264D01*
X166709802Y-123301359D01*
X166780702Y-123253985D01*
X167053985Y-122980702D01*
X167268702Y-122659355D01*
X167416601Y-122302294D01*
X167492000Y-121923240D01*
X167492000Y-121536760D01*
X167416601Y-121157706D01*
X167268702Y-120800645D01*
X167053985Y-120479298D01*
X167034687Y-120460000D01*
X167053985Y-120440702D01*
X167268702Y-120119355D01*
X167416601Y-119762294D01*
X167492000Y-119383240D01*
X167492000Y-118996760D01*
X167416601Y-118617706D01*
X167268702Y-118260645D01*
X167053985Y-117939298D01*
X167034687Y-117920000D01*
X167053985Y-117900702D01*
X167268702Y-117579355D01*
X167416601Y-117222294D01*
X167492000Y-116843240D01*
X167492000Y-116456760D01*
X167416601Y-116077706D01*
X167268702Y-115720645D01*
X167053985Y-115399298D01*
X167034687Y-115380000D01*
X167053985Y-115360702D01*
X167268702Y-115039355D01*
X167416601Y-114682294D01*
X167492000Y-114303240D01*
X167492000Y-113916760D01*
X167416601Y-113537706D01*
X167268702Y-113180645D01*
X167053985Y-112859298D01*
X167034687Y-112840000D01*
X167053985Y-112820702D01*
X167268702Y-112499355D01*
X167416601Y-112142294D01*
X167492000Y-111763240D01*
X167492000Y-111376760D01*
X167416601Y-110997706D01*
X167268702Y-110640645D01*
X167053985Y-110319298D01*
X167034687Y-110300000D01*
X167053985Y-110280702D01*
X167268702Y-109959355D01*
X167416601Y-109602294D01*
X167492000Y-109223240D01*
X167492000Y-108836760D01*
X167416601Y-108457706D01*
X167268702Y-108100645D01*
X167053985Y-107779298D01*
X166780702Y-107506015D01*
X166709802Y-107458641D01*
X166909876Y-107430736D01*
X167066890Y-107143459D01*
X167164843Y-106831071D01*
X167199969Y-106505575D01*
X167170920Y-106179482D01*
X167078811Y-105865321D01*
X166927183Y-105575166D01*
X166909876Y-105549264D01*
X166709802Y-105521359D01*
X166780702Y-105473985D01*
X167053985Y-105200702D01*
X167268702Y-104879355D01*
X167416601Y-104522294D01*
X167492000Y-104143240D01*
X167492000Y-103756760D01*
X167416601Y-103377706D01*
X167268702Y-103020645D01*
X167053985Y-102699298D01*
X167034687Y-102680000D01*
X167053985Y-102660702D01*
X167268702Y-102339355D01*
X167416601Y-101982294D01*
X167492000Y-101603240D01*
X167492000Y-101216760D01*
X167416601Y-100837706D01*
X167268702Y-100480645D01*
X167053985Y-100159298D01*
X167034687Y-100140000D01*
X167053985Y-100120702D01*
X167268702Y-99799355D01*
X167416601Y-99442294D01*
X167492000Y-99063240D01*
X167492000Y-98676760D01*
X167416601Y-98297706D01*
X167268702Y-97940645D01*
X167053985Y-97619298D01*
X167034687Y-97600000D01*
X167053985Y-97580702D01*
X167268702Y-97259355D01*
X167416601Y-96902294D01*
X167492000Y-96523240D01*
X167492000Y-96136760D01*
X167416601Y-95757706D01*
X167268702Y-95400645D01*
X167053985Y-95079298D01*
X167034687Y-95060000D01*
X167053985Y-95040702D01*
X167268702Y-94719355D01*
X167416601Y-94362294D01*
X167492000Y-93983240D01*
X167492000Y-93596760D01*
X167416601Y-93217706D01*
X167268702Y-92860645D01*
X167053985Y-92539298D01*
X167034687Y-92520000D01*
X167053985Y-92500702D01*
X167268702Y-92179355D01*
X167416601Y-91822294D01*
X167492000Y-91443240D01*
X167492000Y-91056760D01*
X167416601Y-90677706D01*
X167268702Y-90320645D01*
X167053985Y-89999298D01*
X166780702Y-89726015D01*
X166459355Y-89511298D01*
X166102294Y-89363399D01*
X165723240Y-89288000D01*
X165336760Y-89288000D01*
X164957706Y-89363399D01*
X164600645Y-89511298D01*
X164279298Y-89726015D01*
X164006015Y-89999298D01*
X163791298Y-90320645D01*
X163643399Y-90677706D01*
X163568000Y-91056760D01*
X143997000Y-91056760D01*
X143921601Y-90677706D01*
X143773702Y-90320645D01*
X143558985Y-89999298D01*
X143285702Y-89726015D01*
X142964355Y-89511298D01*
X142607294Y-89363399D01*
X142228240Y-89288000D01*
X141841760Y-89288000D01*
X141462706Y-89363399D01*
X141105645Y-89511298D01*
X140784298Y-89726015D01*
X140511015Y-89999298D01*
X140296298Y-90320645D01*
X140148399Y-90677706D01*
X140073000Y-91056760D01*
X131231315Y-91056760D01*
X131302591Y-90969910D01*
X131414019Y-90761442D01*
X131482637Y-90535241D01*
X131505806Y-90300000D01*
X131505806Y-88500000D01*
X131482637Y-88264759D01*
X131414019Y-88038558D01*
X131302591Y-87830090D01*
X131152634Y-87647366D01*
X130969910Y-87497409D01*
X130761442Y-87385981D01*
X130535241Y-87317363D01*
X130300000Y-87294194D01*
X128500000Y-87294194D01*
X128264759Y-87317363D01*
X128038558Y-87385981D01*
X127830090Y-87497409D01*
X127647366Y-87647366D01*
X127565091Y-87747619D01*
X127529680Y-87729211D01*
X127190858Y-87630667D01*
X126910000Y-87825693D01*
X126810000Y-87825693D01*
X126529142Y-87630667D01*
X126326768Y-87689526D01*
X131166295Y-82850000D01*
X147709121Y-82850000D01*
X147800000Y-82858951D01*
X147890879Y-82850000D01*
X147890882Y-82850000D01*
X148162663Y-82823232D01*
X148511390Y-82717447D01*
X148832778Y-82545661D01*
X149114477Y-82314477D01*
X149172416Y-82243878D01*
X152263166Y-79153129D01*
X152323671Y-79128067D01*
X152643052Y-78914664D01*
X152914664Y-78643052D01*
X153128067Y-78323671D01*
X153275062Y-77968794D01*
X153350000Y-77592058D01*
X153350000Y-77207942D01*
X153275062Y-76831206D01*
X153128067Y-76476329D01*
X152914664Y-76156948D01*
X152643052Y-75885336D01*
X152323671Y-75671933D01*
X151968794Y-75524938D01*
X151592058Y-75450000D01*
X151207942Y-75450000D01*
X150831206Y-75524938D01*
X150476329Y-75671933D01*
X150156948Y-75885336D01*
X149885336Y-76156948D01*
X149671933Y-76476329D01*
X149646871Y-76536834D01*
X147033706Y-79150000D01*
X131647825Y-79150000D01*
X131682637Y-79035241D01*
X131705806Y-78800000D01*
X131705806Y-76800000D01*
X131682637Y-76564759D01*
X131614019Y-76338558D01*
X131502591Y-76130090D01*
X131352634Y-75947366D01*
X131169910Y-75797409D01*
X130961442Y-75685981D01*
X130735241Y-75617363D01*
X130500000Y-75594194D01*
X128500000Y-75594194D01*
X128264759Y-75617363D01*
X128038558Y-75685981D01*
X127830090Y-75797409D01*
X127647366Y-75947366D01*
X127497409Y-76130090D01*
X127385981Y-76338558D01*
X127317363Y-76564759D01*
X127307751Y-76662353D01*
X127225735Y-76644976D01*
X126070711Y-77800000D01*
X127225735Y-78955024D01*
X127307751Y-78937647D01*
X127317363Y-79035241D01*
X127385981Y-79261442D01*
X127497409Y-79469910D01*
X127647366Y-79652634D01*
X127830090Y-79802591D01*
X128038558Y-79914019D01*
X128264759Y-79982637D01*
X128500000Y-80005806D01*
X128777899Y-80005806D01*
X123076117Y-85707589D01*
X123005524Y-85765523D01*
X122947590Y-85836116D01*
X122774339Y-86047222D01*
X122602553Y-86368611D01*
X122496769Y-86717337D01*
X122461049Y-87080000D01*
X122470001Y-87170888D01*
X122470000Y-88388820D01*
X122459004Y-88405277D01*
X122300702Y-88787453D01*
X122220000Y-89193168D01*
X118275000Y-89193168D01*
X118275000Y-79025735D01*
X124844976Y-79025735D01*
X124918641Y-79373429D01*
X125246380Y-79554159D01*
X125603080Y-79667477D01*
X125975033Y-79709030D01*
X126347947Y-79677219D01*
X126707489Y-79573268D01*
X127039842Y-79401171D01*
X127081359Y-79373429D01*
X127155024Y-79025735D01*
X126000000Y-77870711D01*
X124844976Y-79025735D01*
X118275000Y-79025735D01*
X118275000Y-77775033D01*
X124090970Y-77775033D01*
X124122781Y-78147947D01*
X124226732Y-78507489D01*
X124398829Y-78839842D01*
X124426571Y-78881359D01*
X124774265Y-78955024D01*
X125929289Y-77800000D01*
X124774265Y-76644976D01*
X124426571Y-76718641D01*
X124245841Y-77046380D01*
X124132523Y-77403080D01*
X124090970Y-77775033D01*
X118275000Y-77775033D01*
X118275000Y-76574265D01*
X124844976Y-76574265D01*
X126000000Y-77729289D01*
X127155024Y-76574265D01*
X127081359Y-76226571D01*
X126753620Y-76045841D01*
X126396920Y-75932523D01*
X126024967Y-75890970D01*
X125652053Y-75922781D01*
X125292511Y-76026732D01*
X124960158Y-76198829D01*
X124918641Y-76226571D01*
X124844976Y-76574265D01*
X118275000Y-76574265D01*
X118275000Y-72823033D01*
X147100071Y-72823033D01*
X147196140Y-73152368D01*
X147354613Y-73456632D01*
X147569400Y-73724133D01*
X147832246Y-73944592D01*
X148133051Y-74109536D01*
X148460255Y-74212626D01*
X148496967Y-74219928D01*
X148770000Y-74024180D01*
X148770000Y-72550000D01*
X147295713Y-72550000D01*
X147100071Y-72823033D01*
X118275000Y-72823033D01*
X118275000Y-72176967D01*
X147100071Y-72176967D01*
X147295713Y-72450000D01*
X148770000Y-72450000D01*
X148770000Y-70975820D01*
X148496967Y-70780072D01*
X148460255Y-70787374D01*
X148133051Y-70890464D01*
X147832246Y-71055408D01*
X147569400Y-71275867D01*
X147354613Y-71543368D01*
X147196140Y-71847632D01*
X147100071Y-72176967D01*
X118275000Y-72176967D01*
X118275000Y-68100000D01*
X122095645Y-68100000D01*
X122113022Y-68276431D01*
X122164485Y-68446082D01*
X122248056Y-68602433D01*
X122360524Y-68739476D01*
X122497567Y-68851944D01*
X122653918Y-68935515D01*
X122823569Y-68986978D01*
X123000000Y-69004355D01*
X124225000Y-69000000D01*
X124450000Y-68775000D01*
X124450000Y-66650000D01*
X122325000Y-66650000D01*
X122100000Y-66875000D01*
X122095645Y-68100000D01*
X118275000Y-68100000D01*
X118275000Y-65100000D01*
X122095645Y-65100000D01*
X122100000Y-66325000D01*
X122325000Y-66550000D01*
X124450000Y-66550000D01*
X124450000Y-64425000D01*
X124550000Y-64425000D01*
X124550000Y-66550000D01*
X124570000Y-66550000D01*
X124570000Y-66650000D01*
X124550000Y-66650000D01*
X124550000Y-68775000D01*
X124775000Y-69000000D01*
X126000000Y-69004355D01*
X126176431Y-68986978D01*
X126346082Y-68935515D01*
X126502433Y-68851944D01*
X126639476Y-68739476D01*
X126751944Y-68602433D01*
X126835515Y-68446082D01*
X126886978Y-68276431D01*
X126904355Y-68100000D01*
X126900331Y-66968138D01*
X126983760Y-67387561D01*
X127187291Y-67878930D01*
X127482773Y-68321150D01*
X127858850Y-68697227D01*
X128301070Y-68992709D01*
X128792439Y-69196240D01*
X129314073Y-69300000D01*
X129845927Y-69300000D01*
X130367561Y-69196240D01*
X130858930Y-68992709D01*
X131112868Y-68823033D01*
X147100071Y-68823033D01*
X147196140Y-69152368D01*
X147354613Y-69456632D01*
X147569400Y-69724133D01*
X147832246Y-69944592D01*
X148133051Y-70109536D01*
X148460255Y-70212626D01*
X148496967Y-70219928D01*
X148770000Y-70024180D01*
X148770000Y-68550000D01*
X147295713Y-68550000D01*
X147100071Y-68823033D01*
X131112868Y-68823033D01*
X131301150Y-68697227D01*
X131677227Y-68321150D01*
X131773567Y-68176967D01*
X147100071Y-68176967D01*
X147295713Y-68450000D01*
X148770000Y-68450000D01*
X148770000Y-66975820D01*
X148496967Y-66780072D01*
X148460255Y-66787374D01*
X148133051Y-66890464D01*
X147832246Y-67055408D01*
X147569400Y-67275867D01*
X147354613Y-67543368D01*
X147196140Y-67847632D01*
X147100071Y-68176967D01*
X131773567Y-68176967D01*
X131972709Y-67878930D01*
X132176240Y-67387561D01*
X132280000Y-66865927D01*
X132280000Y-66334073D01*
X132176240Y-65812439D01*
X131972709Y-65321070D01*
X131677227Y-64878850D01*
X131301150Y-64502773D01*
X130994825Y-64298093D01*
X133430000Y-64298093D01*
X133430000Y-64701907D01*
X133508780Y-65097963D01*
X133663314Y-65471039D01*
X133887661Y-65806799D01*
X134173201Y-66092339D01*
X134508961Y-66316686D01*
X134882037Y-66471220D01*
X135278093Y-66550000D01*
X135681907Y-66550000D01*
X136077963Y-66471220D01*
X136451039Y-66316686D01*
X136750000Y-66116927D01*
X137048961Y-66316686D01*
X137422037Y-66471220D01*
X137818093Y-66550000D01*
X138221907Y-66550000D01*
X138617963Y-66471220D01*
X138991039Y-66316686D01*
X139290000Y-66116927D01*
X139588961Y-66316686D01*
X139962037Y-66471220D01*
X140358093Y-66550000D01*
X140761907Y-66550000D01*
X141157963Y-66471220D01*
X141531039Y-66316686D01*
X141533961Y-66314734D01*
X141580090Y-66352591D01*
X141788558Y-66464019D01*
X142014759Y-66532637D01*
X142250000Y-66555806D01*
X143950000Y-66555806D01*
X144185241Y-66532637D01*
X144411442Y-66464019D01*
X144619910Y-66352591D01*
X144802634Y-66202634D01*
X144952591Y-66019910D01*
X145064019Y-65811442D01*
X145132637Y-65585241D01*
X145155806Y-65350000D01*
X145155806Y-64823033D01*
X147100071Y-64823033D01*
X147196140Y-65152368D01*
X147354613Y-65456632D01*
X147569400Y-65724133D01*
X147832246Y-65944592D01*
X148133051Y-66109536D01*
X148460255Y-66212626D01*
X148496967Y-66219928D01*
X148770000Y-66024180D01*
X148770000Y-64550000D01*
X147295713Y-64550000D01*
X147100071Y-64823033D01*
X145155806Y-64823033D01*
X145155806Y-64176967D01*
X147100071Y-64176967D01*
X147295713Y-64450000D01*
X148770000Y-64450000D01*
X148770000Y-62975820D01*
X148870000Y-62975820D01*
X148870000Y-64450000D01*
X148890000Y-64450000D01*
X148890000Y-64550000D01*
X148870000Y-64550000D01*
X148870000Y-66024180D01*
X149143033Y-66219928D01*
X149179745Y-66212626D01*
X149506949Y-66109536D01*
X149807754Y-65944592D01*
X149860888Y-65900026D01*
X150053201Y-66092339D01*
X150388961Y-66316686D01*
X150762037Y-66471220D01*
X150906725Y-66500000D01*
X150762037Y-66528780D01*
X150388961Y-66683314D01*
X150053201Y-66907661D01*
X149860888Y-67099974D01*
X149807754Y-67055408D01*
X149506949Y-66890464D01*
X149179745Y-66787374D01*
X149143033Y-66780072D01*
X148870000Y-66975820D01*
X148870000Y-68450000D01*
X148890000Y-68450000D01*
X148890000Y-68550000D01*
X148870000Y-68550000D01*
X148870000Y-70024180D01*
X149143033Y-70219928D01*
X149179745Y-70212626D01*
X149506949Y-70109536D01*
X149807754Y-69944592D01*
X149860888Y-69900026D01*
X150053201Y-70092339D01*
X150388961Y-70316686D01*
X150762037Y-70471220D01*
X150906725Y-70500000D01*
X150762037Y-70528780D01*
X150388961Y-70683314D01*
X150053201Y-70907661D01*
X149860888Y-71099974D01*
X149807754Y-71055408D01*
X149506949Y-70890464D01*
X149179745Y-70787374D01*
X149143033Y-70780072D01*
X148870000Y-70975820D01*
X148870000Y-72450000D01*
X148890000Y-72450000D01*
X148890000Y-72550000D01*
X148870000Y-72550000D01*
X148870000Y-74024180D01*
X149143033Y-74219928D01*
X149179745Y-74212626D01*
X149506949Y-74109536D01*
X149807754Y-73944592D01*
X149860888Y-73900026D01*
X150053201Y-74092339D01*
X150388961Y-74316686D01*
X150762037Y-74471220D01*
X151158093Y-74550000D01*
X151561907Y-74550000D01*
X151957963Y-74471220D01*
X152331039Y-74316686D01*
X152333961Y-74314734D01*
X152380090Y-74352591D01*
X152588558Y-74464019D01*
X152814759Y-74532637D01*
X153050000Y-74555806D01*
X154750000Y-74555806D01*
X154985241Y-74532637D01*
X155211442Y-74464019D01*
X155419910Y-74352591D01*
X155602634Y-74202634D01*
X155752591Y-74019910D01*
X155864019Y-73811442D01*
X155932637Y-73585241D01*
X155955806Y-73350000D01*
X155955806Y-71650000D01*
X155932637Y-71414759D01*
X155864019Y-71188558D01*
X155752591Y-70980090D01*
X155602634Y-70797366D01*
X155419910Y-70647409D01*
X155211442Y-70535981D01*
X155092830Y-70500000D01*
X155211442Y-70464019D01*
X155419910Y-70352591D01*
X155602634Y-70202634D01*
X155752591Y-70019910D01*
X155864019Y-69811442D01*
X155932637Y-69585241D01*
X155955806Y-69350000D01*
X155955806Y-67650000D01*
X155932637Y-67414759D01*
X155864019Y-67188558D01*
X155752591Y-66980090D01*
X155602634Y-66797366D01*
X155419910Y-66647409D01*
X155211442Y-66535981D01*
X155092830Y-66500000D01*
X155211442Y-66464019D01*
X155419910Y-66352591D01*
X155602634Y-66202634D01*
X155752591Y-66019910D01*
X155864019Y-65811442D01*
X155932637Y-65585241D01*
X155955806Y-65350000D01*
X155955806Y-64606034D01*
X163000000Y-64606034D01*
X163000000Y-65393966D01*
X163153718Y-66166757D01*
X163455246Y-66894710D01*
X163892997Y-67549851D01*
X164450149Y-68107003D01*
X165105290Y-68544754D01*
X165833243Y-68846282D01*
X166606034Y-69000000D01*
X167393966Y-69000000D01*
X168166757Y-68846282D01*
X168894710Y-68544754D01*
X169549851Y-68107003D01*
X170107003Y-67549851D01*
X170544754Y-66894710D01*
X170846282Y-66166757D01*
X171000000Y-65393966D01*
X171000000Y-64606034D01*
X170846282Y-63833243D01*
X170544754Y-63105290D01*
X170107003Y-62450149D01*
X169549851Y-61892997D01*
X168894710Y-61455246D01*
X168166757Y-61153718D01*
X167393966Y-61000000D01*
X166606034Y-61000000D01*
X165833243Y-61153718D01*
X165105290Y-61455246D01*
X164450149Y-61892997D01*
X163892997Y-62450149D01*
X163455246Y-63105290D01*
X163153718Y-63833243D01*
X163000000Y-64606034D01*
X155955806Y-64606034D01*
X155955806Y-63650000D01*
X155932637Y-63414759D01*
X155864019Y-63188558D01*
X155752591Y-62980090D01*
X155602634Y-62797366D01*
X155419910Y-62647409D01*
X155211442Y-62535981D01*
X154985241Y-62467363D01*
X154750000Y-62444194D01*
X153050000Y-62444194D01*
X152814759Y-62467363D01*
X152588558Y-62535981D01*
X152380090Y-62647409D01*
X152333961Y-62685266D01*
X152331039Y-62683314D01*
X151957963Y-62528780D01*
X151561907Y-62450000D01*
X151158093Y-62450000D01*
X150762037Y-62528780D01*
X150388961Y-62683314D01*
X150053201Y-62907661D01*
X149860888Y-63099974D01*
X149807754Y-63055408D01*
X149506949Y-62890464D01*
X149179745Y-62787374D01*
X149143033Y-62780072D01*
X148870000Y-62975820D01*
X148770000Y-62975820D01*
X148496967Y-62780072D01*
X148460255Y-62787374D01*
X148133051Y-62890464D01*
X147832246Y-63055408D01*
X147569400Y-63275867D01*
X147354613Y-63543368D01*
X147196140Y-63847632D01*
X147100071Y-64176967D01*
X145155806Y-64176967D01*
X145155806Y-63650000D01*
X145132637Y-63414759D01*
X145064019Y-63188558D01*
X144952591Y-62980090D01*
X144802634Y-62797366D01*
X144619910Y-62647409D01*
X144411442Y-62535981D01*
X144185241Y-62467363D01*
X143950000Y-62444194D01*
X142250000Y-62444194D01*
X142014759Y-62467363D01*
X141788558Y-62535981D01*
X141580090Y-62647409D01*
X141533961Y-62685266D01*
X141531039Y-62683314D01*
X141157963Y-62528780D01*
X140761907Y-62450000D01*
X140358093Y-62450000D01*
X139962037Y-62528780D01*
X139588961Y-62683314D01*
X139290000Y-62883073D01*
X138991039Y-62683314D01*
X138617963Y-62528780D01*
X138221907Y-62450000D01*
X137818093Y-62450000D01*
X137422037Y-62528780D01*
X137048961Y-62683314D01*
X136750000Y-62883073D01*
X136451039Y-62683314D01*
X136077963Y-62528780D01*
X135681907Y-62450000D01*
X135278093Y-62450000D01*
X134882037Y-62528780D01*
X134508961Y-62683314D01*
X134173201Y-62907661D01*
X133887661Y-63193201D01*
X133663314Y-63528961D01*
X133508780Y-63902037D01*
X133430000Y-64298093D01*
X130994825Y-64298093D01*
X130858930Y-64207291D01*
X130367561Y-64003760D01*
X129845927Y-63900000D01*
X129314073Y-63900000D01*
X128792439Y-64003760D01*
X128301070Y-64207291D01*
X127858850Y-64502773D01*
X127482773Y-64878850D01*
X127187291Y-65321070D01*
X126983760Y-65812439D01*
X126900331Y-66231862D01*
X126904355Y-65100000D01*
X126886978Y-64923569D01*
X126835515Y-64753918D01*
X126751944Y-64597567D01*
X126639476Y-64460524D01*
X126502433Y-64348056D01*
X126346082Y-64264485D01*
X126176431Y-64213022D01*
X126000000Y-64195645D01*
X124775000Y-64200000D01*
X124550000Y-64425000D01*
X124450000Y-64425000D01*
X124225000Y-64200000D01*
X123000000Y-64195645D01*
X122823569Y-64213022D01*
X122653918Y-64264485D01*
X122497567Y-64348056D01*
X122360524Y-64460524D01*
X122248056Y-64597567D01*
X122164485Y-64753918D01*
X122113022Y-64923569D01*
X122095645Y-65100000D01*
X118275000Y-65100000D01*
X118275000Y-60275000D01*
X171725000Y-60275000D01*
X171725001Y-134725000D01*
%TA.AperFunction,Conductor*%
D25*
G36*
X171725001Y-134725000D02*
G01*
X118275000Y-134725000D01*
X118275000Y-129606034D01*
X119000000Y-129606034D01*
X119000000Y-130393966D01*
X119153718Y-131166757D01*
X119455246Y-131894710D01*
X119892997Y-132549851D01*
X120450149Y-133107003D01*
X121105290Y-133544754D01*
X121833243Y-133846282D01*
X122606034Y-134000000D01*
X123393966Y-134000000D01*
X124166757Y-133846282D01*
X124894710Y-133544754D01*
X125549851Y-133107003D01*
X126107003Y-132549851D01*
X126544754Y-131894710D01*
X126846282Y-131166757D01*
X127000000Y-130393966D01*
X127000000Y-129606034D01*
X126846282Y-128833243D01*
X126544754Y-128105290D01*
X126107003Y-127450149D01*
X125549851Y-126892997D01*
X125108496Y-126598093D01*
X128810000Y-126598093D01*
X128810000Y-127001907D01*
X128888780Y-127397963D01*
X129043314Y-127771039D01*
X129267661Y-128106799D01*
X129553201Y-128392339D01*
X129888961Y-128616686D01*
X130262037Y-128771220D01*
X130658093Y-128850000D01*
X131061907Y-128850000D01*
X131457963Y-128771220D01*
X131831039Y-128616686D01*
X131833961Y-128614734D01*
X131880090Y-128652591D01*
X132088558Y-128764019D01*
X132314759Y-128832637D01*
X132550000Y-128855806D01*
X134250000Y-128855806D01*
X134485241Y-128832637D01*
X134711442Y-128764019D01*
X134919910Y-128652591D01*
X135102634Y-128502634D01*
X135252591Y-128319910D01*
X135364019Y-128111442D01*
X135432637Y-127885241D01*
X135455806Y-127650000D01*
X135455806Y-125950000D01*
X135432637Y-125714759D01*
X135364019Y-125488558D01*
X135252591Y-125280090D01*
X135102634Y-125097366D01*
X134919910Y-124947409D01*
X134711442Y-124835981D01*
X134485241Y-124767363D01*
X134250000Y-124744194D01*
X132550000Y-124744194D01*
X132314759Y-124767363D01*
X132088558Y-124835981D01*
X131880090Y-124947409D01*
X131833961Y-124985266D01*
X131831039Y-124983314D01*
X131457963Y-124828780D01*
X131061907Y-124750000D01*
X130658093Y-124750000D01*
X130262037Y-124828780D01*
X129888961Y-124983314D01*
X129553201Y-125207661D01*
X129267661Y-125493201D01*
X129043314Y-125828961D01*
X128888780Y-126202037D01*
X128810000Y-126598093D01*
X125108496Y-126598093D01*
X124894710Y-126455246D01*
X124166757Y-126153718D01*
X123393966Y-126000000D01*
X122606034Y-126000000D01*
X121833243Y-126153718D01*
X121105290Y-126455246D01*
X120450149Y-126892997D01*
X119892997Y-127450149D01*
X119455246Y-128105290D01*
X119153718Y-128833243D01*
X119000000Y-129606034D01*
X118275000Y-129606034D01*
X118275000Y-117100000D01*
X125294194Y-117100000D01*
X125294194Y-119100000D01*
X125317363Y-119335241D01*
X125385981Y-119561442D01*
X125497409Y-119769910D01*
X125647366Y-119952634D01*
X125830090Y-120102591D01*
X126038558Y-120214019D01*
X126264759Y-120282637D01*
X126500000Y-120305806D01*
X128500000Y-120305806D01*
X128735241Y-120282637D01*
X128961442Y-120214019D01*
X129169910Y-120102591D01*
X129352634Y-119952634D01*
X129502591Y-119769910D01*
X129614019Y-119561442D01*
X129682637Y-119335241D01*
X129705806Y-119100000D01*
X129705806Y-117100000D01*
X129682637Y-116864759D01*
X129614019Y-116638558D01*
X129502591Y-116430090D01*
X129352634Y-116247366D01*
X129169910Y-116097409D01*
X128961442Y-115985981D01*
X128735241Y-115917363D01*
X128637647Y-115907751D01*
X128655024Y-115825735D01*
X127500000Y-114670711D01*
X126344976Y-115825735D01*
X126362353Y-115907751D01*
X126264759Y-115917363D01*
X126038558Y-115985981D01*
X125830090Y-116097409D01*
X125647366Y-116247366D01*
X125497409Y-116430090D01*
X125385981Y-116638558D01*
X125317363Y-116864759D01*
X125294194Y-117100000D01*
X118275000Y-117100000D01*
X118275000Y-114575033D01*
X125590970Y-114575033D01*
X125622781Y-114947947D01*
X125726732Y-115307489D01*
X125898829Y-115639842D01*
X125926571Y-115681359D01*
X126274265Y-115755024D01*
X127429289Y-114600000D01*
X127570711Y-114600000D01*
X128725735Y-115755024D01*
X129073429Y-115681359D01*
X129254159Y-115353620D01*
X129367477Y-114996920D01*
X129409030Y-114624967D01*
X129377219Y-114252053D01*
X129273268Y-113892511D01*
X129101171Y-113560158D01*
X129073429Y-113518641D01*
X128725735Y-113444976D01*
X127570711Y-114600000D01*
X127429289Y-114600000D01*
X126274265Y-113444976D01*
X125926571Y-113518641D01*
X125745841Y-113846380D01*
X125632523Y-114203080D01*
X125590970Y-114575033D01*
X118275000Y-114575033D01*
X118275000Y-113374265D01*
X126344976Y-113374265D01*
X127500000Y-114529289D01*
X128655024Y-113374265D01*
X128581359Y-113026571D01*
X128253620Y-112845841D01*
X127896920Y-112732523D01*
X127524967Y-112690970D01*
X127152053Y-112722781D01*
X126792511Y-112826732D01*
X126460158Y-112998829D01*
X126418641Y-113026571D01*
X126344976Y-113374265D01*
X118275000Y-113374265D01*
X118275000Y-99700000D01*
X122094194Y-99700000D01*
X122094194Y-101700000D01*
X122117363Y-101935241D01*
X122185981Y-102161442D01*
X122297409Y-102369910D01*
X122447366Y-102552634D01*
X122630090Y-102702591D01*
X122838558Y-102814019D01*
X123064759Y-102882637D01*
X123300000Y-102905806D01*
X125300000Y-102905806D01*
X125535241Y-102882637D01*
X125761442Y-102814019D01*
X125969910Y-102702591D01*
X126152634Y-102552634D01*
X126302591Y-102369910D01*
X126414019Y-102161442D01*
X126482637Y-101935241D01*
X126483573Y-101925735D01*
X126644976Y-101925735D01*
X126718641Y-102273429D01*
X127046380Y-102454159D01*
X127403080Y-102567477D01*
X127775033Y-102609030D01*
X128147947Y-102577219D01*
X128507489Y-102473268D01*
X128839842Y-102301171D01*
X128881359Y-102273429D01*
X128955024Y-101925735D01*
X127800000Y-100770711D01*
X126644976Y-101925735D01*
X126483573Y-101925735D01*
X126492249Y-101837647D01*
X126574265Y-101855024D01*
X127729289Y-100700000D01*
X127870711Y-100700000D01*
X129025735Y-101855024D01*
X129373429Y-101781359D01*
X129554159Y-101453620D01*
X129667477Y-101096920D01*
X129709030Y-100724967D01*
X129677219Y-100352053D01*
X129573268Y-99992511D01*
X129401171Y-99660158D01*
X129373429Y-99618641D01*
X129025735Y-99544976D01*
X127870711Y-100700000D01*
X127729289Y-100700000D01*
X126574265Y-99544976D01*
X126492249Y-99562353D01*
X126483574Y-99474265D01*
X126644976Y-99474265D01*
X127800000Y-100629289D01*
X128955024Y-99474265D01*
X128881359Y-99126571D01*
X128553620Y-98945841D01*
X128196920Y-98832523D01*
X127824967Y-98790970D01*
X127452053Y-98822781D01*
X127092511Y-98926732D01*
X126760158Y-99098829D01*
X126718641Y-99126571D01*
X126644976Y-99474265D01*
X126483574Y-99474265D01*
X126482637Y-99464759D01*
X126414019Y-99238558D01*
X126302591Y-99030090D01*
X126152634Y-98847366D01*
X125969910Y-98697409D01*
X125761442Y-98585981D01*
X125535241Y-98517363D01*
X125300000Y-98494194D01*
X123300000Y-98494194D01*
X123064759Y-98517363D01*
X122838558Y-98585981D01*
X122630090Y-98697409D01*
X122447366Y-98847366D01*
X122297409Y-99030090D01*
X122185981Y-99238558D01*
X122117363Y-99464759D01*
X122094194Y-99700000D01*
X118275000Y-99700000D01*
X118275000Y-89193168D01*
X122220000Y-89193168D01*
X122220000Y-89606832D01*
X122300702Y-90012547D01*
X122459004Y-90394723D01*
X122688823Y-90738672D01*
X122981328Y-91031177D01*
X123325277Y-91260996D01*
X123707453Y-91419298D01*
X124113168Y-91500000D01*
X124526832Y-91500000D01*
X124932547Y-91419298D01*
X125314723Y-91260996D01*
X125658672Y-91031177D01*
X125824269Y-90865580D01*
X125877233Y-90908037D01*
X126190320Y-91070789D01*
X126529142Y-91169333D01*
X126810000Y-90974307D01*
X126810000Y-89450000D01*
X126790000Y-89450000D01*
X126790000Y-89350000D01*
X126810000Y-89350000D01*
X126810000Y-87825693D01*
X126910000Y-87825693D01*
X126910000Y-89350000D01*
X126930000Y-89350000D01*
X126930000Y-89450000D01*
X126910000Y-89450000D01*
X126910000Y-90974307D01*
X127190858Y-91169333D01*
X127529680Y-91070789D01*
X127565091Y-91052381D01*
X127647366Y-91152634D01*
X127830090Y-91302591D01*
X128038558Y-91414019D01*
X128264759Y-91482637D01*
X128500000Y-91505806D01*
X130300000Y-91505806D01*
X130535241Y-91482637D01*
X130761442Y-91414019D01*
X130969910Y-91302591D01*
X131152634Y-91152634D01*
X131231315Y-91056760D01*
X140073000Y-91056760D01*
X140073000Y-91443240D01*
X140148399Y-91822294D01*
X140296298Y-92179355D01*
X140511015Y-92500702D01*
X140530313Y-92520000D01*
X140511015Y-92539298D01*
X140296298Y-92860645D01*
X140148399Y-93217706D01*
X140073000Y-93596760D01*
X140073000Y-93983240D01*
X140148399Y-94362294D01*
X140296298Y-94719355D01*
X140511015Y-95040702D01*
X140530313Y-95060000D01*
X140511015Y-95079298D01*
X140296298Y-95400645D01*
X140148399Y-95757706D01*
X140073000Y-96136760D01*
X140073000Y-96523240D01*
X140148399Y-96902294D01*
X140296298Y-97259355D01*
X140511015Y-97580702D01*
X140530313Y-97600000D01*
X140511015Y-97619298D01*
X140296298Y-97940645D01*
X140148399Y-98297706D01*
X140073000Y-98676760D01*
X140073000Y-99063240D01*
X140148399Y-99442294D01*
X140296298Y-99799355D01*
X140511015Y-100120702D01*
X140530313Y-100140000D01*
X140511015Y-100159298D01*
X140296298Y-100480645D01*
X140148399Y-100837706D01*
X140073000Y-101216760D01*
X140073000Y-101603240D01*
X140148399Y-101982294D01*
X140296298Y-102339355D01*
X140511015Y-102660702D01*
X140530313Y-102680000D01*
X140511015Y-102699298D01*
X140296298Y-103020645D01*
X140148399Y-103377706D01*
X140073000Y-103756760D01*
X140073000Y-104143240D01*
X140148399Y-104522294D01*
X140296298Y-104879355D01*
X140511015Y-105200702D01*
X140530313Y-105220000D01*
X140511015Y-105239298D01*
X140296298Y-105560645D01*
X140148399Y-105917706D01*
X140073000Y-106296760D01*
X140073000Y-106683240D01*
X140148399Y-107062294D01*
X140296298Y-107419355D01*
X140511015Y-107740702D01*
X140530313Y-107760000D01*
X140511015Y-107779298D01*
X140296298Y-108100645D01*
X140148399Y-108457706D01*
X140073000Y-108836760D01*
X140073000Y-109223240D01*
X140148399Y-109602294D01*
X140296298Y-109959355D01*
X140511015Y-110280702D01*
X140530313Y-110300000D01*
X140511015Y-110319298D01*
X140296298Y-110640645D01*
X140148399Y-110997706D01*
X140073000Y-111376760D01*
X140073000Y-111763240D01*
X140148399Y-112142294D01*
X140296298Y-112499355D01*
X140511015Y-112820702D01*
X140784298Y-113093985D01*
X140855198Y-113141359D01*
X140655124Y-113169264D01*
X140498110Y-113456541D01*
X140400157Y-113768929D01*
X140365031Y-114094425D01*
X140394080Y-114420518D01*
X140486189Y-114734679D01*
X140637817Y-115024834D01*
X140655124Y-115050736D01*
X140855198Y-115078641D01*
X140784298Y-115126015D01*
X140511015Y-115399298D01*
X140296298Y-115720645D01*
X140148399Y-116077706D01*
X140073000Y-116456760D01*
X140073000Y-116843240D01*
X140148399Y-117222294D01*
X140296298Y-117579355D01*
X140511015Y-117900702D01*
X140530313Y-117920000D01*
X140511015Y-117939298D01*
X140296298Y-118260645D01*
X140148399Y-118617706D01*
X140073000Y-118996760D01*
X140073000Y-119383240D01*
X140148399Y-119762294D01*
X140296298Y-120119355D01*
X140511015Y-120440702D01*
X140530313Y-120460000D01*
X140511015Y-120479298D01*
X140296298Y-120800645D01*
X140148399Y-121157706D01*
X140073000Y-121536760D01*
X140073000Y-121923240D01*
X140148399Y-122302294D01*
X140296298Y-122659355D01*
X140511015Y-122980702D01*
X140784298Y-123253985D01*
X140855198Y-123301359D01*
X140655124Y-123329264D01*
X140498110Y-123616541D01*
X140400157Y-123928929D01*
X140365031Y-124254425D01*
X140394080Y-124580518D01*
X140486189Y-124894679D01*
X140637817Y-125184834D01*
X140655124Y-125210736D01*
X140855198Y-125238641D01*
X140784298Y-125286015D01*
X140511015Y-125559298D01*
X140296298Y-125880645D01*
X140148399Y-126237706D01*
X140073000Y-126616760D01*
X140073000Y-127003240D01*
X140148399Y-127382294D01*
X140296298Y-127739355D01*
X140511015Y-128060702D01*
X140784298Y-128333985D01*
X141105645Y-128548702D01*
X141462706Y-128696601D01*
X141841760Y-128772000D01*
X142228240Y-128772000D01*
X142607294Y-128696601D01*
X142964355Y-128548702D01*
X143285702Y-128333985D01*
X143558985Y-128060702D01*
X143773702Y-127739355D01*
X143921601Y-127382294D01*
X143997000Y-127003240D01*
X143997000Y-126616760D01*
X143921601Y-126237706D01*
X143773702Y-125880645D01*
X143558985Y-125559298D01*
X143285702Y-125286015D01*
X143214802Y-125238641D01*
X143414876Y-125210736D01*
X143571890Y-124923459D01*
X143669843Y-124611071D01*
X143704969Y-124285575D01*
X143675920Y-123959482D01*
X143583811Y-123645321D01*
X143432183Y-123355166D01*
X143414876Y-123329264D01*
X143214802Y-123301359D01*
X143285702Y-123253985D01*
X143558985Y-122980702D01*
X143773702Y-122659355D01*
X143921601Y-122302294D01*
X143997000Y-121923240D01*
X143997000Y-121536760D01*
X143921601Y-121157706D01*
X143773702Y-120800645D01*
X143558985Y-120479298D01*
X143539687Y-120460000D01*
X143558985Y-120440702D01*
X143773702Y-120119355D01*
X143921601Y-119762294D01*
X143997000Y-119383240D01*
X143997000Y-118996760D01*
X143921601Y-118617706D01*
X143773702Y-118260645D01*
X143558985Y-117939298D01*
X143539687Y-117920000D01*
X143558985Y-117900702D01*
X143773702Y-117579355D01*
X143921601Y-117222294D01*
X143997000Y-116843240D01*
X143997000Y-116456760D01*
X143974770Y-116345000D01*
X145130953Y-116345000D01*
X145130953Y-125445000D01*
X159469048Y-125445000D01*
X159469048Y-116345000D01*
X145130953Y-116345000D01*
X143974770Y-116345000D01*
X143921601Y-116077706D01*
X143773702Y-115720645D01*
X143558985Y-115399298D01*
X143285702Y-115126015D01*
X143214802Y-115078641D01*
X143414876Y-115050736D01*
X143571890Y-114763459D01*
X143669843Y-114451071D01*
X143704969Y-114125575D01*
X143675920Y-113799482D01*
X143583811Y-113485321D01*
X143432183Y-113195166D01*
X143414876Y-113169264D01*
X143214802Y-113141359D01*
X143285702Y-113093985D01*
X143558985Y-112820702D01*
X143773702Y-112499355D01*
X143921601Y-112142294D01*
X143997000Y-111763240D01*
X143997000Y-111376760D01*
X143921601Y-110997706D01*
X143773702Y-110640645D01*
X143558985Y-110319298D01*
X143539687Y-110300000D01*
X143558985Y-110280702D01*
X143773702Y-109959355D01*
X143921601Y-109602294D01*
X143997000Y-109223240D01*
X143997000Y-108836760D01*
X143921601Y-108457706D01*
X143773702Y-108100645D01*
X143558985Y-107779298D01*
X143539687Y-107760000D01*
X143558985Y-107740702D01*
X143773702Y-107419355D01*
X143921601Y-107062294D01*
X143997000Y-106683240D01*
X143997000Y-106296760D01*
X143921601Y-105917706D01*
X143773702Y-105560645D01*
X143558985Y-105239298D01*
X143539687Y-105220000D01*
X143558985Y-105200702D01*
X143773702Y-104879355D01*
X143921601Y-104522294D01*
X143997000Y-104143240D01*
X143997000Y-103756760D01*
X143921601Y-103377706D01*
X143773702Y-103020645D01*
X143558985Y-102699298D01*
X143539687Y-102680000D01*
X143558985Y-102660702D01*
X143773702Y-102339355D01*
X143921601Y-101982294D01*
X143997000Y-101603240D01*
X143997000Y-101216760D01*
X143921601Y-100837706D01*
X143773702Y-100480645D01*
X143558985Y-100159298D01*
X143539687Y-100140000D01*
X143558985Y-100120702D01*
X143773702Y-99799355D01*
X143921601Y-99442294D01*
X143997000Y-99063240D01*
X143997000Y-98676760D01*
X143921601Y-98297706D01*
X143773702Y-97940645D01*
X143558985Y-97619298D01*
X143539687Y-97600000D01*
X143558985Y-97580702D01*
X143773702Y-97259355D01*
X143921601Y-96902294D01*
X143997000Y-96523240D01*
X143997000Y-96136760D01*
X143921601Y-95757706D01*
X143773702Y-95400645D01*
X143558985Y-95079298D01*
X143539687Y-95060000D01*
X143558985Y-95040702D01*
X143773702Y-94719355D01*
X143921601Y-94362294D01*
X143997000Y-93983240D01*
X143997000Y-93596760D01*
X143921601Y-93217706D01*
X143773702Y-92860645D01*
X143558985Y-92539298D01*
X143539687Y-92520000D01*
X143558985Y-92500702D01*
X143773702Y-92179355D01*
X143921601Y-91822294D01*
X143997000Y-91443240D01*
X143997000Y-91056760D01*
X163568000Y-91056760D01*
X163568000Y-91443240D01*
X163643399Y-91822294D01*
X163791298Y-92179355D01*
X164006015Y-92500702D01*
X164025313Y-92520000D01*
X164006015Y-92539298D01*
X163791298Y-92860645D01*
X163643399Y-93217706D01*
X163568000Y-93596760D01*
X163568000Y-93983240D01*
X163643399Y-94362294D01*
X163791298Y-94719355D01*
X164006015Y-95040702D01*
X164025313Y-95060000D01*
X164006015Y-95079298D01*
X163791298Y-95400645D01*
X163643399Y-95757706D01*
X163568000Y-96136760D01*
X163568000Y-96523240D01*
X163643399Y-96902294D01*
X163791298Y-97259355D01*
X164006015Y-97580702D01*
X164025313Y-97600000D01*
X164006015Y-97619298D01*
X163791298Y-97940645D01*
X163643399Y-98297706D01*
X163568000Y-98676760D01*
X163568000Y-99063240D01*
X163643399Y-99442294D01*
X163791298Y-99799355D01*
X164006015Y-100120702D01*
X164025313Y-100140000D01*
X164006015Y-100159298D01*
X163791298Y-100480645D01*
X163643399Y-100837706D01*
X163568000Y-101216760D01*
X163568000Y-101603240D01*
X163643399Y-101982294D01*
X163791298Y-102339355D01*
X164006015Y-102660702D01*
X164025313Y-102680000D01*
X164006015Y-102699298D01*
X163791298Y-103020645D01*
X163643399Y-103377706D01*
X163568000Y-103756760D01*
X163568000Y-104143240D01*
X163643399Y-104522294D01*
X163791298Y-104879355D01*
X164006015Y-105200702D01*
X164279298Y-105473985D01*
X164350198Y-105521359D01*
X164150124Y-105549264D01*
X163993110Y-105836541D01*
X163895157Y-106148929D01*
X163860031Y-106474425D01*
X163889080Y-106800518D01*
X163981189Y-107114679D01*
X164132817Y-107404834D01*
X164150124Y-107430736D01*
X164350198Y-107458641D01*
X164279298Y-107506015D01*
X164006015Y-107779298D01*
X163791298Y-108100645D01*
X163643399Y-108457706D01*
X163568000Y-108836760D01*
X163568000Y-109223240D01*
X163643399Y-109602294D01*
X163791298Y-109959355D01*
X164006015Y-110280702D01*
X164025313Y-110300000D01*
X164006015Y-110319298D01*
X163791298Y-110640645D01*
X163643399Y-110997706D01*
X163568000Y-111376760D01*
X163568000Y-111763240D01*
X163643399Y-112142294D01*
X163791298Y-112499355D01*
X164006015Y-112820702D01*
X164025313Y-112840000D01*
X164006015Y-112859298D01*
X163791298Y-113180645D01*
X163643399Y-113537706D01*
X163568000Y-113916760D01*
X163568000Y-114303240D01*
X163643399Y-114682294D01*
X163791298Y-115039355D01*
X164006015Y-115360702D01*
X164025313Y-115380000D01*
X164006015Y-115399298D01*
X163791298Y-115720645D01*
X163643399Y-116077706D01*
X163568000Y-116456760D01*
X163568000Y-116843240D01*
X163643399Y-117222294D01*
X163791298Y-117579355D01*
X164006015Y-117900702D01*
X164025313Y-117920000D01*
X164006015Y-117939298D01*
X163791298Y-118260645D01*
X163643399Y-118617706D01*
X163568000Y-118996760D01*
X163568000Y-119383240D01*
X163643399Y-119762294D01*
X163791298Y-120119355D01*
X164006015Y-120440702D01*
X164025313Y-120460000D01*
X164006015Y-120479298D01*
X163791298Y-120800645D01*
X163643399Y-121157706D01*
X163568000Y-121536760D01*
X163568000Y-121923240D01*
X163643399Y-122302294D01*
X163791298Y-122659355D01*
X164006015Y-122980702D01*
X164279298Y-123253985D01*
X164350198Y-123301359D01*
X164150124Y-123329264D01*
X163993110Y-123616541D01*
X163895157Y-123928929D01*
X163860031Y-124254425D01*
X163889080Y-124580518D01*
X163981189Y-124894679D01*
X164132817Y-125184834D01*
X164150124Y-125210736D01*
X164350198Y-125238641D01*
X164279298Y-125286015D01*
X164006015Y-125559298D01*
X163791298Y-125880645D01*
X163643399Y-126237706D01*
X163568000Y-126616760D01*
X163568000Y-127003240D01*
X163643399Y-127382294D01*
X163791298Y-127739355D01*
X164006015Y-128060702D01*
X164279298Y-128333985D01*
X164600645Y-128548702D01*
X164957706Y-128696601D01*
X165336760Y-128772000D01*
X165723240Y-128772000D01*
X166102294Y-128696601D01*
X166459355Y-128548702D01*
X166780702Y-128333985D01*
X167053985Y-128060702D01*
X167268702Y-127739355D01*
X167416601Y-127382294D01*
X167492000Y-127003240D01*
X167492000Y-126616760D01*
X167416601Y-126237706D01*
X167268702Y-125880645D01*
X167053985Y-125559298D01*
X166780702Y-125286015D01*
X166709802Y-125238641D01*
X166909876Y-125210736D01*
X167066890Y-124923459D01*
X167164843Y-124611071D01*
X167199969Y-124285575D01*
X167170920Y-123959482D01*
X167078811Y-123645321D01*
X166927183Y-123355166D01*
X166909876Y-123329264D01*
X166709802Y-123301359D01*
X166780702Y-123253985D01*
X167053985Y-122980702D01*
X167268702Y-122659355D01*
X167416601Y-122302294D01*
X167492000Y-121923240D01*
X167492000Y-121536760D01*
X167416601Y-121157706D01*
X167268702Y-120800645D01*
X167053985Y-120479298D01*
X167034687Y-120460000D01*
X167053985Y-120440702D01*
X167268702Y-120119355D01*
X167416601Y-119762294D01*
X167492000Y-119383240D01*
X167492000Y-118996760D01*
X167416601Y-118617706D01*
X167268702Y-118260645D01*
X167053985Y-117939298D01*
X167034687Y-117920000D01*
X167053985Y-117900702D01*
X167268702Y-117579355D01*
X167416601Y-117222294D01*
X167492000Y-116843240D01*
X167492000Y-116456760D01*
X167416601Y-116077706D01*
X167268702Y-115720645D01*
X167053985Y-115399298D01*
X167034687Y-115380000D01*
X167053985Y-115360702D01*
X167268702Y-115039355D01*
X167416601Y-114682294D01*
X167492000Y-114303240D01*
X167492000Y-113916760D01*
X167416601Y-113537706D01*
X167268702Y-113180645D01*
X167053985Y-112859298D01*
X167034687Y-112840000D01*
X167053985Y-112820702D01*
X167268702Y-112499355D01*
X167416601Y-112142294D01*
X167492000Y-111763240D01*
X167492000Y-111376760D01*
X167416601Y-110997706D01*
X167268702Y-110640645D01*
X167053985Y-110319298D01*
X167034687Y-110300000D01*
X167053985Y-110280702D01*
X167268702Y-109959355D01*
X167416601Y-109602294D01*
X167492000Y-109223240D01*
X167492000Y-108836760D01*
X167416601Y-108457706D01*
X167268702Y-108100645D01*
X167053985Y-107779298D01*
X166780702Y-107506015D01*
X166709802Y-107458641D01*
X166909876Y-107430736D01*
X167066890Y-107143459D01*
X167164843Y-106831071D01*
X167199969Y-106505575D01*
X167170920Y-106179482D01*
X167078811Y-105865321D01*
X166927183Y-105575166D01*
X166909876Y-105549264D01*
X166709802Y-105521359D01*
X166780702Y-105473985D01*
X167053985Y-105200702D01*
X167268702Y-104879355D01*
X167416601Y-104522294D01*
X167492000Y-104143240D01*
X167492000Y-103756760D01*
X167416601Y-103377706D01*
X167268702Y-103020645D01*
X167053985Y-102699298D01*
X167034687Y-102680000D01*
X167053985Y-102660702D01*
X167268702Y-102339355D01*
X167416601Y-101982294D01*
X167492000Y-101603240D01*
X167492000Y-101216760D01*
X167416601Y-100837706D01*
X167268702Y-100480645D01*
X167053985Y-100159298D01*
X167034687Y-100140000D01*
X167053985Y-100120702D01*
X167268702Y-99799355D01*
X167416601Y-99442294D01*
X167492000Y-99063240D01*
X167492000Y-98676760D01*
X167416601Y-98297706D01*
X167268702Y-97940645D01*
X167053985Y-97619298D01*
X167034687Y-97600000D01*
X167053985Y-97580702D01*
X167268702Y-97259355D01*
X167416601Y-96902294D01*
X167492000Y-96523240D01*
X167492000Y-96136760D01*
X167416601Y-95757706D01*
X167268702Y-95400645D01*
X167053985Y-95079298D01*
X167034687Y-95060000D01*
X167053985Y-95040702D01*
X167268702Y-94719355D01*
X167416601Y-94362294D01*
X167492000Y-93983240D01*
X167492000Y-93596760D01*
X167416601Y-93217706D01*
X167268702Y-92860645D01*
X167053985Y-92539298D01*
X167034687Y-92520000D01*
X167053985Y-92500702D01*
X167268702Y-92179355D01*
X167416601Y-91822294D01*
X167492000Y-91443240D01*
X167492000Y-91056760D01*
X167416601Y-90677706D01*
X167268702Y-90320645D01*
X167053985Y-89999298D01*
X166780702Y-89726015D01*
X166459355Y-89511298D01*
X166102294Y-89363399D01*
X165723240Y-89288000D01*
X165336760Y-89288000D01*
X164957706Y-89363399D01*
X164600645Y-89511298D01*
X164279298Y-89726015D01*
X164006015Y-89999298D01*
X163791298Y-90320645D01*
X163643399Y-90677706D01*
X163568000Y-91056760D01*
X143997000Y-91056760D01*
X143921601Y-90677706D01*
X143773702Y-90320645D01*
X143558985Y-89999298D01*
X143285702Y-89726015D01*
X142964355Y-89511298D01*
X142607294Y-89363399D01*
X142228240Y-89288000D01*
X141841760Y-89288000D01*
X141462706Y-89363399D01*
X141105645Y-89511298D01*
X140784298Y-89726015D01*
X140511015Y-89999298D01*
X140296298Y-90320645D01*
X140148399Y-90677706D01*
X140073000Y-91056760D01*
X131231315Y-91056760D01*
X131302591Y-90969910D01*
X131414019Y-90761442D01*
X131482637Y-90535241D01*
X131505806Y-90300000D01*
X131505806Y-88500000D01*
X131482637Y-88264759D01*
X131414019Y-88038558D01*
X131302591Y-87830090D01*
X131152634Y-87647366D01*
X130969910Y-87497409D01*
X130761442Y-87385981D01*
X130535241Y-87317363D01*
X130300000Y-87294194D01*
X128500000Y-87294194D01*
X128264759Y-87317363D01*
X128038558Y-87385981D01*
X127830090Y-87497409D01*
X127647366Y-87647366D01*
X127565091Y-87747619D01*
X127529680Y-87729211D01*
X127190858Y-87630667D01*
X126910000Y-87825693D01*
X126810000Y-87825693D01*
X126529142Y-87630667D01*
X126326768Y-87689526D01*
X131166295Y-82850000D01*
X147709121Y-82850000D01*
X147800000Y-82858951D01*
X147890879Y-82850000D01*
X147890882Y-82850000D01*
X148162663Y-82823232D01*
X148511390Y-82717447D01*
X148832778Y-82545661D01*
X149114477Y-82314477D01*
X149172416Y-82243878D01*
X152263166Y-79153129D01*
X152323671Y-79128067D01*
X152643052Y-78914664D01*
X152914664Y-78643052D01*
X153128067Y-78323671D01*
X153275062Y-77968794D01*
X153350000Y-77592058D01*
X153350000Y-77207942D01*
X153275062Y-76831206D01*
X153128067Y-76476329D01*
X152914664Y-76156948D01*
X152643052Y-75885336D01*
X152323671Y-75671933D01*
X151968794Y-75524938D01*
X151592058Y-75450000D01*
X151207942Y-75450000D01*
X150831206Y-75524938D01*
X150476329Y-75671933D01*
X150156948Y-75885336D01*
X149885336Y-76156948D01*
X149671933Y-76476329D01*
X149646871Y-76536834D01*
X147033706Y-79150000D01*
X131647825Y-79150000D01*
X131682637Y-79035241D01*
X131705806Y-78800000D01*
X131705806Y-76800000D01*
X131682637Y-76564759D01*
X131614019Y-76338558D01*
X131502591Y-76130090D01*
X131352634Y-75947366D01*
X131169910Y-75797409D01*
X130961442Y-75685981D01*
X130735241Y-75617363D01*
X130500000Y-75594194D01*
X128500000Y-75594194D01*
X128264759Y-75617363D01*
X128038558Y-75685981D01*
X127830090Y-75797409D01*
X127647366Y-75947366D01*
X127497409Y-76130090D01*
X127385981Y-76338558D01*
X127317363Y-76564759D01*
X127307751Y-76662353D01*
X127225735Y-76644976D01*
X126070711Y-77800000D01*
X127225735Y-78955024D01*
X127307751Y-78937647D01*
X127317363Y-79035241D01*
X127385981Y-79261442D01*
X127497409Y-79469910D01*
X127647366Y-79652634D01*
X127830090Y-79802591D01*
X128038558Y-79914019D01*
X128264759Y-79982637D01*
X128500000Y-80005806D01*
X128777899Y-80005806D01*
X123076117Y-85707589D01*
X123005524Y-85765523D01*
X122947590Y-85836116D01*
X122774339Y-86047222D01*
X122602553Y-86368611D01*
X122496769Y-86717337D01*
X122461049Y-87080000D01*
X122470001Y-87170888D01*
X122470000Y-88388820D01*
X122459004Y-88405277D01*
X122300702Y-88787453D01*
X122220000Y-89193168D01*
X118275000Y-89193168D01*
X118275000Y-79025735D01*
X124844976Y-79025735D01*
X124918641Y-79373429D01*
X125246380Y-79554159D01*
X125603080Y-79667477D01*
X125975033Y-79709030D01*
X126347947Y-79677219D01*
X126707489Y-79573268D01*
X127039842Y-79401171D01*
X127081359Y-79373429D01*
X127155024Y-79025735D01*
X126000000Y-77870711D01*
X124844976Y-79025735D01*
X118275000Y-79025735D01*
X118275000Y-77775033D01*
X124090970Y-77775033D01*
X124122781Y-78147947D01*
X124226732Y-78507489D01*
X124398829Y-78839842D01*
X124426571Y-78881359D01*
X124774265Y-78955024D01*
X125929289Y-77800000D01*
X124774265Y-76644976D01*
X124426571Y-76718641D01*
X124245841Y-77046380D01*
X124132523Y-77403080D01*
X124090970Y-77775033D01*
X118275000Y-77775033D01*
X118275000Y-76574265D01*
X124844976Y-76574265D01*
X126000000Y-77729289D01*
X127155024Y-76574265D01*
X127081359Y-76226571D01*
X126753620Y-76045841D01*
X126396920Y-75932523D01*
X126024967Y-75890970D01*
X125652053Y-75922781D01*
X125292511Y-76026732D01*
X124960158Y-76198829D01*
X124918641Y-76226571D01*
X124844976Y-76574265D01*
X118275000Y-76574265D01*
X118275000Y-72823033D01*
X147100071Y-72823033D01*
X147196140Y-73152368D01*
X147354613Y-73456632D01*
X147569400Y-73724133D01*
X147832246Y-73944592D01*
X148133051Y-74109536D01*
X148460255Y-74212626D01*
X148496967Y-74219928D01*
X148770000Y-74024180D01*
X148770000Y-72550000D01*
X147295713Y-72550000D01*
X147100071Y-72823033D01*
X118275000Y-72823033D01*
X118275000Y-72176967D01*
X147100071Y-72176967D01*
X147295713Y-72450000D01*
X148770000Y-72450000D01*
X148770000Y-70975820D01*
X148496967Y-70780072D01*
X148460255Y-70787374D01*
X148133051Y-70890464D01*
X147832246Y-71055408D01*
X147569400Y-71275867D01*
X147354613Y-71543368D01*
X147196140Y-71847632D01*
X147100071Y-72176967D01*
X118275000Y-72176967D01*
X118275000Y-68100000D01*
X122095645Y-68100000D01*
X122113022Y-68276431D01*
X122164485Y-68446082D01*
X122248056Y-68602433D01*
X122360524Y-68739476D01*
X122497567Y-68851944D01*
X122653918Y-68935515D01*
X122823569Y-68986978D01*
X123000000Y-69004355D01*
X124225000Y-69000000D01*
X124450000Y-68775000D01*
X124450000Y-66650000D01*
X122325000Y-66650000D01*
X122100000Y-66875000D01*
X122095645Y-68100000D01*
X118275000Y-68100000D01*
X118275000Y-65100000D01*
X122095645Y-65100000D01*
X122100000Y-66325000D01*
X122325000Y-66550000D01*
X124450000Y-66550000D01*
X124450000Y-64425000D01*
X124550000Y-64425000D01*
X124550000Y-66550000D01*
X124570000Y-66550000D01*
X124570000Y-66650000D01*
X124550000Y-66650000D01*
X124550000Y-68775000D01*
X124775000Y-69000000D01*
X126000000Y-69004355D01*
X126176431Y-68986978D01*
X126346082Y-68935515D01*
X126502433Y-68851944D01*
X126639476Y-68739476D01*
X126751944Y-68602433D01*
X126835515Y-68446082D01*
X126886978Y-68276431D01*
X126904355Y-68100000D01*
X126900331Y-66968138D01*
X126983760Y-67387561D01*
X127187291Y-67878930D01*
X127482773Y-68321150D01*
X127858850Y-68697227D01*
X128301070Y-68992709D01*
X128792439Y-69196240D01*
X129314073Y-69300000D01*
X129845927Y-69300000D01*
X130367561Y-69196240D01*
X130858930Y-68992709D01*
X131112868Y-68823033D01*
X147100071Y-68823033D01*
X147196140Y-69152368D01*
X147354613Y-69456632D01*
X147569400Y-69724133D01*
X147832246Y-69944592D01*
X148133051Y-70109536D01*
X148460255Y-70212626D01*
X148496967Y-70219928D01*
X148770000Y-70024180D01*
X148770000Y-68550000D01*
X147295713Y-68550000D01*
X147100071Y-68823033D01*
X131112868Y-68823033D01*
X131301150Y-68697227D01*
X131677227Y-68321150D01*
X131773567Y-68176967D01*
X147100071Y-68176967D01*
X147295713Y-68450000D01*
X148770000Y-68450000D01*
X148770000Y-66975820D01*
X148496967Y-66780072D01*
X148460255Y-66787374D01*
X148133051Y-66890464D01*
X147832246Y-67055408D01*
X147569400Y-67275867D01*
X147354613Y-67543368D01*
X147196140Y-67847632D01*
X147100071Y-68176967D01*
X131773567Y-68176967D01*
X131972709Y-67878930D01*
X132176240Y-67387561D01*
X132280000Y-66865927D01*
X132280000Y-66334073D01*
X132176240Y-65812439D01*
X131972709Y-65321070D01*
X131677227Y-64878850D01*
X131301150Y-64502773D01*
X130994825Y-64298093D01*
X133430000Y-64298093D01*
X133430000Y-64701907D01*
X133508780Y-65097963D01*
X133663314Y-65471039D01*
X133887661Y-65806799D01*
X134173201Y-66092339D01*
X134508961Y-66316686D01*
X134882037Y-66471220D01*
X135278093Y-66550000D01*
X135681907Y-66550000D01*
X136077963Y-66471220D01*
X136451039Y-66316686D01*
X136750000Y-66116927D01*
X137048961Y-66316686D01*
X137422037Y-66471220D01*
X137818093Y-66550000D01*
X138221907Y-66550000D01*
X138617963Y-66471220D01*
X138991039Y-66316686D01*
X139290000Y-66116927D01*
X139588961Y-66316686D01*
X139962037Y-66471220D01*
X140358093Y-66550000D01*
X140761907Y-66550000D01*
X141157963Y-66471220D01*
X141531039Y-66316686D01*
X141533961Y-66314734D01*
X141580090Y-66352591D01*
X141788558Y-66464019D01*
X142014759Y-66532637D01*
X142250000Y-66555806D01*
X143950000Y-66555806D01*
X144185241Y-66532637D01*
X144411442Y-66464019D01*
X144619910Y-66352591D01*
X144802634Y-66202634D01*
X144952591Y-66019910D01*
X145064019Y-65811442D01*
X145132637Y-65585241D01*
X145155806Y-65350000D01*
X145155806Y-64823033D01*
X147100071Y-64823033D01*
X147196140Y-65152368D01*
X147354613Y-65456632D01*
X147569400Y-65724133D01*
X147832246Y-65944592D01*
X148133051Y-66109536D01*
X148460255Y-66212626D01*
X148496967Y-66219928D01*
X148770000Y-66024180D01*
X148770000Y-64550000D01*
X147295713Y-64550000D01*
X147100071Y-64823033D01*
X145155806Y-64823033D01*
X145155806Y-64176967D01*
X147100071Y-64176967D01*
X147295713Y-64450000D01*
X148770000Y-64450000D01*
X148770000Y-62975820D01*
X148870000Y-62975820D01*
X148870000Y-64450000D01*
X148890000Y-64450000D01*
X148890000Y-64550000D01*
X148870000Y-64550000D01*
X148870000Y-66024180D01*
X149143033Y-66219928D01*
X149179745Y-66212626D01*
X149506949Y-66109536D01*
X149807754Y-65944592D01*
X149860888Y-65900026D01*
X150053201Y-66092339D01*
X150388961Y-66316686D01*
X150762037Y-66471220D01*
X150906725Y-66500000D01*
X150762037Y-66528780D01*
X150388961Y-66683314D01*
X150053201Y-66907661D01*
X149860888Y-67099974D01*
X149807754Y-67055408D01*
X149506949Y-66890464D01*
X149179745Y-66787374D01*
X149143033Y-66780072D01*
X148870000Y-66975820D01*
X148870000Y-68450000D01*
X148890000Y-68450000D01*
X148890000Y-68550000D01*
X148870000Y-68550000D01*
X148870000Y-70024180D01*
X149143033Y-70219928D01*
X149179745Y-70212626D01*
X149506949Y-70109536D01*
X149807754Y-69944592D01*
X149860888Y-69900026D01*
X150053201Y-70092339D01*
X150388961Y-70316686D01*
X150762037Y-70471220D01*
X150906725Y-70500000D01*
X150762037Y-70528780D01*
X150388961Y-70683314D01*
X150053201Y-70907661D01*
X149860888Y-71099974D01*
X149807754Y-71055408D01*
X149506949Y-70890464D01*
X149179745Y-70787374D01*
X149143033Y-70780072D01*
X148870000Y-70975820D01*
X148870000Y-72450000D01*
X148890000Y-72450000D01*
X148890000Y-72550000D01*
X148870000Y-72550000D01*
X148870000Y-74024180D01*
X149143033Y-74219928D01*
X149179745Y-74212626D01*
X149506949Y-74109536D01*
X149807754Y-73944592D01*
X149860888Y-73900026D01*
X150053201Y-74092339D01*
X150388961Y-74316686D01*
X150762037Y-74471220D01*
X151158093Y-74550000D01*
X151561907Y-74550000D01*
X151957963Y-74471220D01*
X152331039Y-74316686D01*
X152333961Y-74314734D01*
X152380090Y-74352591D01*
X152588558Y-74464019D01*
X152814759Y-74532637D01*
X153050000Y-74555806D01*
X154750000Y-74555806D01*
X154985241Y-74532637D01*
X155211442Y-74464019D01*
X155419910Y-74352591D01*
X155602634Y-74202634D01*
X155752591Y-74019910D01*
X155864019Y-73811442D01*
X155932637Y-73585241D01*
X155955806Y-73350000D01*
X155955806Y-71650000D01*
X155932637Y-71414759D01*
X155864019Y-71188558D01*
X155752591Y-70980090D01*
X155602634Y-70797366D01*
X155419910Y-70647409D01*
X155211442Y-70535981D01*
X155092830Y-70500000D01*
X155211442Y-70464019D01*
X155419910Y-70352591D01*
X155602634Y-70202634D01*
X155752591Y-70019910D01*
X155864019Y-69811442D01*
X155932637Y-69585241D01*
X155955806Y-69350000D01*
X155955806Y-67650000D01*
X155932637Y-67414759D01*
X155864019Y-67188558D01*
X155752591Y-66980090D01*
X155602634Y-66797366D01*
X155419910Y-66647409D01*
X155211442Y-66535981D01*
X155092830Y-66500000D01*
X155211442Y-66464019D01*
X155419910Y-66352591D01*
X155602634Y-66202634D01*
X155752591Y-66019910D01*
X155864019Y-65811442D01*
X155932637Y-65585241D01*
X155955806Y-65350000D01*
X155955806Y-64606034D01*
X163000000Y-64606034D01*
X163000000Y-65393966D01*
X163153718Y-66166757D01*
X163455246Y-66894710D01*
X163892997Y-67549851D01*
X164450149Y-68107003D01*
X165105290Y-68544754D01*
X165833243Y-68846282D01*
X166606034Y-69000000D01*
X167393966Y-69000000D01*
X168166757Y-68846282D01*
X168894710Y-68544754D01*
X169549851Y-68107003D01*
X170107003Y-67549851D01*
X170544754Y-66894710D01*
X170846282Y-66166757D01*
X171000000Y-65393966D01*
X171000000Y-64606034D01*
X170846282Y-63833243D01*
X170544754Y-63105290D01*
X170107003Y-62450149D01*
X169549851Y-61892997D01*
X168894710Y-61455246D01*
X168166757Y-61153718D01*
X167393966Y-61000000D01*
X166606034Y-61000000D01*
X165833243Y-61153718D01*
X165105290Y-61455246D01*
X164450149Y-61892997D01*
X163892997Y-62450149D01*
X163455246Y-63105290D01*
X163153718Y-63833243D01*
X163000000Y-64606034D01*
X155955806Y-64606034D01*
X155955806Y-63650000D01*
X155932637Y-63414759D01*
X155864019Y-63188558D01*
X155752591Y-62980090D01*
X155602634Y-62797366D01*
X155419910Y-62647409D01*
X155211442Y-62535981D01*
X154985241Y-62467363D01*
X154750000Y-62444194D01*
X153050000Y-62444194D01*
X152814759Y-62467363D01*
X152588558Y-62535981D01*
X152380090Y-62647409D01*
X152333961Y-62685266D01*
X152331039Y-62683314D01*
X151957963Y-62528780D01*
X151561907Y-62450000D01*
X151158093Y-62450000D01*
X150762037Y-62528780D01*
X150388961Y-62683314D01*
X150053201Y-62907661D01*
X149860888Y-63099974D01*
X149807754Y-63055408D01*
X149506949Y-62890464D01*
X149179745Y-62787374D01*
X149143033Y-62780072D01*
X148870000Y-62975820D01*
X148770000Y-62975820D01*
X148496967Y-62780072D01*
X148460255Y-62787374D01*
X148133051Y-62890464D01*
X147832246Y-63055408D01*
X147569400Y-63275867D01*
X147354613Y-63543368D01*
X147196140Y-63847632D01*
X147100071Y-64176967D01*
X145155806Y-64176967D01*
X145155806Y-63650000D01*
X145132637Y-63414759D01*
X145064019Y-63188558D01*
X144952591Y-62980090D01*
X144802634Y-62797366D01*
X144619910Y-62647409D01*
X144411442Y-62535981D01*
X144185241Y-62467363D01*
X143950000Y-62444194D01*
X142250000Y-62444194D01*
X142014759Y-62467363D01*
X141788558Y-62535981D01*
X141580090Y-62647409D01*
X141533961Y-62685266D01*
X141531039Y-62683314D01*
X141157963Y-62528780D01*
X140761907Y-62450000D01*
X140358093Y-62450000D01*
X139962037Y-62528780D01*
X139588961Y-62683314D01*
X139290000Y-62883073D01*
X138991039Y-62683314D01*
X138617963Y-62528780D01*
X138221907Y-62450000D01*
X137818093Y-62450000D01*
X137422037Y-62528780D01*
X137048961Y-62683314D01*
X136750000Y-62883073D01*
X136451039Y-62683314D01*
X136077963Y-62528780D01*
X135681907Y-62450000D01*
X135278093Y-62450000D01*
X134882037Y-62528780D01*
X134508961Y-62683314D01*
X134173201Y-62907661D01*
X133887661Y-63193201D01*
X133663314Y-63528961D01*
X133508780Y-63902037D01*
X133430000Y-64298093D01*
X130994825Y-64298093D01*
X130858930Y-64207291D01*
X130367561Y-64003760D01*
X129845927Y-63900000D01*
X129314073Y-63900000D01*
X128792439Y-64003760D01*
X128301070Y-64207291D01*
X127858850Y-64502773D01*
X127482773Y-64878850D01*
X127187291Y-65321070D01*
X126983760Y-65812439D01*
X126900331Y-66231862D01*
X126904355Y-65100000D01*
X126886978Y-64923569D01*
X126835515Y-64753918D01*
X126751944Y-64597567D01*
X126639476Y-64460524D01*
X126502433Y-64348056D01*
X126346082Y-64264485D01*
X126176431Y-64213022D01*
X126000000Y-64195645D01*
X124775000Y-64200000D01*
X124550000Y-64425000D01*
X124450000Y-64425000D01*
X124225000Y-64200000D01*
X123000000Y-64195645D01*
X122823569Y-64213022D01*
X122653918Y-64264485D01*
X122497567Y-64348056D01*
X122360524Y-64460524D01*
X122248056Y-64597567D01*
X122164485Y-64753918D01*
X122113022Y-64923569D01*
X122095645Y-65100000D01*
X118275000Y-65100000D01*
X118275000Y-60275000D01*
X171725000Y-60275000D01*
X171725001Y-134725000D01*
G37*
%TD.AperFunction*%
D24*
X165614853Y-124255858D02*
X165600711Y-124270000D01*
X165614853Y-124284142D01*
X165544142Y-124354853D01*
X165530000Y-124340711D01*
X165515858Y-124354853D01*
X165445147Y-124284142D01*
X165459289Y-124270000D01*
X165445147Y-124255858D01*
X165515858Y-124185147D01*
X165530000Y-124199289D01*
X165544142Y-124185147D01*
X165614853Y-124255858D01*
%TA.AperFunction,Conductor*%
D25*
G36*
X165614853Y-124255858D02*
G01*
X165600711Y-124270000D01*
X165614853Y-124284142D01*
X165544142Y-124354853D01*
X165530000Y-124340711D01*
X165515858Y-124354853D01*
X165445147Y-124284142D01*
X165459289Y-124270000D01*
X165445147Y-124255858D01*
X165515858Y-124185147D01*
X165530000Y-124199289D01*
X165544142Y-124185147D01*
X165614853Y-124255858D01*
G37*
%TD.AperFunction*%
D24*
X165614853Y-106475858D02*
X165600711Y-106490000D01*
X165614853Y-106504142D01*
X165544142Y-106574853D01*
X165530000Y-106560711D01*
X165515858Y-106574853D01*
X165445147Y-106504142D01*
X165459289Y-106490000D01*
X165445147Y-106475858D01*
X165515858Y-106405147D01*
X165530000Y-106419289D01*
X165544142Y-106405147D01*
X165614853Y-106475858D01*
%TA.AperFunction,Conductor*%
D25*
G36*
X165614853Y-106475858D02*
G01*
X165600711Y-106490000D01*
X165614853Y-106504142D01*
X165544142Y-106574853D01*
X165530000Y-106560711D01*
X165515858Y-106574853D01*
X165445147Y-106504142D01*
X165459289Y-106490000D01*
X165445147Y-106475858D01*
X165515858Y-106405147D01*
X165530000Y-106419289D01*
X165544142Y-106405147D01*
X165614853Y-106475858D01*
G37*
%TD.AperFunction*%
D24*
X142119853Y-124255858D02*
X142105711Y-124270000D01*
X142119853Y-124284142D01*
X142049142Y-124354853D01*
X142035000Y-124340711D01*
X142020858Y-124354853D01*
X141950147Y-124284142D01*
X141964289Y-124270000D01*
X141950147Y-124255858D01*
X142020858Y-124185147D01*
X142035000Y-124199289D01*
X142049142Y-124185147D01*
X142119853Y-124255858D01*
%TA.AperFunction,Conductor*%
D25*
G36*
X142119853Y-124255858D02*
G01*
X142105711Y-124270000D01*
X142119853Y-124284142D01*
X142049142Y-124354853D01*
X142035000Y-124340711D01*
X142020858Y-124354853D01*
X141950147Y-124284142D01*
X141964289Y-124270000D01*
X141950147Y-124255858D01*
X142020858Y-124185147D01*
X142035000Y-124199289D01*
X142049142Y-124185147D01*
X142119853Y-124255858D01*
G37*
%TD.AperFunction*%
D24*
X142119853Y-114095858D02*
X142105711Y-114110000D01*
X142119853Y-114124142D01*
X142049142Y-114194853D01*
X142035000Y-114180711D01*
X142020858Y-114194853D01*
X141950147Y-114124142D01*
X141964289Y-114110000D01*
X141950147Y-114095858D01*
X142020858Y-114025147D01*
X142035000Y-114039289D01*
X142049142Y-114025147D01*
X142119853Y-114095858D01*
%TA.AperFunction,Conductor*%
D25*
G36*
X142119853Y-114095858D02*
G01*
X142105711Y-114110000D01*
X142119853Y-114124142D01*
X142049142Y-114194853D01*
X142035000Y-114180711D01*
X142020858Y-114194853D01*
X141950147Y-114124142D01*
X141964289Y-114110000D01*
X141950147Y-114095858D01*
X142020858Y-114025147D01*
X142035000Y-114039289D01*
X142049142Y-114025147D01*
X142119853Y-114095858D01*
G37*
%TD.AperFunction*%
%TD*%
M02*
