M48
; DRILL file {KiCad (5.1.9)-1} date 12/22/21 12:25:19
; FORMAT={-:-/ absolute / inch / decimal}
; #@! TF.CreationDate,2021-12-22T12:25:19+01:00
; #@! TF.GenerationSoftware,Kicad,Pcbnew,(5.1.9)-1
; #@! TF.FileFunction,Plated,1,2,PTH
FMAT,2
INCH
T1C0.0157
T2C0.0300
T3C0.0394
T4C0.0598
T5C0.1260
%
G90
G05
T1
X4.9055Y-2.7874
X5.9606Y-3.0472
X6.0197Y-4.2953
T2
X5.5919Y-3.5925
X5.5919Y-3.6925
X5.5919Y-3.7925
X5.5919Y-3.8925
X5.5919Y-3.9925
X5.5919Y-4.0925
X5.5919Y-4.1925
X5.5919Y-4.2925
X5.5919Y-4.3925
X5.5919Y-4.4925
X5.5919Y-4.5925
X5.5919Y-4.6925
X5.5919Y-4.7925
X5.5919Y-4.8925
X5.5919Y-4.9925
X6.5169Y-3.5925
X6.5169Y-3.6925
X6.5169Y-3.7925
X6.5169Y-3.8925
X6.5169Y-3.9925
X6.5169Y-4.0925
X6.5169Y-4.1925
X6.5169Y-4.2925
X6.5169Y-4.3925
X6.5169Y-4.4925
X6.5169Y-4.5925
X6.5169Y-4.6925
X6.5169Y-4.7925
X6.5169Y-4.8925
X6.5169Y-4.9925
T3
X4.8937Y-3.9646
X4.8945Y-3.5197
X4.9606Y-3.063
X4.9945Y-3.5197
X5.0197Y-4.5118
X5.0197Y-4.6496
X5.0315Y-3.9646
X5.0945Y-3.5197
X5.0984Y-3.063
X5.152Y-4.9921
X5.252Y-4.9921
X5.3339Y-2.5394
X5.4339Y-2.5394
X5.5339Y-2.5394
X5.6339Y-2.5394
X5.8591Y-2.5394
X5.8591Y-2.6969
X5.8591Y-2.8543
X5.9591Y-2.5394
X5.9591Y-2.6969
X5.9591Y-2.8543
X6.0591Y-2.5394
X6.0591Y-2.6969
X6.0591Y-2.8543
T4
X4.9016Y-2.622
X5.1016Y-2.622
T5
X4.8425Y-5.1181
X6.5748Y-2.5591
T0
M30
